<svg xmlns="http://www.w3.org/2000/svg" viewBox="0 0 536.4 498.57">
  <defs>
    <linearGradient id="logo-gradient" x1="50%" y1="0%" x2="50%" y2="100%" >
      <stop offset="0%" stop-color="#ee7752">
        <animate attributeName="stop-color" values="#ee7752; #e73c7e; #23a6d5;#23d5ab;#ee7752; " dur="10s" repeatCount="indefinite"></animate>
      </stop>
    </linearGradient>
  </defs>
    <g id="Layer_1-2" data-name="Layer 1" fill="url('#logo-gradient')">
      <path d="M536.4,213.13c-1.42,5.93-2.43,12-4.32,17.76A80.59,80.59,0,0,1,461.74,286c-2.33.18-4.68,0-7.17,0v-8.86c24.6-.69,44.52-10.38,59-30.18a68.26,68.26,0,0,0,13.3-46.17c-1.51-21.5-10.91-39.12-28-52.33s-36.75-16.87-58.68-13.77c15-27.15,13.71-51.69-9.76-72.42C417.62,51,395.6,44.58,370.79,57.53c-24-36.53-57.43-54-100.6-44.42C225.32,23.11,202.36,54.37,197,100c-13.56-10-28.32-14.69-44.94-11.16s-28.59,13.33-36.86,28.72c-9.1-9.31-19.49-14.21-32.25-12.76a34.3,34.3,0,0,0-19.87,9.09,35.22,35.22,0,0,0-11.53,24.38c-.64,9.69,3.09,18,8.69,26.17-18.39,3.12-32.72,11.73-42.19,27.47a54.51,54.51,0,0,0-7.72,34.57c2.59,24.59,22,49,55.79,50.78v8.5c-19.64,1.78-52.35-11.88-62.63-46.4-9.47-31.75,6.2-68.2,42.1-81.06-7.34-22.29-3.17-41.7,16.69-55.36,16.35-11.24,33.68-10,50.82.25,9-11.5,20.48-19.48,34.88-23,14.25-3.44,28-1.9,41.58,4.27C200,41.8,225.48,13,268.78,3.84s78.41,6.52,105.43,41.74c24.18-8.43,46.86-5.3,65.83,12.82S463.2,98.73,455.71,124c4.31.51,8.55.78,12.7,1.53,36.81,6.69,62.29,33.46,67.3,70.56a9.12,9.12,0,0,0,.69,1.91Z"/>
      <path d="M274.48,498.57c-4.2-2.81-9.17-4.92-12.44-8.57-6.68-7.46-6.68-18.06-1.14-26.4a22.49,22.49,0,1,1,27,33.44c-1.12.47-2.21,1-3.31,1.53Zm4.75-36.2c-7.53.07-14,6.65-13.79,14A14.21,14.21,0,0,0,279.27,490a13.83,13.83,0,1,0,0-27.66Z"/>
      <path d="M169.55,498.57c-8.07-2.78-14.29-7.49-16.79-16.08A22.49,22.49,0,1,1,182.9,497c-1.12.47-2.19,1.06-3.28,1.59ZM188.15,476a13.84,13.84,0,0,0-14.07-13.62,13.83,13.83,0,0,0,.38,27.65A13.86,13.86,0,0,0,188.15,476Z"/>
      <path d="M304.66,228.3l21-1.59V89.11h20.9V225.18c7.07-.45,13.6-.74,20.09-1.42,1.05-.11,2.24-1.83,2.82-3.06,7.86-16.73,16.33-33.11,27.66-47.8a152.57,152.57,0,0,1,12-13.4c7.44-7.57,16.71-10.58,27.12-9.51,13.2,1.36,26.35,3.13,39.51,4.73,1.67.21,3.63,0,4.91.8,1.51,1,3.39,2.87,3.35,4.32s-2.21,3.86-3.59,4c-12.5.95-21.15,8.14-28.67,17.16-8.5,10.19-14.23,22-19.38,34.13-8.33,19.67-16.61,39.35-25.11,58.94C390.75,312.21,374,350.29,357.49,388.5c-2.16,5-4.69,8.06-10.47,7a5.53,5.53,0,0,0-1.67.07,8.08,8.08,0,0,0-1.33.5c0,3.64,0,7.51,0,11.37-.07,5.22-1.31,6.47-6.4,6.5-3.06,0-6.13,0-9.53,0-.35,2.86-.52,5.49-1,8.06-2.7,14.15-12.51,23-28.1,25.32a90.49,90.49,0,0,1-12.94,1q-76.39.1-152.78,0c-1.12,0-2.55.4-3.3-.14-1.52-1.08-3.72-2.68-3.72-4.06s2.11-3.13,3.65-4.19c.87-.59,2.45-.15,3.71-.15,50.65,0,101.29.09,151.94-.11a68.43,68.43,0,0,0,18.16-2.57c10.45-2.95,16-11.92,15-23.2-4.38,0-8.83-.09-13.27,0-3.7.09-5.43-1.55-5.37-5.26.07-4.31,0-8.63,0-13.18-1.43-.13-2.51-.31-3.58-.32q-66.09-.44-132.18-.85c-17.76-.11-35.53-.31-53.29-.18-4,0-6.13-1.55-7-5.07-2.59-10.85-5.68-21.64-7.41-32.63-5.53-35.07-10.52-70.21-15.72-105.32-.81-5.47.16-6.89,5.64-7.34,9.59-.79,19.19-1.42,29.19-2.14V209.89H136.7v30.28l21.06-1.52V189.26h20.89v47.86l21.07-1.42V159.2h20.95v75l21.09-1.51V197.83h20.89v33.33l20.91-1.4V148.92h21.1ZM90,252.06c.06,1,.06,1.72.16,2.4,4.1,28.21,8,56.44,12.4,84.61,2.14,13.79,5.12,27.45,7.72,41.17.68,3.57,2.24,5.14,6.44,5.13,26,0,52,.38,78,.55,49.93.32,99.86.54,149.78.92,3.15,0,4.58-1,5.84-3.87q31.73-73,63.7-145.86c1.1-2.52,2.19-5.05,3.62-8.34l-71.19,5v60.68H325.65V235.35l-21.13,1.47v57.64H283.68V238.24l-21,1.59v54.82h-21V241.29l-20.87,1.51v51.93h-21V244.2l-21,1.61v48.92H157.67V247.26l-20.89,1.46v46H115.65V250.18ZM378,223c2.08-.12,3.41-.19,4.75-.28,9.34-.66,18.68-1.93,28-1.79,7.77.11,11.41-2.53,14.33-10,7.39-19,17.15-36.74,34.46-49,.12-.08,0-.47.07-1.14-6.49-.73-13-1.29-19.5-2.22-13.5-1.95-23.42,3.78-31.75,13.83-9.6,11.59-17.23,24.37-24,37.71C382.27,214.14,380.33,218.26,378,223Zm-42.82,172.6H309.09v9.49h26.12Z"/>
    </g>
</svg>
