<svg xmlns="http://www.w3.org/2000/svg" viewBox="0 0 1196.28 1033.17"><g id="Layer_2" data-name="Layer 2"><g id="Layer_1-2" data-name="Layer 1"><path d="M794.25,702.09l205.07-469L841.65,244.32,152.42,293.25l-126,8.94c5.69,43,25.78,184.65,42.5,288.49,9.74,60.56,20.07,107,24.69,107,8.75,0,621.7,3.88,700.64,4.37Zm236.08-477.85L814.15,718.62c-1.82,5.27-6.41,8.19-11.86,8.35-3.11,0-713-4.42-722.31-4.42-11.24,0-24-55.58-35.6-128C25.29,476,1.84,308.49.13,292.51a12.5,12.5,0,0,1,11.46-14.22l139.08-9.87L839.9,219.49l177.48-12.59A12.46,12.46,0,0,1,1030.33,224.24Z"/><path d="M851.94,220.18a12.43,12.43,0,1,0,22.88,9.74c.2-.46,70.8-168.13,140.59-200.36,21-9.68,71.43-3.26,113,3.3-25.17,14.87-45.65,37.5-62.22,61.39-31.85,45.91-52.15,100.84-58.86,120.42a12.44,12.44,0,0,0,23.57,8c6.46-18.85,26.22-72.45,56.76-115.8C1110,75.16,1143,42.66,1183.28,41.28c15.84.88,18-22.91,2-24.81-7.78-.8-19.44-2.72-33-4.95-46.9-7.69-115.88-19-147.2-4.55C926.39,43.27,852.15,219.7,851.94,220.18Z"/><path d="M674.68,719a12.47,12.47,0,0,0-24.93,0v51.44a12.46,12.46,0,0,0,12.47,12.46h104.9a12.46,12.46,0,0,0,12.46-12.46V719a12.46,12.46,0,0,0-24.92,0v39h-80Z"/><path d="M732.63,772.62a12.42,12.42,0,0,0-24.83.19C708,797,704.74,817.1,691,832.62c-14,15.77-39.66,25.77-84.84,25.77H146.25a12.47,12.47,0,0,0,0,24.93H606.16c53.26,0,84.86-13.29,103.43-34.25C728.39,827.86,732.91,802.19,732.63,772.62Z"/><path d="M589.07,900.64a66.27,66.27,0,1,1-46.85,19.41,66,66,0,0,1,46.85-19.41Zm29.23,37a41.33,41.33,0,1,0,12.11,29.23A41.2,41.2,0,0,0,618.3,937.68Z"/><path d="M277.41,900.64a66.27,66.27,0,1,1-46.85,19.41,66.09,66.09,0,0,1,46.85-19.41Zm29.23,37a41.33,41.33,0,1,0,12.11,29.23A41.2,41.2,0,0,0,306.64,937.68Z"/><path d="M370.49,452.64H581.33A12.46,12.46,0,0,1,593.8,465.1V615.71a12.46,12.46,0,0,1-12.47,12.46H370.49A12.46,12.46,0,0,1,358,615.71V465.1a12.46,12.46,0,0,1,12.47-12.46Zm198.38,24.92H383V603.24H568.87Z"/><path d="M456.75,360.88h38.32a58.47,58.47,0,0,1,58.34,58.34v33.42H528.49V419.22a33.55,33.55,0,0,0-33.42-33.41H456.75a33.55,33.55,0,0,0-33.42,33.41v33.42H398.41V419.22a58.49,58.49,0,0,1,58.34-58.34Z"/></g></g></svg>