<svg xmlns="http://www.w3.org/2000/svg" viewBox="0 0 649 583.6"><defs><style>.cls-1{fill:#36a9e1;}</style></defs><g id="Layer_2" data-name="Layer 2"><g id="OBJECTS"><path class="cls-1" d="M121.09,235.3c24.7-89.11,106.39-154.54,203.37-154.54S503.12,146.19,527.82,235.3h82.93C584.45,101.19,466.28,0,324.46,0s-260,101.19-286.3,235.3Z"/><path class="cls-1" d="M527.82,348.3c-24.7,89.12-106.39,154.54-203.36,154.54S145.79,437.42,121.09,348.3H38.16c26.31,134.11,144.48,235.3,286.3,235.3s260-101.19,286.29-235.3Z"/><path class="cls-1" d="M621,354.3H28a28,28,0,0,1-28-28V256.27a28,28,0,0,1,28-28H621a28,28,0,0,1,28,28v70.06A28,28,0,0,1,621,354.3ZM13,256.54v69.52A15.24,15.24,0,0,0,28.24,341.3H620.76A15.24,15.24,0,0,0,636,326.06V256.54a15.24,15.24,0,0,0-15.24-15.24H28.24A15.24,15.24,0,0,0,13,256.54Z"/></g></g></svg>