<?xml version="1.0" encoding="utf-8"?>
<!-- Generator: Adobe Illustrator 16.0.0, SVG Export Plug-In . SVG Version: 6.00 Build 0)  -->
<!DOCTYPE svg PUBLIC "-//W3C//DTD SVG 1.0//EN" "http://www.w3.org/TR/2001/REC-SVG-20010904/DTD/svg10.dtd">
<svg version="1.0" id="Layer_1" xmlns="http://www.w3.org/2000/svg" xmlns:xlink="http://www.w3.org/1999/xlink" x="0px" y="0px"
	 width="100px" height="100px" viewBox="0 0 100 100" enable-background="new 0 0 100 100" xml:space="preserve">
<polygon points="75.286,68.62 63.333,80.569 58.047,75.286 53.333,80 63.333,90 80,73.333 "/>
<path d="M90,23.34l-13.333-0.003L76.67,10L63.337,23.327l-0.004,8.623l-25.69,25.694c-1.302,1.302-1.302,3.411,0,4.713
	c1.302,1.303,3.412,1.303,4.714,0l25.687-25.69h8.623L90,23.34z"/>
<path d="M47.07,67.07C45.182,68.958,42.671,70,40,70s-5.182-1.042-7.07-2.93C31.04,65.183,30,62.669,30,60s1.04-5.183,2.93-7.07
	l9.364-9.365c-0.757-0.107-1.507-0.231-2.293-0.231c-9.208,0-16.667,7.458-16.667,16.667c0,9.206,7.459,16.667,16.667,16.667
	c9.206,0,16.667-7.461,16.667-16.667c0-0.788-0.127-1.536-0.231-2.295L47.07,67.07z"/>
<g>
	<path d="M70,60c0-4.629-1.077-8.998-2.949-12.91l-5.088,5.088c0.869,2.448,1.37,5.075,1.37,7.822H70z"/>
	<path d="M40,83.333c-12.891,0-23.333-10.445-23.333-23.333c0-12.891,10.443-23.333,23.333-23.333c2.748,0,5.371,0.501,7.819,1.371
		l5.088-5.088C48.994,31.078,44.627,30,40,30c-16.574,0-30,13.424-30,30c0,16.569,13.426,30,30,30V83.333z"/>
</g>
</svg>
