<svg xmlns="http://www.w3.org/2000/svg" xmlns:xlink="http://www.w3.org/1999/xlink" viewBox="0 0 2169.95 2182.05"><defs><style>.cls-1{opacity:0.23;}.cls-2{fill:#4a0101;opacity:0.04;}.cls-3{fill:#480202;opacity:0.08;}.cls-4{fill:#460303;opacity:0.12;}.cls-5{fill:#440404;opacity:0.15;}.cls-6{fill:#420505;opacity:0.19;}.cls-7{fill:#400606;opacity:0.23;}.cls-8{fill:#3e0606;opacity:0.27;}.cls-9{fill:#3c0707;opacity:0.31;}.cls-10{fill:#3a0808;opacity:0.35;}.cls-11{fill:#380909;opacity:0.38;}.cls-12{fill:#360a0a;opacity:0.42;}.cls-13{fill:#340b0b;opacity:0.46;}.cls-14{fill:#330c0c;opacity:0.5;}.cls-15{fill:#310d0d;opacity:0.54;}.cls-16{fill:#2f0e0e;opacity:0.58;}.cls-17{fill:#2d0f0f;opacity:0.62;}.cls-18{fill:#2b1010;opacity:0.65;}.cls-19{fill:#291111;opacity:0.69;}.cls-20{fill:#271212;opacity:0.73;}.cls-21{fill:#251212;opacity:0.77;}.cls-22{fill:#231313;opacity:0.81;}.cls-23{fill:#211414;opacity:0.85;}.cls-24{fill:#1f1515;opacity:0.88;}.cls-25{fill:#1d1616;opacity:0.92;}.cls-26{fill:#1b1717;opacity:0.96;}.cls-27{fill:#191818;}.cls-28{fill:url(#linear-gradient);}.cls-29{fill:url(#linear-gradient-2);}.cls-30{fill:url(#linear-gradient-3);}.cls-31{fill:url(#linear-gradient-4);}.cls-32{fill:url(#linear-gradient-5);}.cls-102,.cls-33,.cls-61{fill:#fff;}.cls-33,.cls-49{opacity:0.3;}.cls-34{fill:url(#linear-gradient-6);}.cls-35{fill:url(#linear-gradient-7);}.cls-36{fill:url(#linear-gradient-8);}.cls-37{fill:url(#linear-gradient-9);}.cls-38{fill:url(#linear-gradient-10);}.cls-39{fill:url(#linear-gradient-11);}.cls-40{fill:url(#linear-gradient-12);}.cls-41{fill:url(#linear-gradient-13);}.cls-42{fill:url(#linear-gradient-14);}.cls-43{fill:url(#linear-gradient-15);}.cls-44{fill:url(#linear-gradient-16);}.cls-45{fill:url(#linear-gradient-17);}.cls-46{fill:url(#linear-gradient-18);}.cls-47{fill:url(#linear-gradient-19);}.cls-48{fill:url(#linear-gradient-20);}.cls-50{fill:#4c0000;opacity:0;}.cls-51{opacity:0.35;}.cls-52{fill:url(#linear-gradient-21);}.cls-53{fill:url(#linear-gradient-22);}.cls-54{fill:url(#linear-gradient-23);}.cls-55{fill:#e8e2e2;}.cls-56{opacity:0.71;}.cls-57{fill:url(#linear-gradient-24);}.cls-58{fill:url(#linear-gradient-25);}.cls-59{fill:url(#linear-gradient-26);}.cls-60{opacity:0.7;}.cls-62{opacity:0.16;}.cls-63{fill:url(#linear-gradient-27);}.cls-64{fill:url(#linear-gradient-28);}.cls-65{fill:url(#linear-gradient-29);}.cls-66{fill:url(#linear-gradient-30);}.cls-67{fill:url(#linear-gradient-31);}.cls-68{fill:url(#linear-gradient-32);}.cls-69{fill:url(#linear-gradient-33);}.cls-70{fill:url(#linear-gradient-34);}.cls-71{fill:url(#linear-gradient-35);}.cls-72{fill:url(#linear-gradient-36);}.cls-73{fill:url(#linear-gradient-37);}.cls-74{fill:url(#linear-gradient-38);}.cls-75{fill:url(#linear-gradient-39);}.cls-76{fill:url(#linear-gradient-40);}.cls-77{fill:url(#linear-gradient-41);}.cls-78{fill:url(#linear-gradient-42);}.cls-79{fill:url(#linear-gradient-43);}.cls-80{fill:url(#linear-gradient-44);}.cls-81{fill:url(#linear-gradient-45);}.cls-82{fill:url(#linear-gradient-46);}.cls-83{fill:url(#linear-gradient-47);}.cls-84{fill:url(#linear-gradient-48);}.cls-85{fill:url(#linear-gradient-49);}.cls-86{fill:url(#linear-gradient-50);}.cls-87{fill:url(#linear-gradient-51);}.cls-88{fill:url(#linear-gradient-52);}.cls-89{fill:url(#linear-gradient-53);}.cls-90{fill:url(#linear-gradient-54);}.cls-91{fill:url(#linear-gradient-55);}.cls-92{fill:url(#linear-gradient-56);}.cls-93{fill:url(#linear-gradient-57);}.cls-94{fill:url(#linear-gradient-58);}.cls-95{fill:url(#linear-gradient-59);}.cls-96{fill:url(#linear-gradient-60);}.cls-97{fill:url(#linear-gradient-61);}.cls-98{fill:url(#linear-gradient-62);}.cls-99{fill:url(#linear-gradient-63);}.cls-100{fill:url(#linear-gradient-64);}.cls-101{fill:url(#linear-gradient-65);}.cls-102{opacity:0.4;}.cls-103{fill:url(#linear-gradient-66);}.cls-104{fill:url(#linear-gradient-67);}.cls-105{fill:url(#linear-gradient-68);}.cls-106{fill:url(#linear-gradient-69);}.cls-107{fill:url(#linear-gradient-70);}.cls-108{fill:url(#linear-gradient-71);}.cls-109{fill:url(#linear-gradient-72);}.cls-110{fill:url(#linear-gradient-73);}.cls-111{fill:url(#linear-gradient-74);}.cls-112{fill:url(#linear-gradient-75);}.cls-113{fill:url(#linear-gradient-76);}.cls-114{fill:url(#linear-gradient-77);}.cls-115{fill:url(#linear-gradient-78);}.cls-116{fill:url(#linear-gradient-79);}.cls-117{fill:url(#linear-gradient-80);}.cls-118{fill:url(#linear-gradient-81);}.cls-119{fill:url(#linear-gradient-82);}.cls-120{fill:url(#linear-gradient-83);}.cls-121{fill:url(#linear-gradient-84);}</style><linearGradient id="linear-gradient" x1="1085.15" y1="811.03" x2="614.64" y2="1160.97" gradientTransform="matrix(1, 0, 0.02, 1.01, 62.65, 20.87)" gradientUnits="userSpaceOnUse"><stop offset="0" stop-color="#303030"/><stop offset="1" stop-color="#727272"/></linearGradient><linearGradient id="linear-gradient-2" x1="1375.66" y1="29.08" x2="1289.62" y2="596.46" gradientUnits="userSpaceOnUse"><stop offset="0" stop-color="#787878"/><stop offset="0.24" stop-color="#fcfcfc"/><stop offset="0.7" stop-color="#4e4e4e"/><stop offset="1" stop-color="#727272"/></linearGradient><linearGradient id="linear-gradient-3" x1="690.89" y1="686.76" x2="1677.65" y2="686.76" xlink:href="#linear-gradient"/><linearGradient id="linear-gradient-4" x1="1398.33" y1="1454.74" x2="1286.67" y2="1033.56" gradientTransform="matrix(1, 0, 0.02, 1.01, 62.65, 20.87)" gradientUnits="userSpaceOnUse"><stop offset="0" stop-color="#fff"/><stop offset="1" stop-color="#727272"/></linearGradient><linearGradient id="linear-gradient-5" x1="1290.86" y1="59.46" x2="1085.02" y2="1218.03" gradientTransform="matrix(1, 0, 0.02, 1.01, 62.65, 20.87)" gradientUnits="userSpaceOnUse"><stop offset="0" stop-color="#82fb7c"/><stop offset="1" stop-color="#0ba2b3"/></linearGradient><linearGradient id="linear-gradient-6" x1="1401.61" y1="-113.58" x2="1126.61" y2="165.93" gradientTransform="matrix(0.96, 0.18, 0, 1.05, 35.14, 15.06)" gradientUnits="userSpaceOnUse"><stop offset="0" stop-color="#f6f6f6"/><stop offset="1" stop-color="#ababab"/></linearGradient><linearGradient id="linear-gradient-7" x1="1022.57" y1="74.61" x2="1017.66" y2="-81.69" gradientTransform="matrix(0.96, 0.18, 0, 1.05, 35.14, 15.06)" gradientUnits="userSpaceOnUse"><stop offset="0" stop-color="#dd2f2f"/><stop offset="1" stop-color="#ff6757"/></linearGradient><linearGradient id="linear-gradient-8" x1="1108.64" y1="10.65" x2="1198.26" y2="-216.03" xlink:href="#linear-gradient-6"/><linearGradient id="linear-gradient-9" x1="1218.72" y1="72.11" x2="1213.73" y2="-86.71" xlink:href="#linear-gradient-7"/><linearGradient id="linear-gradient-10" x1="1285.19" y1="62.59" x2="1374.97" y2="-164.52" xlink:href="#linear-gradient-6"/><linearGradient id="linear-gradient-11" x1="1414.87" y1="69.32" x2="1409.8" y2="-91.81" xlink:href="#linear-gradient-7"/><linearGradient id="linear-gradient-12" x1="1461.66" y1="114.71" x2="1551.61" y2="-112.82" xlink:href="#linear-gradient-6"/><linearGradient id="linear-gradient-13" x1="1611" y1="66.29" x2="1605.87" y2="-96.99" xlink:href="#linear-gradient-7"/><linearGradient id="linear-gradient-14" x1="902.66" y1="187.2" x2="907.87" y2="-39.76" gradientTransform="matrix(0.95, 0.2, 0, 1.05, 35.63, 12.67)" xlink:href="#linear-gradient-7"/><linearGradient id="linear-gradient-15" x1="1004.54" y1="187.2" x2="1009.75" y2="-39.76" gradientTransform="matrix(0.95, 0.2, 0, 1.05, 35.63, 12.67)" xlink:href="#linear-gradient-6"/><linearGradient id="linear-gradient-16" x1="1106.42" y1="187.2" x2="1111.63" y2="-39.76" gradientTransform="matrix(0.95, 0.2, 0, 1.05, 35.63, 12.67)" xlink:href="#linear-gradient-7"/><linearGradient id="linear-gradient-17" x1="1208.3" y1="187.2" x2="1213.51" y2="-39.76" gradientTransform="matrix(0.95, 0.2, 0, 1.05, 35.63, 12.67)" xlink:href="#linear-gradient-6"/><linearGradient id="linear-gradient-18" x1="1310.17" y1="187.2" x2="1315.38" y2="-39.77" gradientTransform="matrix(0.95, 0.2, 0, 1.05, 35.63, 12.67)" xlink:href="#linear-gradient-7"/><linearGradient id="linear-gradient-19" x1="1412.05" y1="187.2" x2="1417.26" y2="-39.77" gradientTransform="matrix(0.95, 0.2, 0, 1.05, 35.63, 12.67)" xlink:href="#linear-gradient-6"/><linearGradient id="linear-gradient-20" x1="1513.93" y1="187.19" x2="1519.14" y2="-39.77" gradientTransform="matrix(0.95, 0.2, 0, 1.05, 35.63, 12.67)" xlink:href="#linear-gradient-7"/><linearGradient id="linear-gradient-21" x1="1344.69" y1="769.92" x2="1961.66" y2="769.92" gradientUnits="userSpaceOnUse"><stop offset="0" stop-color="#dd2f2f"/><stop offset="1" stop-color="#7f2121"/></linearGradient><linearGradient id="linear-gradient-22" x1="1655.27" y1="939.07" x2="1647.11" y2="700.81" gradientUnits="userSpaceOnUse"><stop offset="0" stop-color="#fe7f0a"/><stop offset="1" stop-color="#ffb538"/></linearGradient><linearGradient id="linear-gradient-23" x1="1386.5" y1="701.29" x2="1940.92" y2="701.29" xlink:href="#linear-gradient-21"/><linearGradient id="linear-gradient-24" x1="2792.89" y1="521.02" x2="2737.32" y2="495.02" gradientTransform="matrix(1.01, 0.23, -0.27, 0.96, -827.8, -265.95)" xlink:href="#linear-gradient"/><linearGradient id="linear-gradient-25" x1="2785.87" y1="-6763.89" x2="2743.63" y2="-6744.12" gradientTransform="matrix(1.01, 0.23, 0.27, -0.96, 820.25, -6250.02)" xlink:href="#linear-gradient"/><linearGradient id="linear-gradient-26" x1="2731.49" y1="537.24" x2="2682.57" y2="514.36" gradientTransform="matrix(1.01, 0.23, -0.27, 0.96, -827.8, -265.95)" xlink:href="#linear-gradient"/><linearGradient id="linear-gradient-27" x1="802.48" y1="1636.8" x2="1347.66" y2="583.33" gradientUnits="userSpaceOnUse"><stop offset="0" stop-color="#f6f6f6"/><stop offset="1" stop-color="#dedede"/></linearGradient><linearGradient id="linear-gradient-28" x1="1186.93" y1="972.12" x2="1379.49" y2="972.12" gradientUnits="userSpaceOnUse"><stop offset="0" stop-color="#8b8b8b"/><stop offset="1" stop-color="#cbcbcb"/></linearGradient><linearGradient id="linear-gradient-29" x1="1186.45" y1="969.34" x2="1187.96" y2="969.34" gradientUnits="userSpaceOnUse"><stop offset="0" stop-color="#f6f6f6"/><stop offset="1" stop-color="#cbcbcb"/></linearGradient><linearGradient id="linear-gradient-30" x1="824.62" y1="955.03" x2="1152.4" y2="955.03" gradientUnits="userSpaceOnUse"><stop offset="0" stop-color="#c3c3c3"/><stop offset="1" stop-color="#cbcbcb"/></linearGradient><linearGradient id="linear-gradient-31" x1="878.73" y1="724.71" x2="1044.9" y2="724.71" gradientTransform="matrix(0.97, 0.25, 0, 1, -9.66, 86.75)" xlink:href="#linear-gradient-7"/><linearGradient id="linear-gradient-32" x1="1071.55" y1="724.89" x2="1147.02" y2="724.89" gradientTransform="matrix(0.97, 0.25, 0, 1, -9.66, 86.75)" xlink:href="#linear-gradient-30"/><linearGradient id="linear-gradient-33" x1="886.35" y1="771.35" x2="1052.52" y2="771.35" gradientTransform="matrix(0.97, 0.25, 0, 1, -9.66, 86.75)" xlink:href="#linear-gradient-30"/><linearGradient id="linear-gradient-34" x1="1079.16" y1="771.53" x2="1154.63" y2="771.53" gradientTransform="matrix(0.97, 0.25, 0, 1, -9.66, 86.75)" xlink:href="#linear-gradient-30"/><linearGradient id="linear-gradient-35" x1="898.48" y1="816.67" x2="1064.65" y2="816.67" gradientTransform="matrix(0.97, 0.25, 0, 1, -9.66, 86.75)" xlink:href="#linear-gradient-30"/><linearGradient id="linear-gradient-36" x1="1091.3" y1="816.85" x2="1166.77" y2="816.85" gradientTransform="matrix(0.97, 0.25, 0, 1, -9.66, 86.75)" xlink:href="#linear-gradient-30"/><linearGradient id="linear-gradient-37" x1="910.76" y1="858.1" x2="1076.93" y2="858.1" gradientTransform="matrix(0.97, 0.25, 0, 1, -9.66, 86.75)" xlink:href="#linear-gradient-30"/><linearGradient id="linear-gradient-38" x1="1103.58" y1="858.28" x2="1179.05" y2="858.28" gradientTransform="matrix(0.97, 0.25, 0, 1, -9.66, 86.75)" xlink:href="#linear-gradient-30"/><linearGradient id="linear-gradient-39" x1="938.79" y1="958.47" x2="1104.96" y2="958.47" gradientTransform="matrix(0.97, 0.25, 0, 1, -9.66, 86.75)" xlink:href="#linear-gradient-30"/><linearGradient id="linear-gradient-40" x1="1131.6" y1="958.65" x2="1207.07" y2="958.65" gradientTransform="matrix(0.97, 0.25, 0, 1, -9.66, 86.75)" xlink:href="#linear-gradient-30"/><linearGradient id="linear-gradient-41" x1="950.92" y1="1003.79" x2="1117.09" y2="1003.79" gradientTransform="matrix(0.97, 0.25, 0, 1, -9.66, 86.75)" xlink:href="#linear-gradient-30"/><linearGradient id="linear-gradient-42" x1="1143.74" y1="1003.97" x2="1219.21" y2="1003.97" gradientTransform="matrix(0.97, 0.25, 0, 1, -9.66, 86.75)" xlink:href="#linear-gradient-30"/><linearGradient id="linear-gradient-43" x1="947.63" y1="1044.2" x2="1113.8" y2="1044.2" gradientTransform="matrix(0.97, 0.25, 0, 1, -9.66, 86.75)" xlink:href="#linear-gradient-30"/><linearGradient id="linear-gradient-44" x1="1140.44" y1="1044.38" x2="1215.91" y2="1044.38" gradientTransform="matrix(0.97, 0.25, 0, 1, -9.66, 86.75)" xlink:href="#linear-gradient-30"/><linearGradient id="linear-gradient-45" x1="896.57" y1="1209.71" x2="1062.74" y2="1209.71" gradientTransform="matrix(0.97, 0.25, 0, 1, -9.66, 86.75)" xlink:href="#linear-gradient-7"/><linearGradient id="linear-gradient-46" x1="1089.38" y1="1209.89" x2="1164.86" y2="1209.89" gradientTransform="matrix(0.97, 0.25, 0, 1, -9.66, 86.75)" xlink:href="#linear-gradient-30"/><linearGradient id="linear-gradient-47" x1="868.13" y1="1249.46" x2="1034.3" y2="1249.46" gradientTransform="matrix(0.97, 0.25, 0, 1, -9.66, 86.75)" xlink:href="#linear-gradient-30"/><linearGradient id="linear-gradient-48" x1="1060.94" y1="1249.63" x2="1136.42" y2="1249.63" gradientTransform="matrix(0.97, 0.25, 0, 1, -9.66, 86.75)" xlink:href="#linear-gradient-30"/><linearGradient id="linear-gradient-49" x1="821.1" y1="1292.56" x2="987.27" y2="1292.56" gradientTransform="matrix(0.97, 0.25, 0, 1, -9.66, 86.75)" xlink:href="#linear-gradient-30"/><linearGradient id="linear-gradient-50" x1="1013.91" y1="1292.73" x2="1089.38" y2="1292.73" gradientTransform="matrix(0.97, 0.25, 0, 1, -9.66, 86.75)" xlink:href="#linear-gradient-30"/><linearGradient id="linear-gradient-51" x1="599.84" y1="1477.49" x2="766.01" y2="1477.49" gradientTransform="matrix(0.97, 0.25, 0, 1, -9.66, 86.75)" xlink:href="#linear-gradient-7"/><linearGradient id="linear-gradient-52" x1="792.66" y1="1477.66" x2="868.13" y2="1477.66" gradientTransform="matrix(0.97, 0.25, 0, 1, -9.66, 86.75)" xlink:href="#linear-gradient-30"/><linearGradient id="linear-gradient-53" x1="572.11" y1="1543.04" x2="738.28" y2="1543.04" gradientTransform="matrix(0.97, 0.25, 0, 1, -9.66, 86.75)" xlink:href="#linear-gradient-30"/><linearGradient id="linear-gradient-54" x1="764.93" y1="1543.21" x2="840.4" y2="1543.21" gradientTransform="matrix(0.97, 0.25, 0, 1, -9.66, 86.75)" xlink:href="#linear-gradient-30"/><linearGradient id="linear-gradient-55" x1="554.65" y1="1610.04" x2="720.82" y2="1610.04" gradientTransform="matrix(0.97, 0.25, 0, 1, -9.66, 86.75)" xlink:href="#linear-gradient-30"/><linearGradient id="linear-gradient-56" x1="747.47" y1="1610.22" x2="822.94" y2="1610.22" gradientTransform="matrix(0.97, 0.25, 0, 1, -9.66, 86.75)" xlink:href="#linear-gradient-30"/><linearGradient id="linear-gradient-57" x1="876.05" y1="1493.91" x2="1187.96" y2="1493.91" xlink:href="#linear-gradient-30"/><linearGradient id="linear-gradient-58" x1="649.34" y1="1957.37" x2="688.32" y2="1882.04" xlink:href="#linear-gradient-30"/><linearGradient id="linear-gradient-59" x1="1131.46" y1="453.02" x2="1082.62" y2="682.35" xlink:href="#linear-gradient-29"/><linearGradient id="linear-gradient-60" x1="1142.16" y1="231.28" x2="993.97" y2="1140.15" xlink:href="#linear-gradient-29"/><linearGradient id="linear-gradient-61" x1="1188.47" y1="494.6" x2="935.14" y2="620.41" gradientUnits="userSpaceOnUse"><stop offset="0" stop-color="#fe7f0a"/><stop offset="1" stop-color="#d65f1d"/></linearGradient><linearGradient id="linear-gradient-62" x1="1110.76" y1="457.24" x2="1042.28" y2="877.24" xlink:href="#linear-gradient-22"/><linearGradient id="linear-gradient-63" x1="1479.12" y1="1491.73" x2="1776.75" y2="1491.73" gradientUnits="userSpaceOnUse"><stop offset="0" stop-color="#cc965c"/><stop offset="1" stop-color="#d88d35"/></linearGradient><linearGradient id="linear-gradient-64" x1="1776.75" y1="1497.29" x2="1979.97" y2="1497.29" gradientUnits="userSpaceOnUse"><stop offset="0" stop-color="#9e6120"/><stop offset="1" stop-color="#cf8632"/></linearGradient><linearGradient id="linear-gradient-65" x1="1479.12" y1="1346.69" x2="1979.97" y2="1346.69" gradientUnits="userSpaceOnUse"><stop offset="0" stop-color="#efcc9e"/><stop offset="1" stop-color="#e2a956"/></linearGradient><linearGradient id="linear-gradient-66" x1="1479.12" y1="1267.79" x2="1776.75" y2="1267.79" xlink:href="#linear-gradient-63"/><linearGradient id="linear-gradient-67" x1="1776.75" y1="1273.36" x2="1979.97" y2="1273.36" xlink:href="#linear-gradient-64"/><linearGradient id="linear-gradient-68" x1="1479.12" y1="1122.76" x2="1979.97" y2="1122.76" xlink:href="#linear-gradient-65"/><linearGradient id="linear-gradient-69" x1="1269.32" y1="1571.56" x2="1566.95" y2="1571.56" xlink:href="#linear-gradient-63"/><linearGradient id="linear-gradient-70" x1="1566.95" y1="1577.12" x2="1770.17" y2="1577.12" xlink:href="#linear-gradient-64"/><linearGradient id="linear-gradient-71" x1="1269.32" y1="1426.52" x2="1770.17" y2="1426.52" xlink:href="#linear-gradient-65"/><linearGradient id="linear-gradient-72" x1="2437.17" y1="5755.08" x2="3413.79" y2="5755.08" gradientTransform="matrix(0.27, 0.52, -0.56, 0.24, 2895.63, -1821.6)" xlink:href="#linear-gradient-7"/><linearGradient id="linear-gradient-73" x1="1170.37" y1="821.59" x2="725.15" y2="1228.74" gradientTransform="translate(-437.26 -50.59) rotate(4.29)" xlink:href="#linear-gradient-7"/><linearGradient id="linear-gradient-74" x1="1141.85" y1="847.67" x2="752.81" y2="1203.43" gradientTransform="translate(-437.26 -50.59) rotate(4.29)" xlink:href="#linear-gradient-29"/><linearGradient id="linear-gradient-75" x1="1110.09" y1="876.71" x2="783.62" y2="1175.26" gradientTransform="translate(-437.26 -50.59) rotate(4.29)" xlink:href="#linear-gradient-7"/><linearGradient id="linear-gradient-76" x1="1075.92" y1="907.95" x2="816.76" y2="1144.95" gradientTransform="translate(-437.26 -50.59) rotate(4.29)" xlink:href="#linear-gradient-29"/><linearGradient id="linear-gradient-77" x1="1044.96" y1="936.26" x2="846.79" y2="1117.48" gradientTransform="translate(-437.26 -50.59) rotate(4.29)" xlink:href="#linear-gradient-7"/><linearGradient id="linear-gradient-78" x1="1059.28" y1="2489.62" x2="861.11" y2="2670.84" gradientTransform="translate(-106.94 -809.2) rotate(4.3) scale(0.7)" xlink:href="#linear-gradient-29"/><linearGradient id="linear-gradient-79" x1="1081.73" y1="5420.53" x2="883.56" y2="5601.76" gradientTransform="matrix(0.45, 0.03, -0.03, 0.45, 173.84, -1450.54)" xlink:href="#linear-gradient-7"/><linearGradient id="linear-gradient-80" x1="34.66" y1="966.07" x2="294.32" y2="978.5" xlink:href="#linear-gradient-61"/><linearGradient id="linear-gradient-81" x1="318.57" y1="897.39" x2="102.03" y2="1095.42" xlink:href="#linear-gradient-22"/><linearGradient id="linear-gradient-82" x1="62.6" y1="900.61" x2="24.62" y2="935.34" xlink:href="#linear-gradient-61"/><linearGradient id="linear-gradient-83" x1="336.23" y1="507.25" x2="815.39" y2="507.25" xlink:href="#linear-gradient-21"/><linearGradient id="linear-gradient-84" x1="331.98" y1="500.17" x2="811.14" y2="500.17" gradientTransform="matrix(1, 0, 0, 1, 0, 0)" xlink:href="#linear-gradient-7"/></defs><g id="Layer_2" data-name="Layer 2"><g id="Layer_4" data-name="Layer 4"><g class="cls-1"><ellipse class="cls-2" cx="457.24" cy="1338.12" rx="428.93" ry="135.75" transform="translate(-1.94 0.66) rotate(-0.08)"/><ellipse class="cls-3" cx="457.24" cy="1338.12" rx="417.59" ry="132.16" transform="translate(-1.94 0.66) rotate(-0.08)"/><ellipse class="cls-4" cx="457.24" cy="1338.12" rx="406.25" ry="128.57" transform="translate(-1.94 0.66) rotate(-0.08)"/><ellipse class="cls-5" cx="457.24" cy="1338.12" rx="394.91" ry="124.98" transform="translate(-1.94 0.66) rotate(-0.08)"/><ellipse class="cls-6" cx="457.24" cy="1338.12" rx="383.56" ry="121.39" transform="translate(-1.94 0.66) rotate(-0.08)"/><ellipse class="cls-7" cx="457.24" cy="1338.12" rx="372.22" ry="117.8" transform="translate(-1.94 0.66) rotate(-0.08)"/><ellipse class="cls-8" cx="457.24" cy="1338.12" rx="360.88" ry="114.21" transform="translate(-1.94 0.66) rotate(-0.08)"/><ellipse class="cls-9" cx="457.24" cy="1338.12" rx="349.54" ry="110.62" transform="matrix(1, 0, 0, 1, -1.94, 0.66)"/><ellipse class="cls-10" cx="457.24" cy="1338.12" rx="338.2" ry="107.03" transform="translate(-1.94 0.66) rotate(-0.08)"/><ellipse class="cls-11" cx="457.24" cy="1338.12" rx="326.86" ry="103.45" transform="translate(-1.94 0.66) rotate(-0.08)"/><ellipse class="cls-12" cx="457.24" cy="1338.12" rx="315.52" ry="99.86" transform="matrix(1, 0, 0, 1, -1.94, 0.66)"/><ellipse class="cls-13" cx="457.24" cy="1338.12" rx="304.18" ry="96.27" transform="translate(-1.94 0.66) rotate(-0.08)"/><ellipse class="cls-14" cx="457.24" cy="1338.12" rx="292.84" ry="92.68" transform="translate(-1.94 0.66) rotate(-0.08)"/><ellipse class="cls-15" cx="457.24" cy="1338.12" rx="281.5" ry="89.09" transform="translate(-1.94 0.66) rotate(-0.08)"/><ellipse class="cls-16" cx="457.24" cy="1338.12" rx="270.16" ry="85.5" transform="translate(-1.94 0.66) rotate(-0.08)"/><ellipse class="cls-17" cx="457.24" cy="1338.12" rx="258.81" ry="81.91" transform="translate(-1.94 0.66) rotate(-0.08)"/><ellipse class="cls-18" cx="457.24" cy="1338.12" rx="247.47" ry="78.32" transform="translate(-1.94 0.66) rotate(-0.08)"/><ellipse class="cls-19" cx="457.24" cy="1338.12" rx="236.13" ry="74.73" transform="translate(-1.94 0.67) rotate(-0.08)"/><ellipse class="cls-20" cx="457.24" cy="1338.12" rx="224.79" ry="71.14" transform="translate(-1.94 0.67) rotate(-0.08)"/><ellipse class="cls-21" cx="457.24" cy="1338.12" rx="213.45" ry="67.55" transform="translate(-1.94 0.67) rotate(-0.08)"/><ellipse class="cls-22" cx="457.24" cy="1338.12" rx="202.11" ry="63.96" transform="matrix(1, 0, 0, 1, -1.94, 0.67)"/><ellipse class="cls-23" cx="457.24" cy="1338.12" rx="190.77" ry="60.38" transform="translate(-1.94 0.67) rotate(-0.08)"/><ellipse class="cls-24" cx="457.24" cy="1338.12" rx="179.43" ry="56.79" transform="translate(-1.94 0.67) rotate(-0.08)"/><ellipse class="cls-25" cx="457.24" cy="1338.12" rx="168.09" ry="53.2" transform="translate(-1.94 0.67) rotate(-0.08)"/><ellipse class="cls-26" cx="457.24" cy="1338.12" rx="156.75" ry="49.61" transform="translate(-1.95 0.67) rotate(-0.08)"/><ellipse class="cls-27" cx="457.24" cy="1338.12" rx="145.41" ry="46.02" transform="translate(-1.95 0.67) rotate(-0.08)"/></g><path class="cls-28" d="M802.93,1224.11,1097.79,97.72A82.59,82.59,0,0,1,1191.34,37L1699,119.14c45.53,7.37,75.41,52.81,64.06,97.4L1460.48,1405.28a73.29,73.29,0,0,1-90.56,52.73L859.46,1320.93C817.4,1309.64,792,1266.05,802.93,1224.11Z"/><path class="cls-29" d="M781.51,1210.91,1097.06,96.44a82.59,82.59,0,0,1,93.55-60.76L1690.49,90.8c45.53,7.37,83.2,79.88,71.85,124.47L1459.75,1404a73.3,73.3,0,0,1-90.55,52.73L858.73,1319.66C816.67,1308.36,770.53,1252.85,781.51,1210.91Z"/><path class="cls-30" d="M780.64,1188.25,1075.5,61.86A82.58,82.58,0,0,1,1169.05,1.1l507.67,82.19c45.52,7.37,75.41,52.81,64,97.4L1438.18,1369.42a73.29,73.29,0,0,1-90.55,52.74L837.17,1285.08C795.1,1273.78,769.66,1230.2,780.64,1188.25Z"/><path class="cls-31" d="M1724.11,110.19a78.64,78.64,0,0,1,14.05,67.24L1435.57,1366.16A73.31,73.31,0,0,1,1345,1418.9L834.55,1281.82a79.33,79.33,0,0,1-39.1-24.38,79.19,79.19,0,0,0,41.72,27.64l510.46,137.08a73.29,73.29,0,0,0,90.55-52.73L1740.77,180.69A78.77,78.77,0,0,0,1724.11,110.19Z"/><path class="cls-32" d="M1706.57,171.22,1404,1359.91a38.8,38.8,0,0,1-37.57,29.31,41.32,41.32,0,0,1-10.38-1.36L847,1251.13c-10.53-2.84-20.19-9.06-26.26-18.24a42.79,42.79,0,0,1-6-34.94L914.07,818.6l195.54-747a48.23,48.23,0,0,1,46.6-36,50.67,50.67,0,0,1,8,.6l131.72,21.37a7,7,0,0,1,5.59,9l-5.35,16.93a20,20,0,0,0,15.58,25.64l168.41,29.61a20.93,20.93,0,0,0,23.14-12.85l8.67-21.79.11-.24A14.2,14.2,0,0,1,1527.61,95l142.87,23.15c11.51,1.84,22.28,7.88,29.18,17.41A42.47,42.47,0,0,1,1706.57,171.22Z"/><path class="cls-33" d="M1589.54,362.67c5.65,273.65-210.08,495.42-481.8,495.42A493.78,493.78,0,0,1,914.07,818.6l195.54-747a48.23,48.23,0,0,1,46.6-36,50.67,50.67,0,0,1,8,.6l131.72,21.37a7,7,0,0,1,5.59,9l-5.35,16.93a20,20,0,0,0,15.58,25.64l168.41,29.61a20.93,20.93,0,0,0,23.14-12.85l8.67-21.79A503.43,503.43,0,0,1,1589.54,362.67Z"/><polygon class="cls-34" points="1063.53 128.43 869.4 227.59 1550.12 378.19 1691.99 242.73 1063.53 128.43"/><polygon class="cls-35" points="1063.53 128.43 869.4 227.59 974.91 250.94 1149.29 144.76 1063.53 128.43"/><polygon class="cls-36" points="1239.74 161.09 1070.78 272.14 966.47 249.07 1153.16 144.73 1239.74 161.09"/><polygon class="cls-37" points="1330.19 177.42 1166.64 293.35 1063.53 270.54 1242.78 161.03 1330.19 177.42"/><polygon class="cls-38" points="1420.64 193.75 1262.51 314.56 1160.6 292.02 1332.41 177.33 1420.64 193.75"/><polygon class="cls-39" points="1511.09 210.08 1358.38 335.77 1257.67 313.49 1422.03 193.63 1511.09 210.08"/><polygon class="cls-40" points="1601.54 226.41 1454.25 356.98 1354.74 334.96 1511.65 209.93 1601.54 226.41"/><polygon class="cls-41" points="1691.99 242.73 1550.12 378.19 1451.81 356.44 1601.28 226.24 1691.99 242.73"/><path class="cls-42" d="M861.28,370.09l4.15.92c26.87,5.94,51.24-6.28,61.91-31.06l39.12-90.88L869.4,227.59,832,314.53C822.82,335.77,838.24,365,861.28,370.09Z"/><path class="cls-43" d="M958.35,390.89l4.15.92c26.87,5.95,51.24-6.28,61.91-31.06l39.12-90.88L966.46,248.4,929,335.33C919.89,356.58,935.31,385.8,958.35,390.89Z"/><path class="cls-44" d="M1055.42,411.69l4.14.92c26.88,5.95,51.25-6.28,61.92-31.05l39.12-90.89-97.07-21.47-37.42,86.93C1017,377.38,1032.37,406.6,1055.42,411.69Z"/><path class="cls-45" d="M1152.49,432.5l4.14.91c26.88,5.95,51.25-6.28,61.92-31.05l39.12-90.89L1160.6,290l-37.42,86.94C1114,398.18,1129.44,427.4,1152.49,432.5Z"/><path class="cls-46" d="M1249.55,453.3l4.15.92c26.88,5.94,51.25-6.29,61.91-31.06l39.13-90.89-97.07-21.47-37.43,86.94C1211.1,419,1226.51,448.2,1249.55,453.3Z"/><path class="cls-47" d="M1346.62,474.1l4.15.92c26.87,5.94,51.25-6.28,61.91-31.06l39.13-90.88-97.07-21.48-37.43,86.94C1308.17,439.78,1323.58,469,1346.62,474.1Z"/><path class="cls-48" d="M1443.69,494.9l4.15.92c26.87,5.94,51.25-6.28,61.91-31.06l39.13-90.88-97.07-21.48-37.43,86.94C1405.24,460.58,1420.65,489.8,1443.69,494.9Z"/><g class="cls-49"><ellipse class="cls-50" cx="1830.04" cy="955.7" rx="339.91" ry="107.58" transform="translate(-1.38 2.65) rotate(-0.08)"/><ellipse class="cls-2" cx="1830.04" cy="955.7" rx="331.16" ry="104.81" transform="translate(-1.38 2.65) rotate(-0.08)"/><ellipse class="cls-3" cx="1830.04" cy="955.7" rx="322.4" ry="102.03" transform="translate(-1.38 2.65) rotate(-0.08)"/><ellipse class="cls-4" cx="1830.04" cy="955.7" rx="313.64" ry="99.26" transform="translate(-1.38 2.65) rotate(-0.08)"/><ellipse class="cls-5" cx="1830.04" cy="955.7" rx="304.89" ry="96.49" transform="translate(-1.38 2.65) rotate(-0.08)"/><ellipse class="cls-6" cx="1830.04" cy="955.7" rx="296.13" ry="93.72" transform="translate(-1.38 2.65) rotate(-0.08)"/><ellipse class="cls-7" cx="1830.04" cy="955.7" rx="287.38" ry="90.95" transform="translate(-1.38 2.65) rotate(-0.08)"/><ellipse class="cls-8" cx="1830.04" cy="955.7" rx="278.62" ry="88.18" transform="translate(-1.38 2.66) rotate(-0.08)"/><ellipse class="cls-9" cx="1830.04" cy="955.7" rx="269.87" ry="85.41" transform="translate(-1.38 2.66) rotate(-0.08)"/><ellipse class="cls-10" cx="1830.04" cy="955.7" rx="261.11" ry="82.64" transform="translate(-1.38 2.66) rotate(-0.08)"/><ellipse class="cls-11" cx="1830.04" cy="955.7" rx="252.35" ry="79.87" transform="translate(-1.38 2.66) rotate(-0.08)"/><ellipse class="cls-12" cx="1830.04" cy="955.7" rx="243.6" ry="77.09" transform="translate(-1.38 2.66) rotate(-0.08)"/><ellipse class="cls-13" cx="1830.04" cy="955.7" rx="234.84" ry="74.32" transform="translate(-1.38 2.66) rotate(-0.08)"/><ellipse class="cls-14" cx="1830.04" cy="955.7" rx="226.09" ry="71.55" transform="translate(-1.38 2.66) rotate(-0.08)"/><ellipse class="cls-15" cx="1830.04" cy="955.7" rx="217.33" ry="68.78" transform="translate(-1.39 2.66) rotate(-0.08)"/><ellipse class="cls-16" cx="1830.04" cy="955.7" rx="208.58" ry="66.01" transform="translate(-1.39 2.66) rotate(-0.08)"/><ellipse class="cls-17" cx="1830.04" cy="955.7" rx="199.82" ry="63.24" transform="translate(-1.39 2.66) rotate(-0.08)"/><ellipse class="cls-18" cx="1830.04" cy="955.7" rx="191.06" ry="60.47" transform="translate(-1.39 2.66) rotate(-0.08)"/><ellipse class="cls-19" cx="1830.04" cy="955.7" rx="182.31" ry="57.7" transform="translate(-1.39 2.66) rotate(-0.08)"/><ellipse class="cls-20" cx="1830.04" cy="955.7" rx="173.55" ry="54.93" transform="translate(-1.39 2.66) rotate(-0.08)"/><ellipse class="cls-21" cx="1830.04" cy="955.7" rx="164.8" ry="52.16" transform="translate(-1.39 2.66) rotate(-0.08)"/><ellipse class="cls-22" cx="1830.04" cy="955.7" rx="156.04" ry="49.38" transform="translate(-1.39 2.66) rotate(-0.08)"/><ellipse class="cls-23" cx="1830.04" cy="955.7" rx="147.28" ry="46.61" transform="translate(-1.39 2.66) rotate(-0.08)"/><ellipse class="cls-24" cx="1830.04" cy="955.7" rx="138.53" ry="43.84" transform="translate(-1.39 2.66) rotate(-0.08)"/><ellipse class="cls-25" cx="1830.04" cy="955.7" rx="129.77" ry="41.07" transform="translate(-1.39 2.66) rotate(-0.08)"/><ellipse class="cls-26" cx="1830.04" cy="955.7" rx="121.02" ry="38.3" transform="translate(-1.39 2.66) rotate(-0.08)"/><ellipse class="cls-27" cx="1830.04" cy="955.7" rx="112.26" ry="35.53" transform="translate(-1.39 2.66) rotate(-0.08)"/></g><g class="cls-51"><ellipse class="cls-50" cx="1477.93" cy="885.49" rx="339.91" ry="107.58" transform="translate(-1.28 2.14) rotate(-0.08)"/><ellipse class="cls-2" cx="1477.93" cy="885.49" rx="331.16" ry="104.81" transform="translate(-1.28 2.14) rotate(-0.08)"/><ellipse class="cls-3" cx="1477.93" cy="885.49" rx="322.4" ry="102.03" transform="translate(-1.28 2.14) rotate(-0.08)"/><ellipse class="cls-4" cx="1477.93" cy="885.49" rx="313.64" ry="99.26" transform="translate(-1.28 2.14) rotate(-0.08)"/><ellipse class="cls-5" cx="1477.92" cy="885.49" rx="304.89" ry="96.49" transform="translate(-1.28 2.14) rotate(-0.08)"/><ellipse class="cls-6" cx="1477.92" cy="885.49" rx="296.13" ry="93.72" transform="translate(-1.28 2.14) rotate(-0.08)"/><ellipse class="cls-7" cx="1477.92" cy="885.49" rx="287.38" ry="90.95" transform="matrix(1, 0, 0, 1, -1.28, 2.14)"/><ellipse class="cls-8" cx="1477.92" cy="885.49" rx="278.62" ry="88.18" transform="translate(-1.28 2.14) rotate(-0.08)"/><ellipse class="cls-9" cx="1477.92" cy="885.49" rx="269.87" ry="85.41" transform="translate(-1.28 2.14) rotate(-0.08)"/><ellipse class="cls-10" cx="1477.92" cy="885.49" rx="261.11" ry="82.64" transform="translate(-1.28 2.14) rotate(-0.08)"/><ellipse class="cls-11" cx="1477.92" cy="885.49" rx="252.35" ry="79.87" transform="translate(-1.28 2.14) rotate(-0.08)"/><ellipse class="cls-12" cx="1477.92" cy="885.49" rx="243.6" ry="77.09" transform="translate(-1.28 2.14) rotate(-0.08)"/><ellipse class="cls-13" cx="1477.92" cy="885.49" rx="234.84" ry="74.32" transform="translate(-1.28 2.14) rotate(-0.08)"/><ellipse class="cls-14" cx="1477.92" cy="885.49" rx="226.09" ry="71.55" transform="translate(-1.28 2.14) rotate(-0.08)"/><ellipse class="cls-15" cx="1477.92" cy="885.49" rx="217.33" ry="68.78" transform="translate(-1.28 2.14) rotate(-0.08)"/><ellipse class="cls-16" cx="1477.92" cy="885.49" rx="208.58" ry="66.01" transform="translate(-1.28 2.14) rotate(-0.08)"/><ellipse class="cls-17" cx="1477.92" cy="885.49" rx="199.82" ry="63.24" transform="translate(-1.28 2.15) rotate(-0.08)"/><ellipse class="cls-18" cx="1477.92" cy="885.49" rx="191.06" ry="60.47" transform="translate(-1.28 2.15) rotate(-0.08)"/><ellipse class="cls-19" cx="1477.92" cy="885.49" rx="182.31" ry="57.7" transform="matrix(1, 0, 0, 1, -1.28, 2.15)"/><ellipse class="cls-20" cx="1477.92" cy="885.49" rx="173.55" ry="54.93" transform="translate(-1.28 2.15) rotate(-0.08)"/><ellipse class="cls-21" cx="1477.92" cy="885.49" rx="164.8" ry="52.16" transform="translate(-1.28 2.15) rotate(-0.08)"/><ellipse class="cls-22" cx="1477.92" cy="885.49" rx="156.04" ry="49.38" transform="translate(-1.28 2.15) rotate(-0.08)"/><ellipse class="cls-23" cx="1477.92" cy="885.49" rx="147.28" ry="46.61" transform="translate(-1.28 2.15) rotate(-0.08)"/><ellipse class="cls-24" cx="1477.92" cy="885.49" rx="138.53" ry="43.84" transform="translate(-1.29 2.15) rotate(-0.08)"/><ellipse class="cls-25" cx="1477.92" cy="885.49" rx="129.77" ry="41.07" transform="translate(-1.29 2.15) rotate(-0.08)"/><ellipse class="cls-26" cx="1477.92" cy="885.49" rx="121.02" ry="38.3" transform="translate(-1.29 2.15) rotate(-0.08)"/><ellipse class="cls-27" cx="1477.92" cy="885.49" rx="112.26" ry="35.53" transform="translate(-1.29 2.15) rotate(-0.08)"/></g><path class="cls-52" d="M1466,529.64l465.77,98.81a37.35,37.35,0,0,1,28.69,46l-82,315.21a28.39,28.39,0,0,1-33.73,20.55L1375.34,899.34A39.29,39.29,0,0,1,1346,851l79.62-296.26A34.61,34.61,0,0,1,1466,529.64Z"/><path class="cls-53" d="M1461.82,522.69l465.77,98.81a37.35,37.35,0,0,1,28.69,46l-82,315.21a28.41,28.41,0,0,1-33.74,20.55L1371.17,892.39A39.29,39.29,0,0,1,1341.84,844l79.62-296.26A34.62,34.62,0,0,1,1461.82,522.69Z"/><polygon class="cls-54" points="1405.88 605.71 1940.92 726.51 1922.61 796.87 1386.51 677.82 1405.88 605.71"/><path class="cls-55" d="M1823.05,908.65l-82-18.46a11.68,11.68,0,0,1-9-14.5l15-54.29a13.1,13.1,0,0,1,15.5-9l82,18.45a11.71,11.71,0,0,1,9,14.51l-15,54.28A13.12,13.12,0,0,1,1823.05,908.65Z"/><g class="cls-56"><path class="cls-57" d="M1848.37,864l-44.63-10a8.3,8.3,0,0,1-6.4-10.29l6.07-22,3.52.8-6.06,22a4.93,4.93,0,0,0,3.8,6.12l44.63,10Z"/><path class="cls-58" d="M1785.52,900.2l-3.53-.79,6.07-22a9.31,9.31,0,0,1,11-6.38l44.63,10-.93,3.38-44.63-10a5.55,5.55,0,0,0-6.54,3.79Z"/><path class="cls-59" d="M1762.54,880.7l-30.06-6.77.93-3.38,30.06,6.77a6,6,0,0,0,7-4.08l8.83-32a5.31,5.31,0,0,0-4.1-6.58l-30.06-6.76.93-3.38,30.06,6.76a8.68,8.68,0,0,1,6.69,10.76L1774,874A9.74,9.74,0,0,1,1762.54,880.7Z"/></g><g class="cls-60"><path class="cls-61" d="M1586.31,788.4l-149-35.25a6.39,6.39,0,0,1-4.73-7.94h0a7,7,0,0,1,8.25-4.88l149,35.26a6.4,6.4,0,0,1,4.74,7.94h0A7,7,0,0,1,1586.31,788.4Z"/><path class="cls-61" d="M1624.14,615.88l-149-35.25a6.4,6.4,0,0,1-4.74-7.94h0a7,7,0,0,1,8.26-4.88l149,35.26a6.39,6.39,0,0,1,4.73,7.94h0A7,7,0,0,1,1624.14,615.88Z"/><path class="cls-61" d="M1578.93,815.32l-149-35.26a6.39,6.39,0,0,1-4.74-7.94h0a7,7,0,0,1,8.25-4.87l149,35.25a6.4,6.4,0,0,1,4.74,8h0A7,7,0,0,1,1578.93,815.32Z"/><path class="cls-61" d="M1571.54,842.23,1422.5,807a6.41,6.41,0,0,1-4.74-8h0a7,7,0,0,1,8.26-4.87l149,35.26a6.39,6.39,0,0,1,4.73,7.94h0A7,7,0,0,1,1571.54,842.23Z"/><path class="cls-61" d="M1521.63,859.09l-106.52-25.2a6.39,6.39,0,0,1-4.73-7.94h0a7,7,0,0,1,8.25-4.87l106.52,25.19a6.41,6.41,0,0,1,4.74,8h0A7,7,0,0,1,1521.63,859.09Z"/><path class="cls-61" d="M1913.72,680.7,1807.2,655.5a6.4,6.4,0,0,1-4.74-7.94h0a7,7,0,0,1,8.26-4.88l106.52,25.2a6.39,6.39,0,0,1,4.73,7.94h0A7,7,0,0,1,1913.72,680.7Z"/></g><g class="cls-62"><ellipse class="cls-50" cx="986.77" cy="1707.98" rx="440.27" ry="185.42" transform="matrix(1, 0, 0, 1, -2.47, 1.43)"/><ellipse class="cls-2" cx="986.77" cy="1707.98" rx="428.93" ry="180.65" transform="translate(-2.47 1.43) rotate(-0.08)"/><ellipse class="cls-3" cx="986.77" cy="1707.98" rx="417.59" ry="175.87" transform="translate(-2.47 1.43) rotate(-0.08)"/><ellipse class="cls-4" cx="986.77" cy="1707.98" rx="406.25" ry="171.1" transform="translate(-2.47 1.43) rotate(-0.08)"/><ellipse class="cls-5" cx="986.77" cy="1707.98" rx="394.91" ry="166.32" transform="translate(-2.47 1.43) rotate(-0.08)"/><ellipse class="cls-6" cx="986.77" cy="1707.98" rx="383.57" ry="161.54" transform="translate(-2.47 1.43) rotate(-0.08)"/><ellipse class="cls-7" cx="986.77" cy="1707.98" rx="372.22" ry="156.77" transform="translate(-2.47 1.43) rotate(-0.08)"/><ellipse class="cls-8" cx="986.77" cy="1707.98" rx="360.88" ry="151.99" transform="translate(-2.47 1.43) rotate(-0.08)"/><ellipse class="cls-9" cx="986.77" cy="1707.98" rx="349.54" ry="147.21" transform="translate(-2.48 1.43) rotate(-0.08)"/><ellipse class="cls-10" cx="986.77" cy="1707.98" rx="338.2" ry="142.44" transform="translate(-2.48 1.43) rotate(-0.08)"/><ellipse class="cls-11" cx="986.77" cy="1707.98" rx="326.86" ry="137.66" transform="translate(-2.48 1.43) rotate(-0.08)"/><ellipse class="cls-12" cx="986.77" cy="1707.98" rx="315.52" ry="132.88" transform="translate(-2.48 1.43) rotate(-0.08)"/><ellipse class="cls-13" cx="986.77" cy="1707.98" rx="304.18" ry="128.11" transform="translate(-2.48 1.43) rotate(-0.08)"/><ellipse class="cls-14" cx="986.77" cy="1707.98" rx="292.84" ry="123.33" transform="matrix(1, 0, 0, 1, -2.48, 1.43)"/><ellipse class="cls-15" cx="986.76" cy="1707.98" rx="281.5" ry="118.56" transform="translate(-2.48 1.43) rotate(-0.08)"/><ellipse class="cls-16" cx="986.76" cy="1707.98" rx="270.16" ry="113.78" transform="translate(-2.48 1.43) rotate(-0.08)"/><ellipse class="cls-17" cx="986.76" cy="1707.98" rx="258.82" ry="109" transform="translate(-2.48 1.43) rotate(-0.08)"/><ellipse class="cls-18" cx="986.76" cy="1707.98" rx="247.47" ry="104.23" transform="matrix(1, 0, 0, 1, -2.48, 1.43)"/><ellipse class="cls-19" cx="986.76" cy="1707.98" rx="236.13" ry="99.45" transform="translate(-2.48 1.43) rotate(-0.08)"/><ellipse class="cls-20" cx="986.76" cy="1707.98" rx="224.79" ry="94.67" transform="translate(-2.48 1.44) rotate(-0.08)"/><ellipse class="cls-21" cx="986.76" cy="1707.98" rx="213.45" ry="89.9" transform="translate(-2.48 1.44) rotate(-0.08)"/><ellipse class="cls-22" cx="986.76" cy="1707.98" rx="202.11" ry="85.12" transform="translate(-2.48 1.44) rotate(-0.08)"/><ellipse class="cls-23" cx="986.76" cy="1707.98" rx="190.77" ry="80.34" transform="translate(-2.48 1.44) rotate(-0.08)"/><ellipse class="cls-24" cx="986.76" cy="1707.98" rx="179.43" ry="75.57" transform="translate(-2.48 1.44) rotate(-0.08)"/><ellipse class="cls-25" cx="986.76" cy="1707.98" rx="168.09" ry="70.79" transform="translate(-2.48 1.44) rotate(-0.08)"/><ellipse class="cls-26" cx="986.76" cy="1707.98" rx="156.75" ry="66.02" transform="translate(-2.49 1.44) rotate(-0.08)"/><ellipse class="cls-27" cx="986.76" cy="1707.98" rx="145.41" ry="61.24" transform="translate(-2.49 1.44) rotate(-0.08)"/></g><g class="cls-1"><ellipse class="cls-50" cx="1139.32" cy="1103.08" rx="440.27" ry="139.34" transform="translate(-1.6 1.65) rotate(-0.08)"/><ellipse class="cls-2" cx="1139.32" cy="1103.08" rx="428.93" ry="135.75" transform="translate(-1.6 1.65) rotate(-0.08)"/><ellipse class="cls-3" cx="1139.32" cy="1103.08" rx="417.59" ry="132.16" transform="translate(-1.6 1.65) rotate(-0.08)"/><ellipse class="cls-4" cx="1139.32" cy="1103.08" rx="406.25" ry="128.57" transform="matrix(1, 0, 0, 1, -1.6, 1.65)"/><ellipse class="cls-5" cx="1139.32" cy="1103.08" rx="394.91" ry="124.98" transform="translate(-1.6 1.65) rotate(-0.08)"/><ellipse class="cls-6" cx="1139.32" cy="1103.08" rx="383.56" ry="121.39" transform="translate(-1.6 1.65) rotate(-0.08)"/><ellipse class="cls-7" cx="1139.32" cy="1103.08" rx="372.22" ry="117.8" transform="translate(-1.6 1.65) rotate(-0.08)"/><ellipse class="cls-8" cx="1139.32" cy="1103.08" rx="360.88" ry="114.21" transform="matrix(1, 0, 0, 1, -1.6, 1.65)"/><ellipse class="cls-9" cx="1139.32" cy="1103.08" rx="349.54" ry="110.62" transform="translate(-1.6 1.65) rotate(-0.08)"/><ellipse class="cls-10" cx="1139.32" cy="1103.08" rx="338.2" ry="107.03" transform="translate(-1.6 1.65) rotate(-0.08)"/><ellipse class="cls-11" cx="1139.32" cy="1103.08" rx="326.86" ry="103.45" transform="translate(-1.6 1.65) rotate(-0.08)"/><ellipse class="cls-12" cx="1139.32" cy="1103.08" rx="315.52" ry="99.86" transform="translate(-1.6 1.65) rotate(-0.08)"/><ellipse class="cls-13" cx="1139.32" cy="1103.08" rx="304.18" ry="96.27" transform="translate(-1.6 1.65) rotate(-0.08)"/><ellipse class="cls-14" cx="1139.32" cy="1103.08" rx="292.84" ry="92.68" transform="translate(-1.6 1.65) rotate(-0.08)"/><ellipse class="cls-15" cx="1139.32" cy="1103.08" rx="281.5" ry="89.09" transform="translate(-1.6 1.65) rotate(-0.08)"/><ellipse class="cls-16" cx="1139.32" cy="1103.08" rx="270.16" ry="85.5" transform="translate(-1.6 1.65) rotate(-0.08)"/><ellipse class="cls-17" cx="1139.32" cy="1103.08" rx="258.81" ry="81.91" transform="translate(-1.6 1.65) rotate(-0.08)"/><ellipse class="cls-18" cx="1139.32" cy="1103.08" rx="247.47" ry="78.32" transform="translate(-1.6 1.65) rotate(-0.08)"/><ellipse class="cls-19" cx="1139.32" cy="1103.08" rx="236.13" ry="74.73" transform="translate(-1.6 1.66) rotate(-0.08)"/><ellipse class="cls-20" cx="1139.32" cy="1103.08" rx="224.79" ry="71.14" transform="translate(-1.6 1.66) rotate(-0.08)"/><ellipse class="cls-21" cx="1139.32" cy="1103.08" rx="213.45" ry="67.55" transform="translate(-1.6 1.66) rotate(-0.08)"/><ellipse class="cls-22" cx="1139.32" cy="1103.08" rx="202.11" ry="63.96" transform="translate(-1.6 1.66) rotate(-0.08)"/><ellipse class="cls-23" cx="1139.32" cy="1103.08" rx="190.77" ry="60.38" transform="translate(-1.6 1.66) rotate(-0.08)"/><ellipse class="cls-24" cx="1139.32" cy="1103.08" rx="179.43" ry="56.79" transform="translate(-1.6 1.66) rotate(-0.08)"/><ellipse class="cls-25" cx="1139.32" cy="1103.08" rx="168.09" ry="53.2" transform="translate(-1.6 1.66) rotate(-0.08)"/><ellipse class="cls-26" cx="1139.32" cy="1103.08" rx="156.75" ry="49.61" transform="translate(-1.6 1.66) rotate(-0.08)"/><ellipse class="cls-27" cx="1139.32" cy="1103.08" rx="145.41" ry="46.02" transform="translate(-1.6 1.66) rotate(-0.08)"/></g><g class="cls-62"><ellipse class="cls-50" cx="727.53" cy="1977.2" rx="440.27" ry="204.84" transform="translate(-2.88 1.06) rotate(-0.08)"/><ellipse class="cls-2" cx="727.53" cy="1977.2" rx="428.93" ry="199.57" transform="translate(-2.88 1.06) rotate(-0.08)"/><ellipse class="cls-3" cx="727.53" cy="1977.2" rx="417.59" ry="194.29" transform="translate(-2.88 1.06) rotate(-0.08)"/><ellipse class="cls-4" cx="727.53" cy="1977.2" rx="406.25" ry="189.01" transform="translate(-2.88 1.06) rotate(-0.08)"/><ellipse class="cls-5" cx="727.53" cy="1977.2" rx="394.91" ry="183.74" transform="translate(-2.88 1.06) rotate(-0.08)"/><ellipse class="cls-6" cx="727.53" cy="1977.2" rx="383.56" ry="178.46" transform="translate(-2.88 1.06) rotate(-0.08)"/><ellipse class="cls-7" cx="727.53" cy="1977.2" rx="372.22" ry="173.18" transform="translate(-2.88 1.06) rotate(-0.08)"/><ellipse class="cls-8" cx="727.52" cy="1977.2" rx="360.88" ry="167.91" transform="translate(-2.88 1.06) rotate(-0.08)"/><ellipse class="cls-9" cx="727.52" cy="1977.2" rx="349.54" ry="162.63" transform="translate(-2.88 1.06) rotate(-0.08)"/><ellipse class="cls-10" cx="727.52" cy="1977.2" rx="338.2" ry="157.35" transform="translate(-2.88 1.06) rotate(-0.08)"/><ellipse class="cls-11" cx="727.52" cy="1977.2" rx="326.86" ry="152.08" transform="translate(-2.88 1.06) rotate(-0.08)"/><ellipse class="cls-12" cx="727.52" cy="1977.2" rx="315.52" ry="146.8" transform="translate(-2.88 1.06) rotate(-0.08)"/><ellipse class="cls-13" cx="727.52" cy="1977.2" rx="304.18" ry="141.52" transform="translate(-2.88 1.06) rotate(-0.08)"/><ellipse class="cls-14" cx="727.52" cy="1977.2" rx="292.84" ry="136.25" transform="translate(-2.88 1.06) rotate(-0.08)"/><ellipse class="cls-15" cx="727.52" cy="1977.2" rx="281.5" ry="130.97" transform="translate(-2.89 1.06) rotate(-0.08)"/><ellipse class="cls-16" cx="727.52" cy="1977.2" rx="270.16" ry="125.7" transform="translate(-2.89 1.06) rotate(-0.08)"/><ellipse class="cls-17" cx="727.52" cy="1977.2" rx="258.81" ry="120.42" transform="translate(-2.89 1.06) rotate(-0.08)"/><ellipse class="cls-18" cx="727.52" cy="1977.2" rx="247.47" ry="115.14" transform="translate(-2.89 1.06) rotate(-0.08)"/><ellipse class="cls-19" cx="727.52" cy="1977.2" rx="236.13" ry="109.87" transform="translate(-2.89 1.07) rotate(-0.08)"/><ellipse class="cls-20" cx="727.52" cy="1977.2" rx="224.79" ry="104.59" transform="translate(-2.89 1.07) rotate(-0.08)"/><ellipse class="cls-21" cx="727.52" cy="1977.2" rx="213.45" ry="99.31" transform="translate(-2.89 1.07) rotate(-0.08)"/><ellipse class="cls-22" cx="727.52" cy="1977.2" rx="202.11" ry="94.04" transform="translate(-2.89 1.07) rotate(-0.08)"/><ellipse class="cls-23" cx="727.52" cy="1977.2" rx="190.77" ry="88.76" transform="translate(-2.89 1.07) rotate(-0.08)"/><ellipse class="cls-24" cx="727.52" cy="1977.2" rx="179.43" ry="83.48" transform="translate(-2.89 1.07) rotate(-0.08)"/><ellipse class="cls-25" cx="727.52" cy="1977.2" rx="168.09" ry="78.21" transform="translate(-2.9 1.07) rotate(-0.08)"/><ellipse class="cls-26" cx="727.52" cy="1977.2" rx="156.75" ry="72.93" transform="translate(-2.9 1.07) rotate(-0.08)"/><ellipse class="cls-27" cx="727.52" cy="1977.2" rx="145.41" ry="67.65" transform="translate(-2.9 1.07) rotate(-0.08)"/></g><path class="cls-63" d="M1186.45,969.8c-33.89,62.69-31.23,180.82,19.42,295.14,73.23,165.39,25.06,430.75-192.5,463.37S827.1,2106.66,827.1,2106.66L472.94,2000.49S444,1642,655.35,1610.24s258.17-289.45,187-450.12-44.72-329.21,45.45-331a118.22,118.22,0,0,1,26.81,2.48l.66.18,8.42,2.18.6.18,354.51,92.35a120.85,120.85,0,0,0-26.21-2.3c-28.32.61-50.53,17.19-65.66,44.66A6.66,6.66,0,0,0,1186.45,969.8Z"/><path class="cls-64" d="M1379.49,1020,1188,969.13l-1-.24c15.13-27.47,37.34-44,65.66-44.66a120.85,120.85,0,0,1,26.21,2.3l.42.06C1352,941.36,1379.49,1020,1379.49,1020Z"/><path class="cls-65" d="M1188,969.13l-1.51.67a6.66,6.66,0,0,1,.48-.91Z"/><polygon class="cls-66" points="837.02 892.1 1152.39 972.12 1136.89 1017.95 824.62 935.59 837.02 892.1"/><path class="cls-67" d="M999.85,1080.63l-148.29-38.54a9.37,9.37,0,0,1-6.65-8.58h0a5,5,0,0,1,6.66-5.11l148.28,38.53a9.38,9.38,0,0,1,6.66,8.58h0A5.06,5.06,0,0,1,999.85,1080.63Z"/><path class="cls-68" d="M1099.16,1107.12l-60.08-16.64a9.38,9.38,0,0,1-6.66-8.58h0a5.05,5.05,0,0,1,6.66-5.11l60.08,16.64a9.37,9.37,0,0,1,6.65,8.57h0A5.05,5.05,0,0,1,1099.16,1107.12Z"/><path class="cls-69" d="M1007.25,1129.19,859,1090.66a9.4,9.4,0,0,1-6.66-8.58h0A5.06,5.06,0,0,1,859,1077l148.28,38.54a9.36,9.36,0,0,1,6.66,8.58h0A5.05,5.05,0,0,1,1007.25,1129.19Z"/><path class="cls-70" d="M1106.56,1155.69l-60.08-16.64a9.4,9.4,0,0,1-6.66-8.58h0a5.06,5.06,0,0,1,6.66-5.12l60.08,16.64a9.38,9.38,0,0,1,6.66,8.58h0A5.06,5.06,0,0,1,1106.56,1155.69Z"/><path class="cls-71" d="M1019.06,1177.58l-148.29-38.53a9.4,9.4,0,0,1-6.66-8.58h0a5.06,5.06,0,0,1,6.66-5.12l148.29,38.54a9.37,9.37,0,0,1,6.65,8.58h0A5,5,0,0,1,1019.06,1177.58Z"/><path class="cls-72" d="M1118.36,1204.08l-60.07-16.65a9.36,9.36,0,0,1-6.66-8.57h0a5.06,5.06,0,0,1,6.66-5.12l60.07,16.64A9.36,9.36,0,0,1,1125,1199h0A5.06,5.06,0,0,1,1118.36,1204.08Z"/><path class="cls-73" d="M1031,1222.11l-148.28-38.53a9.4,9.4,0,0,1-6.66-8.58h0a5.06,5.06,0,0,1,6.66-5.12L1031,1208.42a9.36,9.36,0,0,1,6.66,8.58h0A5.05,5.05,0,0,1,1031,1222.11Z"/><path class="cls-74" d="M1130.3,1248.61,1070.22,1232a9.39,9.39,0,0,1-6.65-8.58h0a5.05,5.05,0,0,1,6.65-5.12l60.08,16.64a9.38,9.38,0,0,1,6.66,8.58h0A5.06,5.06,0,0,1,1130.3,1248.61Z"/><path class="cls-75" d="M1058.25,1329.56,910,1291a9.38,9.38,0,0,1-6.66-8.58h0a5.06,5.06,0,0,1,6.66-5.12l148.28,38.54a9.38,9.38,0,0,1,6.66,8.58h0A5.05,5.05,0,0,1,1058.25,1329.56Z"/><path class="cls-76" d="M1157.56,1356.06l-60.08-16.64a9.4,9.4,0,0,1-6.66-8.58h0a5.06,5.06,0,0,1,6.66-5.12l60.08,16.64a9.38,9.38,0,0,1,6.66,8.58h0A5.06,5.06,0,0,1,1157.56,1356.06Z"/><path class="cls-77" d="M1070.05,1378l-148.28-38.53a9.4,9.4,0,0,1-6.66-8.58h0a5.06,5.06,0,0,1,6.66-5.12l148.28,38.54a9.36,9.36,0,0,1,6.66,8.58h0A5.05,5.05,0,0,1,1070.05,1378Z"/><path class="cls-78" d="M1169.36,1404.45l-60.07-16.64a9.38,9.38,0,0,1-6.66-8.58h0a5.06,5.06,0,0,1,6.66-5.12l60.07,16.64a9.38,9.38,0,0,1,6.66,8.58h0A5.06,5.06,0,0,1,1169.36,1404.45Z"/><path class="cls-79" d="M1066.85,1417.53,918.57,1379a9.36,9.36,0,0,1-6.66-8.57h0a5.06,5.06,0,0,1,6.66-5.12l148.28,38.54a9.38,9.38,0,0,1,6.66,8.57h0A5.06,5.06,0,0,1,1066.85,1417.53Z"/><path class="cls-80" d="M1166.16,1444l-60.08-16.64a9.38,9.38,0,0,1-6.66-8.58h0a5.06,5.06,0,0,1,6.66-5.11l60.08,16.64a9.37,9.37,0,0,1,6.65,8.58h0A5,5,0,0,1,1166.16,1444Z"/><path class="cls-81" d="M1017.19,1570.14,868.91,1531.6a9.38,9.38,0,0,1-6.66-8.58h0a5.06,5.06,0,0,1,6.66-5.11l148.28,38.53a9.38,9.38,0,0,1,6.66,8.58h0A5.06,5.06,0,0,1,1017.19,1570.14Z"/><path class="cls-82" d="M1116.5,1596.63,1056.42,1580a9.37,9.37,0,0,1-6.65-8.58h0a5,5,0,0,1,6.65-5.11l60.08,16.64a9.38,9.38,0,0,1,6.66,8.58h0A5.06,5.06,0,0,1,1116.5,1596.63Z"/><path class="cls-83" d="M989.54,1602.7l-148.29-38.54a9.38,9.38,0,0,1-6.66-8.58h0a5.05,5.05,0,0,1,6.66-5.11L989.54,1589a9.37,9.37,0,0,1,6.65,8.58h0A5.05,5.05,0,0,1,989.54,1602.7Z"/><path class="cls-84" d="M1088.84,1629.19l-60.07-16.64a9.36,9.36,0,0,1-6.66-8.58h0a5.06,5.06,0,0,1,6.66-5.12l60.07,16.65a9.36,9.36,0,0,1,6.66,8.57h0A5.06,5.06,0,0,1,1088.84,1629.19Z"/><path class="cls-85" d="M943.8,1633.91l-148.28-38.54a9.36,9.36,0,0,1-6.66-8.57h0a5.06,5.06,0,0,1,6.66-5.12l148.28,38.54a9.38,9.38,0,0,1,6.66,8.57h0A5.06,5.06,0,0,1,943.8,1633.91Z"/><path class="cls-86" d="M1043.11,1660.4,983,1643.76a9.38,9.38,0,0,1-6.66-8.57h0a5.06,5.06,0,0,1,6.66-5.11l60.08,16.64a9.38,9.38,0,0,1,6.66,8.58h0A5.05,5.05,0,0,1,1043.11,1660.4Z"/><path class="cls-87" d="M728.63,1762.93l-148.29-38.54a9.38,9.38,0,0,1-6.66-8.58h0a5.06,5.06,0,0,1,6.66-5.11l148.29,38.53a9.4,9.4,0,0,1,6.66,8.58h0A5.06,5.06,0,0,1,728.63,1762.93Z"/><path class="cls-88" d="M827.93,1789.42l-60.07-16.64a9.36,9.36,0,0,1-6.66-8.58h0a5.05,5.05,0,0,1,6.66-5.11l60.07,16.64a9.36,9.36,0,0,1,6.66,8.58h0A5,5,0,0,1,827.93,1789.42Z"/><path class="cls-89" d="M701.66,1821.47l-148.28-38.53a9.38,9.38,0,0,1-6.66-8.58h0a5.06,5.06,0,0,1,6.66-5.12l148.28,38.54a9.38,9.38,0,0,1,6.66,8.58h0A5.06,5.06,0,0,1,701.66,1821.47Z"/><path class="cls-90" d="M801,1848l-60.08-16.65a9.38,9.38,0,0,1-6.66-8.57h0a5.06,5.06,0,0,1,6.66-5.12L801,1834.27a9.38,9.38,0,0,1,6.66,8.58h0A5.06,5.06,0,0,1,801,1848Z"/><path class="cls-91" d="M684.68,1884.06l-148.29-38.54a9.37,9.37,0,0,1-6.65-8.57h0a5.05,5.05,0,0,1,6.65-5.12l148.29,38.54a9.38,9.38,0,0,1,6.66,8.57h0A5.06,5.06,0,0,1,684.68,1884.06Z"/><path class="cls-92" d="M784,1910.56l-60.07-16.65a9.38,9.38,0,0,1-6.66-8.57h0a5.06,5.06,0,0,1,6.66-5.12L784,1896.86a9.36,9.36,0,0,1,6.66,8.58h0A5.06,5.06,0,0,1,784,1910.56Z"/><polygon class="cls-93" points="896.15 1444.24 1187.96 1507.3 1172.82 1543.59 876.05 1473.08 896.15 1444.24"/><polygon class="cls-94" points="524.13 1886.28 788.86 1961.16 786.01 2006.3 519.9 1928.58 524.13 1886.28"/><path class="cls-95" d="M1036.66,421.58l202.78,17.78,15.52,16s-5.78,57.4,18.79,87.18c18.75,22.72,50.47,32.72,67.72,41.7,5.37,2.8,15.52,16,15.52,16s-9.51,145.7-122.27,230.93-237.09,78-237.09,78S884.87,856.25,853.06,714.28s18.8-208.47,18.8-208.47S990.4,510.83,1036.66,421.58Z"/><path class="cls-96" d="M1021.14,405.59l218.3,33.77s-5.79,57.4,18.79,87.19,83.24,57.68,83.24,57.68S1332,729.93,1219.2,815.16s-237.09,78-237.09,78S869.35,840.26,837.54,698.29s18.8-208.46,18.8-208.46S974.88,494.84,1021.14,405.59Z"/><path class="cls-97" d="M1214,460.58c.13,4.19.38,8.79.83,13.63l-172.41-26.64c-45.7,68.33-129.23,79.89-163.12,81.71-10.61,21.79-31,80.26-9,178.42a281.93,281.93,0,0,0,25.93,70.64,278.2,278.2,0,0,1-34.43-85.48c-22-98.16-1.61-156.66,9-178.41,33.85-1.83,117.43-13.39,163.13-81.71Z"/><path class="cls-98" d="M1313,607.63c-8.16,42.76-33.52,130.85-108.76,187.7-89.79,67.87-187,73.13-214.68,73.13h-1.11c-13.89-7.58-58.1-34.8-92-89.83a2.06,2.06,0,0,0-.17-.29,281.93,281.93,0,0,1-25.93-70.64c-22-98.16-1.62-156.63,9-178.42,33.89-1.82,117.42-13.38,163.12-81.71l172.41,26.64c1.83,19.93,7.05,44.13,20.47,63.15a88.33,88.33,0,0,0,12.27,19.85C1264.18,577.38,1292.19,595.7,1313,607.63Z"/><polygon class="cls-61" points="962.87 591.43 1001.75 710.5 1179.69 640.67 1162.73 601.97 1026.15 654.52 996.82 571.57 962.87 591.43"/><polygon class="cls-99" points="1479.12 1338.12 1776.75 1423.96 1776.75 1645.33 1479.12 1549.62 1479.12 1338.12"/><polygon class="cls-100" points="1776.75 1423.96 1979.97 1349.24 1979.97 1571.67 1776.75 1645.33 1776.75 1423.96"/><polygon class="cls-101" points="1776.75 1423.96 1979.97 1349.24 1665.78 1269.41 1479.12 1338.04 1776.75 1423.96"/><polygon class="cls-102" points="1563.96 1306.84 1863.78 1391.96 1908.36 1375.58 1601.98 1292.87 1563.96 1306.84"/><polygon class="cls-102" points="1863.78 1391.96 1908.36 1375.58 1908.36 1415.77 1863.78 1432.16 1863.78 1391.96"/><polygon class="cls-102" points="1682.69 1432.16 1749.11 1450.88 1749.11 1491.73 1682.69 1471.7 1682.69 1432.16"/><polygon class="cls-103" points="1479.12 1114.19 1776.75 1200.03 1776.75 1421.4 1479.12 1325.68 1479.12 1114.19"/><polygon class="cls-104" points="1776.75 1200.03 1979.97 1125.31 1979.97 1347.74 1776.75 1421.4 1776.75 1200.03"/><polygon class="cls-105" points="1776.75 1200.03 1979.97 1125.31 1665.78 1045.48 1479.12 1114.11 1776.75 1200.03"/><polygon class="cls-102" points="1563.96 1082.91 1863.78 1168.03 1908.36 1151.64 1601.98 1068.93 1563.96 1082.91"/><polygon class="cls-102" points="1863.78 1168.03 1908.36 1151.64 1908.36 1191.84 1863.78 1208.23 1863.78 1168.03"/><polygon class="cls-102" points="1682.69 1208.23 1749.11 1226.95 1749.11 1267.79 1682.69 1247.77 1682.69 1208.23"/><polygon class="cls-106" points="1269.32 1417.95 1566.95 1503.8 1566.95 1725.16 1269.32 1629.45 1269.32 1417.95"/><polygon class="cls-107" points="1566.95 1503.8 1770.17 1429.08 1770.17 1651.51 1566.95 1725.16 1566.95 1503.8"/><polygon class="cls-108" points="1566.95 1503.8 1770.17 1429.08 1455.97 1349.24 1269.32 1417.87 1566.95 1503.8"/><polygon class="cls-102" points="1354.16 1386.68 1653.98 1471.8 1698.56 1455.41 1392.18 1372.7 1354.16 1386.68"/><polygon class="cls-102" points="1653.98 1471.8 1698.56 1455.41 1698.56 1495.6 1653.98 1511.99 1653.98 1471.8"/><polygon class="cls-102" points="1472.88 1511.99 1539.31 1530.71 1539.31 1571.56 1472.88 1551.54 1472.88 1511.99"/><ellipse class="cls-109" cx="453.88" cy="1054.51" rx="307.84" ry="278.58" transform="translate(-691.44 975.42) rotate(-62.76)"/><path class="cls-110" d="M425.58,1346.51c-157.37,12.41-284.07-112.34-283-278.65a328.74,328.74,0,0,1,6.52-62.75c28-138.53,143.21-250,280.4-260.8,123-9.67,227.2,64.42,266.36,176.64A301.87,301.87,0,0,1,712.49,1023C711.4,1189.33,583,1334.16,425.58,1346.51Z"/><path class="cls-111" d="M425.83,1308.52c-137.52,10.84-248.22-98.17-247.27-243.49a287.1,287.1,0,0,1,5.7-54.83c24.48-121.05,125.14-218.42,245-227.89C536.74,773.86,627.79,838.6,662,936.66a263.78,263.78,0,0,1,14.52,89.18C675.58,1171.17,563.34,1297.72,425.83,1308.52Z"/><path class="cls-112" d="M426.1,1266.2c-115.4,9.1-208.3-82.37-207.5-204.33a241.13,241.13,0,0,1,4.78-46C243.93,914.28,328.4,832.57,429,824.62c90.19-7.09,166.6,47.24,195.32,129.53A221.61,221.61,0,0,1,636.49,1029C635.69,1150.94,541.5,1257.14,426.1,1266.2Z"/><path class="cls-113" d="M426.4,1220.68c-91.61,7.22-165.35-65.39-164.72-162.2a191.48,191.48,0,0,1,3.8-36.53c16.3-80.63,83.36-145.5,163.21-151.81,71.6-5.63,132.25,37.5,155.05,102.83a175.71,175.71,0,0,1,9.67,59.41C592.78,1129.19,518,1213.49,426.4,1220.68Z"/><path class="cls-114" d="M426.67,1179.43c-70.05,5.53-126.44-50-125.95-124a146,146,0,0,1,2.9-27.93c12.47-61.66,63.74-111.27,124.8-116.09C483.17,907.09,529.55,940.07,547,990a134.36,134.36,0,0,1,7.39,45.42C553.89,1109.47,496.71,1173.94,426.67,1179.43Z"/><path class="cls-115" d="M426.93,1139.34c-49.1,3.87-88.62-35-88.28-86.93a102.37,102.37,0,0,1,2-19.57c8.74-43.22,44.68-78,87.48-81.36,38.37-3,70.88,20.1,83.09,55.11a94.06,94.06,0,0,1,5.19,31.84C516.1,1090.31,476,1135.49,426.93,1139.34Z"/><path class="cls-116" d="M427.15,1105.46c-31.38,2.47-56.65-22.41-56.43-55.57a64.92,64.92,0,0,1,1.3-12.52c5.58-27.62,28.56-49.84,55.92-52,24.52-1.93,45.3,12.85,53.11,35.23a60.25,60.25,0,0,1,3.32,20.35C484.15,1074.12,458.53,1103,427.15,1105.46Z"/><path class="cls-117" d="M438.76,1042.86,164.59,975.75,134.74,921,22.42,882.78l24.17,77.33L0,1013.8,115.16,1043l17.63-6.41,27.54-32.35,259.15,63S456.74,1059.91,438.76,1042.86Z"/><path class="cls-118" d="M444.08,1037.17,182.22,969.34,152.37,914.6,40.05,876.37,64.22,953.7l-46.59,53.69,115.16,29.15L178,997.78l259.14,63S462.06,1054.21,444.08,1037.17Z"/><polygon class="cls-119" points="22.42 882.78 40.05 876.37 64.22 953.7 46.59 960.11 22.42 882.78"/><path class="cls-120" d="M459.71,279.8,785,346.05a38,38,0,0,1,29.2,46.83l-83.5,320.89a28.9,28.9,0,0,1-34.34,20.92L367.43,660.44a40,40,0,0,1-29.86-49.27L418.63,305.3A35.23,35.23,0,0,1,459.71,279.8Z"/><path class="cls-121" d="M455.47,272.73,780.7,339a38,38,0,0,1,29.21,46.82l-83.5,320.9a28.91,28.91,0,0,1-34.34,20.92L363.18,653.36a40,40,0,0,1-29.85-49.26l81.06-305.88A35.22,35.22,0,0,1,455.47,272.73Z"/><path class="cls-61" d="M557.78,449.1c-7.22,40.36-34.43,56.48-60.65,51.79-26.81-4.8-44.93-29.33-38.63-66.21,6.48-36.24,31.67-56.37,61.13-51.09C550,389,564,414.62,557.78,449.1ZM483.33,581.43,629.83,403.3,650.46,407,504,585.12Zm3.08-143c-4.26,22,.8,39.67,15.24,42.25S525.9,469.24,530.06,446c3.8-21.21,1-39.36-14.65-42.15C500.68,401.17,490.25,417,486.41,438.46Zm189.14,113.8c-7.16,40.08-34.13,56.54-60.65,51.79S570,574.73,576.61,537.61c6.43-35.95,31.68-56.37,60.85-51.15C667.81,491.89,681.72,517.79,675.55,552.26Zm-71.38-10.64c-4.19,21.76.81,39.68,15.25,42.26,14.73,2.64,24.25-11.47,28.42-34.75,3.84-21.51.95-39.36-14.66-42.15C618.45,504.34,608,520.11,604.17,541.62Z"/></g></g></svg>