<svg xmlns="http://www.w3.org/2000/svg" xmlns:xlink="http://www.w3.org/1999/xlink" viewBox="0 0 1914.37 2005.93"><defs><style>.cls-1{fill:url(#linear-gradient);}.cls-2{fill:url(#linear-gradient-2);}.cls-3{fill:url(#linear-gradient-3);}.cls-4{fill:url(#linear-gradient-4);}.cls-5{fill:url(#linear-gradient-5);}.cls-6{fill:url(#linear-gradient-6);}.cls-7{fill:url(#linear-gradient-7);}.cls-8{fill:url(#linear-gradient-8);}.cls-9{fill:url(#linear-gradient-9);}.cls-10{fill:url(#linear-gradient-10);}.cls-11{fill:url(#linear-gradient-11);}.cls-12{fill:url(#linear-gradient-12);}.cls-13{fill:url(#linear-gradient-13);}.cls-14{fill:url(#linear-gradient-14);}.cls-15{fill:url(#linear-gradient-15);}.cls-16{fill:url(#linear-gradient-16);}.cls-17{fill:url(#linear-gradient-17);}.cls-18{fill:url(#linear-gradient-18);}.cls-19{fill:url(#linear-gradient-19);}.cls-20{fill:url(#linear-gradient-20);}.cls-21{fill:url(#linear-gradient-21);}.cls-22{fill:url(#linear-gradient-22);}.cls-23{fill:url(#linear-gradient-23);}.cls-24{fill:url(#linear-gradient-24);}.cls-25{fill:#7f7b79;}.cls-26{fill:#aaa8a7;}.cls-27{fill:#c9c9c9;}.cls-28{fill:#a67c52;}.cls-29{fill:none;stroke:#aaa8a7;stroke-miterlimit:10;stroke-width:6px;}.cls-30{fill:url(#linear-gradient-25);}.cls-31{fill:url(#linear-gradient-26);}.cls-32{fill:url(#linear-gradient-27);}.cls-33{fill:url(#linear-gradient-28);}.cls-34{fill:url(#linear-gradient-29);}.cls-35{fill:url(#linear-gradient-30);}.cls-36{fill:url(#linear-gradient-31);}.cls-170,.cls-173,.cls-37,.cls-79{fill:#fff;}.cls-38{fill:url(#linear-gradient-32);}.cls-39{fill:url(#linear-gradient-33);}.cls-40{fill:url(#linear-gradient-34);}.cls-41{fill:url(#linear-gradient-35);}.cls-42{fill:url(#linear-gradient-36);}.cls-43{fill:url(#linear-gradient-37);}.cls-44{fill:url(#linear-gradient-38);}.cls-45{fill:#f35449;}.cls-46{opacity:0.16;}.cls-47{fill:#4c0000;opacity:0;}.cls-48{fill:#4a0101;opacity:0.04;}.cls-49{fill:#480202;opacity:0.08;}.cls-50{fill:#460303;opacity:0.12;}.cls-51{fill:#440404;opacity:0.15;}.cls-52{fill:#420505;opacity:0.19;}.cls-53{fill:#400606;opacity:0.23;}.cls-54{fill:#3e0606;opacity:0.27;}.cls-55{fill:#3c0707;opacity:0.31;}.cls-56{fill:#3a0808;opacity:0.35;}.cls-57{fill:#380909;opacity:0.38;}.cls-58{fill:#360a0a;opacity:0.42;}.cls-59{fill:#340b0b;opacity:0.46;}.cls-60{fill:#330c0c;opacity:0.5;}.cls-61{fill:#310d0d;opacity:0.54;}.cls-62{fill:#2f0e0e;opacity:0.58;}.cls-63{fill:#2d0f0f;opacity:0.62;}.cls-64{fill:#2b1010;opacity:0.65;}.cls-65{fill:#291111;opacity:0.69;}.cls-66{fill:#271212;opacity:0.73;}.cls-67{fill:#251212;opacity:0.77;}.cls-68{fill:#231313;opacity:0.81;}.cls-69{fill:#211414;opacity:0.85;}.cls-70{fill:#1f1515;opacity:0.88;}.cls-71{fill:#1d1616;opacity:0.92;}.cls-72{fill:#1b1717;opacity:0.96;}.cls-73{fill:#191818;}.cls-74{fill:url(#linear-gradient-39);}.cls-75{fill:url(#linear-gradient-40);}.cls-76{fill:url(#linear-gradient-41);}.cls-77{fill:url(#linear-gradient-42);}.cls-78{fill:url(#linear-gradient-43);}.cls-79,.cls-95{opacity:0.3;}.cls-80{fill:url(#linear-gradient-44);}.cls-81{fill:url(#linear-gradient-45);}.cls-82{fill:url(#linear-gradient-46);}.cls-83{fill:url(#linear-gradient-47);}.cls-84{fill:url(#linear-gradient-48);}.cls-85{fill:url(#linear-gradient-49);}.cls-86{fill:url(#linear-gradient-50);}.cls-87{fill:url(#linear-gradient-51);}.cls-88{fill:url(#linear-gradient-52);}.cls-89{fill:url(#linear-gradient-53);}.cls-90{fill:url(#linear-gradient-54);}.cls-91{fill:url(#linear-gradient-55);}.cls-92{fill:url(#linear-gradient-56);}.cls-93{fill:url(#linear-gradient-57);}.cls-94{fill:url(#linear-gradient-58);}.cls-96{opacity:0.35;}.cls-97{fill:url(#linear-gradient-59);}.cls-98{fill:url(#linear-gradient-60);}.cls-99{fill:url(#linear-gradient-61);}.cls-100{fill:#e8e2e2;}.cls-101{opacity:0.71;}.cls-102{fill:url(#linear-gradient-62);}.cls-103{fill:url(#linear-gradient-63);}.cls-104{fill:url(#linear-gradient-64);}.cls-105{opacity:0.7;}.cls-106{fill:url(#linear-gradient-65);}.cls-107{fill:url(#linear-gradient-66);}.cls-108{isolation:isolate;}.cls-109{fill:url(#linear-gradient-67);}.cls-110{fill:url(#linear-gradient-68);}.cls-111{fill:url(#linear-gradient-69);}.cls-112{fill:url(#linear-gradient-70);}.cls-113{opacity:0.51;fill:url(#linear-gradient-71);}.cls-114{fill:url(#linear-gradient-72);}.cls-115{fill:url(#linear-gradient-73);}.cls-116{fill:url(#linear-gradient-74);}.cls-117{fill:url(#linear-gradient-75);}.cls-118{opacity:0.23;}.cls-119{fill:url(#linear-gradient-76);}.cls-120{fill:url(#linear-gradient-77);}.cls-121{fill:url(#linear-gradient-78);}.cls-122{fill:url(#linear-gradient-79);}.cls-123{fill:url(#linear-gradient-80);}.cls-124{fill:url(#linear-gradient-81);}.cls-125{fill:url(#linear-gradient-82);}.cls-126{fill:url(#linear-gradient-83);}.cls-127{fill:url(#linear-gradient-84);}.cls-128{fill:url(#linear-gradient-85);}.cls-129{fill:url(#linear-gradient-86);}.cls-130{fill:url(#linear-gradient-87);}.cls-131{fill:url(#linear-gradient-88);}.cls-132{fill:url(#linear-gradient-89);}.cls-133{fill:url(#linear-gradient-90);}.cls-134{fill:url(#linear-gradient-91);}.cls-135{fill:url(#linear-gradient-92);}.cls-136{fill:url(#linear-gradient-93);}.cls-137{fill:url(#linear-gradient-94);}.cls-138{fill:url(#linear-gradient-95);}.cls-139{fill:url(#linear-gradient-96);}.cls-140{fill:url(#linear-gradient-97);}.cls-141{fill:url(#linear-gradient-98);}.cls-142{fill:url(#linear-gradient-99);}.cls-143{fill:url(#linear-gradient-100);}.cls-144{fill:url(#linear-gradient-101);}.cls-145{fill:url(#linear-gradient-102);}.cls-146{fill:url(#linear-gradient-103);}.cls-147{fill:url(#linear-gradient-104);}.cls-148{fill:url(#linear-gradient-105);}.cls-149{fill:url(#linear-gradient-106);}.cls-150{fill:url(#linear-gradient-107);}.cls-151{fill:url(#linear-gradient-108);}.cls-152{fill:url(#linear-gradient-109);}.cls-153{fill:url(#linear-gradient-110);}.cls-154{fill:url(#linear-gradient-111);}.cls-155{fill:url(#linear-gradient-112);}.cls-156{fill:url(#linear-gradient-113);}.cls-157{fill:url(#linear-gradient-114);}.cls-158{fill:url(#linear-gradient-115);}.cls-159{fill:url(#linear-gradient-116);}.cls-160{fill:url(#linear-gradient-117);}.cls-161{fill:url(#linear-gradient-118);}.cls-162{fill:url(#linear-gradient-119);}.cls-163{fill:url(#linear-gradient-120);}.cls-164{fill:url(#linear-gradient-121);}.cls-165{fill:url(#linear-gradient-122);}.cls-166{fill:url(#linear-gradient-123);}.cls-167{fill:url(#linear-gradient-124);}.cls-168{fill:url(#linear-gradient-125);}.cls-169{fill:url(#linear-gradient-126);}.cls-170{opacity:0.25;}.cls-171{fill:url(#linear-gradient-127);}.cls-172{fill:url(#linear-gradient-128);}.cls-173{opacity:0.26;}</style><linearGradient id="linear-gradient" x1="978.27" y1="1866.2" x2="963.83" y2="1920.63" gradientTransform="matrix(1.01, -0.16, -0.05, 0.93, -251.48, -151.49)" gradientUnits="userSpaceOnUse"><stop offset="0" stop-color="#303030"/><stop offset="1" stop-color="#727272"/></linearGradient><linearGradient id="linear-gradient-2" x1="928.66" y1="1913.47" x2="1035.87" y2="1913.47" xlink:href="#linear-gradient"/><linearGradient id="linear-gradient-3" x1="956.26" y1="1913.47" x2="988.7" y2="1913.47" xlink:href="#linear-gradient"/><linearGradient id="linear-gradient-4" x1="951.35" y1="1924.17" x2="966.48" y2="1924.17" xlink:href="#linear-gradient"/><linearGradient id="linear-gradient-5" x1="952.65" y1="1929.02" x2="970.01" y2="1929.02" xlink:href="#linear-gradient"/><linearGradient id="linear-gradient-6" x1="989.35" y1="1920.11" x2="998.77" y2="1942.56" xlink:href="#linear-gradient"/><linearGradient id="linear-gradient-7" x1="985.06" y1="1926.71" x2="989.89" y2="1950.13" xlink:href="#linear-gradient"/><linearGradient id="linear-gradient-8" x1="965.43" y1="1874.28" x2="973.44" y2="1893.38" xlink:href="#linear-gradient"/><linearGradient id="linear-gradient-9" x1="966.52" y1="1899.03" x2="960.52" y2="1879.13" xlink:href="#linear-gradient"/><linearGradient id="linear-gradient-10" x1="1003.19" y1="1912.17" x2="998.29" y2="1895.9" xlink:href="#linear-gradient"/><linearGradient id="linear-gradient-11" x1="1000.51" y1="1895.94" x2="994.94" y2="1903.7" xlink:href="#linear-gradient"/><linearGradient id="linear-gradient-12" x1="966.04" y1="1913.47" x2="998.48" y2="1913.47" xlink:href="#linear-gradient"/><linearGradient id="linear-gradient-13" x1="673.19" y1="1708.84" x2="658.75" y2="1763.27" xlink:href="#linear-gradient"/><linearGradient id="linear-gradient-14" x1="623.58" y1="1756.12" x2="730.79" y2="1756.12" xlink:href="#linear-gradient"/><linearGradient id="linear-gradient-15" x1="651.19" y1="1756.12" x2="683.62" y2="1756.12" xlink:href="#linear-gradient"/><linearGradient id="linear-gradient-16" x1="646.27" y1="1766.82" x2="661.4" y2="1766.82" xlink:href="#linear-gradient"/><linearGradient id="linear-gradient-17" x1="647.57" y1="1771.67" x2="664.93" y2="1771.67" xlink:href="#linear-gradient"/><linearGradient id="linear-gradient-18" x1="684.28" y1="1762.76" x2="693.69" y2="1785.2" xlink:href="#linear-gradient"/><linearGradient id="linear-gradient-19" x1="679.99" y1="1769.36" x2="684.81" y2="1792.77" xlink:href="#linear-gradient"/><linearGradient id="linear-gradient-20" x1="660.35" y1="1716.92" x2="668.36" y2="1736.03" xlink:href="#linear-gradient"/><linearGradient id="linear-gradient-21" x1="661.45" y1="1741.67" x2="655.45" y2="1721.77" xlink:href="#linear-gradient"/><linearGradient id="linear-gradient-22" x1="698.12" y1="1754.81" x2="693.21" y2="1738.54" xlink:href="#linear-gradient"/><linearGradient id="linear-gradient-23" x1="695.43" y1="1738.58" x2="689.87" y2="1746.34" xlink:href="#linear-gradient"/><linearGradient id="linear-gradient-24" x1="660.97" y1="1756.12" x2="693.41" y2="1756.12" xlink:href="#linear-gradient"/><linearGradient id="linear-gradient-25" x1="479.93" y1="908.61" x2="404.07" y2="1257" gradientTransform="matrix(0.94, 0.16, 0, 1, 72.45, -185.29)" gradientUnits="userSpaceOnUse"><stop offset="0" stop-color="#82fb7c"/><stop offset="1" stop-color="#0ba2b3"/></linearGradient><linearGradient id="linear-gradient-26" x1="538.7" y1="1262.84" x2="654.37" y2="934.15" gradientTransform="matrix(0.94, 0.16, 0, 1, 72.45, -185.29)" gradientUnits="userSpaceOnUse"><stop offset="0" stop-color="#206751"/><stop offset="1" stop-color="#0ba2b3"/></linearGradient><linearGradient id="linear-gradient-27" x1="475.97" y1="864.23" x2="461.42" y2="953.48" xlink:href="#linear-gradient-25"/><linearGradient id="linear-gradient-28" x1="564.41" y1="1206.51" x2="660.42" y2="933.68" xlink:href="#linear-gradient-26"/><linearGradient id="linear-gradient-29" x1="340.65" y1="910.65" x2="353.54" y2="874.03" xlink:href="#linear-gradient-26"/><linearGradient id="linear-gradient-30" x1="365.12" y1="952.02" x2="393.83" y2="952.02" gradientTransform="matrix(0.71, 0.63, -0.53, 0.85, 661.55, -219.83)" xlink:href="#linear-gradient-26"/><linearGradient id="linear-gradient-31" x1="502.09" y1="976.42" x2="530.8" y2="976.42" xlink:href="#linear-gradient-26"/><linearGradient id="linear-gradient-32" x1="377.92" y1="1266.78" x2="363.01" y2="1066.74" gradientUnits="userSpaceOnUse"><stop offset="0" stop-color="#dd2f2f"/><stop offset="1" stop-color="#ff6757"/></linearGradient><linearGradient id="linear-gradient-33" x1="509.25" y1="961.92" x2="504.7" y2="1285.62" gradientUnits="userSpaceOnUse"><stop offset="0" stop-color="#dd2f2f"/><stop offset="1" stop-color="#911616"/></linearGradient><linearGradient id="linear-gradient-34" x1="350.38" y1="1010.85" x2="335.83" y2="1100.09" gradientTransform="matrix(0.94, 0.16, 0, 1, 72.45, -185.29)" xlink:href="#linear-gradient-32"/><linearGradient id="linear-gradient-35" x1="517.5" y1="928.12" x2="517.5" y2="1175.22" xlink:href="#linear-gradient-33"/><linearGradient id="linear-gradient-36" x1="253.67" y1="894.13" x2="296.54" y2="894.13" xlink:href="#linear-gradient-33"/><linearGradient id="linear-gradient-37" x1="239.52" y1="1098.64" x2="268.23" y2="1098.64" gradientTransform="matrix(0.71, 0.63, -0.53, 0.85, 710.39, -138.78)" xlink:href="#linear-gradient-33"/><linearGradient id="linear-gradient-38" x1="376.5" y1="1123.04" x2="405.21" y2="1123.04" gradientTransform="matrix(0.71, 0.63, -0.53, 0.85, 754.45, -199.38)" xlink:href="#linear-gradient-33"/><linearGradient id="linear-gradient-39" x1="1246.56" y1="776.32" x2="802.55" y2="1106.55" gradientTransform="matrix(1, 0, 0.02, 1.01, 64.48, 21.48)" xlink:href="#linear-gradient"/><linearGradient id="linear-gradient-40" x1="1526.3" y1="40.27" x2="1445.11" y2="575.69" gradientUnits="userSpaceOnUse"><stop offset="0" stop-color="#787878"/><stop offset="0.24" stop-color="#fcfcfc"/><stop offset="0.7" stop-color="#4e4e4e"/><stop offset="1" stop-color="#727272"/></linearGradient><linearGradient id="linear-gradient-41" x1="874.51" y1="659.05" x2="1805.69" y2="659.05" gradientTransform="matrix(1, 0, 0.02, 1.01, 64.48, 21.48)" xlink:href="#linear-gradient"/><linearGradient id="linear-gradient-42" x1="1542.1" y1="1383.78" x2="1436.73" y2="986.32" gradientTransform="matrix(1, 0, 0.02, 1.01, 64.48, 21.48)" gradientUnits="userSpaceOnUse"><stop offset="0" stop-color="#fff"/><stop offset="1" stop-color="#727272"/></linearGradient><linearGradient id="linear-gradient-43" x1="1440.68" y1="67.08" x2="1246.44" y2="1160.4" gradientTransform="matrix(1, 0, 0.02, 1.01, 64.48, 21.48)" xlink:href="#linear-gradient-25"/><linearGradient id="linear-gradient-44" x1="1565.37" y1="-164.04" x2="1305.86" y2="99.72" gradientTransform="matrix(0.96, 0.18, 0, 1.05, 29.42, 42.31)" gradientUnits="userSpaceOnUse"><stop offset="0" stop-color="#f6f6f6"/><stop offset="1" stop-color="#ababab"/></linearGradient><linearGradient id="linear-gradient-45" x1="1207.68" y1="13.55" x2="1203.04" y2="-133.95" gradientTransform="matrix(0.96, 0.18, 0, 1.05, 29.42, 42.31)" xlink:href="#linear-gradient-32"/><linearGradient id="linear-gradient-46" x1="1288.9" y1="-46.82" x2="1373.47" y2="-260.73" xlink:href="#linear-gradient-44"/><linearGradient id="linear-gradient-47" x1="1392.78" y1="11.18" x2="1388.07" y2="-138.69" gradientTransform="matrix(0.96, 0.18, 0, 1.05, 29.42, 42.31)" xlink:href="#linear-gradient-32"/><linearGradient id="linear-gradient-48" x1="1455.5" y1="2.2" x2="1540.23" y2="-212.12" xlink:href="#linear-gradient-44"/><linearGradient id="linear-gradient-49" x1="1577.88" y1="8.55" x2="1573.1" y2="-143.5" gradientTransform="matrix(0.96, 0.18, 0, 1.05, 29.42, 42.31)" xlink:href="#linear-gradient-32"/><linearGradient id="linear-gradient-50" x1="1622.04" y1="51.38" x2="1706.92" y2="-163.33" xlink:href="#linear-gradient-44"/><linearGradient id="linear-gradient-51" x1="1762.97" y1="5.69" x2="1758.12" y2="-148.39" gradientTransform="matrix(0.96, 0.18, 0, 1.05, 29.42, 42.31)" xlink:href="#linear-gradient-32"/><linearGradient id="linear-gradient-52" x1="1095.47" y1="111.87" x2="1100.38" y2="-102.31" gradientTransform="matrix(0.95, 0.2, 0, 1.05, 29.6, 42.75)" xlink:href="#linear-gradient-32"/><linearGradient id="linear-gradient-53" x1="1191.61" y1="111.87" x2="1196.52" y2="-102.31" gradientTransform="matrix(0.95, 0.2, 0, 1.05, 29.6, 42.75)" xlink:href="#linear-gradient-44"/><linearGradient id="linear-gradient-54" x1="1287.75" y1="111.87" x2="1292.66" y2="-102.31" gradientTransform="matrix(0.95, 0.2, 0, 1.05, 29.6, 42.75)" xlink:href="#linear-gradient-32"/><linearGradient id="linear-gradient-55" x1="1383.89" y1="111.87" x2="1388.8" y2="-102.31" gradientTransform="matrix(0.95, 0.2, 0, 1.05, 29.6, 42.75)" xlink:href="#linear-gradient-44"/><linearGradient id="linear-gradient-56" x1="1480.03" y1="111.87" x2="1484.94" y2="-102.31" gradientTransform="matrix(0.95, 0.2, 0, 1.05, 29.6, 42.75)" xlink:href="#linear-gradient-32"/><linearGradient id="linear-gradient-57" x1="1576.17" y1="111.86" x2="1581.08" y2="-102.32" gradientTransform="matrix(0.95, 0.2, 0, 1.05, 29.6, 42.75)" xlink:href="#linear-gradient-44"/><linearGradient id="linear-gradient-58" x1="1672.31" y1="111.86" x2="1677.22" y2="-102.32" gradientTransform="matrix(0.95, 0.2, 0, 1.05, 29.6, 42.75)" xlink:href="#linear-gradient-32"/><linearGradient id="linear-gradient-59" x1="793.9" y1="653.59" x2="1376.13" y2="653.59" gradientUnits="userSpaceOnUse"><stop offset="0" stop-color="#dd2f2f"/><stop offset="1" stop-color="#7f2121"/></linearGradient><linearGradient id="linear-gradient-60" x1="1086.99" y1="813.21" x2="1079.29" y2="588.37" gradientUnits="userSpaceOnUse"><stop offset="0" stop-color="#fe7f0a"/><stop offset="1" stop-color="#ffb538"/></linearGradient><linearGradient id="linear-gradient-61" x1="833.36" y1="588.82" x2="1356.56" y2="588.82" xlink:href="#linear-gradient-59"/><linearGradient id="linear-gradient-62" x1="2234.22" y1="499.05" x2="2181.79" y2="474.52" gradientTransform="matrix(1.01, 0.23, -0.27, 0.96, -850.38, -240.18)" xlink:href="#linear-gradient"/><linearGradient id="linear-gradient-63" x1="2227.6" y1="-6916.01" x2="2187.73" y2="-6897.36" gradientTransform="matrix(1.01, 0.23, 0.27, -0.96, 844.43, -6394.05)" xlink:href="#linear-gradient"/><linearGradient id="linear-gradient-64" x1="2176.28" y1="514.36" x2="2130.12" y2="492.76" gradientTransform="matrix(1.01, 0.23, -0.27, 0.96, -850.38, -240.18)" xlink:href="#linear-gradient"/><linearGradient id="linear-gradient-65" x1="1533.96" y1="730.2" x2="1886.92" y2="730.2" gradientTransform="matrix(1, 0, 0, 1, 0, 0)" xlink:href="#linear-gradient"/><linearGradient id="linear-gradient-66" x1="1519.68" y1="715.53" x2="1872.64" y2="715.53" gradientTransform="matrix(1, 0, 0, 1, 0, 0)" xlink:href="#linear-gradient-44"/><linearGradient id="linear-gradient-67" x1="12442.69" y1="1234.64" x2="12685.58" y2="1234.64" gradientTransform="matrix(0.36, 0.31, -0.31, 0.36, -2343.37, -3393.22)" gradientUnits="userSpaceOnUse"><stop offset="0" stop-color="#f6f6f6"/><stop offset="1" stop-color="#cbcbcb"/></linearGradient><linearGradient id="linear-gradient-68" x1="12626.47" y1="1288.86" x2="12695.67" y2="1288.86" xlink:href="#linear-gradient-67"/><linearGradient id="linear-gradient-69" x1="1875.09" y1="1042.86" x2="1786.27" y2="1068" gradientTransform="matrix(1, 0, 0, 1, 0, 0)" xlink:href="#linear-gradient"/><linearGradient id="linear-gradient-70" x1="5580.13" y1="-2831.65" x2="5649.33" y2="-2831.65" gradientTransform="translate(-4235.96 -345.48) rotate(40.69)" xlink:href="#linear-gradient"/><linearGradient id="linear-gradient-71" x1="1552.13" y1="719.35" x2="1848.39" y2="719.35" gradientTransform="matrix(1, 0, 0, 1, 0, 0)" xlink:href="#linear-gradient-44"/><linearGradient id="linear-gradient-72" x1="1987.4" y1="549.48" x2="2041.7" y2="549.48" gradientTransform="matrix(1.07, 0.06, -0.11, 0.99, -464.32, 20.65)" xlink:href="#linear-gradient-60"/><linearGradient id="linear-gradient-73" x1="2114.3" y1="482.92" x2="2168.6" y2="482.92" gradientTransform="matrix(1.07, 0.06, -0.11, 0.99, -464.32, 20.65)" xlink:href="#linear-gradient-25"/><linearGradient id="linear-gradient-74" x1="2300.9" y1="1565.8" x2="2355.2" y2="1565.8" gradientTransform="matrix(0.95, 0.05, -0.1, 0.88, -319.44, -713.2)" xlink:href="#linear-gradient-60"/><linearGradient id="linear-gradient-75" x1="2836.68" y1="3431.97" x2="2890.97" y2="3431.97" gradientTransform="matrix(0.77, 0.04, -0.08, 0.72, -78.6, -1840.23)" xlink:href="#linear-gradient-25"/><linearGradient id="linear-gradient-76" x1="895.41" y1="1253.99" x2="1247.66" y2="573.33" gradientUnits="userSpaceOnUse"><stop offset="0" stop-color="#f6f6f6"/><stop offset="1" stop-color="#dedede"/></linearGradient><linearGradient id="linear-gradient-77" x1="1143.81" y1="824.53" x2="1268.23" y2="824.53" gradientUnits="userSpaceOnUse"><stop offset="0" stop-color="#8b8b8b"/><stop offset="1" stop-color="#cbcbcb"/></linearGradient><linearGradient id="linear-gradient-78" x1="1143.5" y1="822.74" x2="1144.48" y2="822.74" gradientTransform="matrix(1, 0, 0, 1, 0, 0)" xlink:href="#linear-gradient-67"/><linearGradient id="linear-gradient-79" x1="909.71" y1="813.49" x2="1121.5" y2="813.49" gradientUnits="userSpaceOnUse"><stop offset="0" stop-color="#c3c3c3"/><stop offset="1" stop-color="#cbcbcb"/></linearGradient><linearGradient id="linear-gradient-80" x1="962.46" y1="501.94" x2="1069.83" y2="501.94" gradientTransform="matrix(0.97, 0.25, 0, 1, -13.18, 119.04)" xlink:href="#linear-gradient-32"/><linearGradient id="linear-gradient-81" x1="1087.05" y1="502.06" x2="1135.81" y2="502.06" gradientTransform="matrix(0.97, 0.25, 0, 1, -13.18, 119.04)" xlink:href="#linear-gradient-79"/><linearGradient id="linear-gradient-82" x1="967.38" y1="532.08" x2="1074.75" y2="532.08" gradientTransform="matrix(0.97, 0.25, 0, 1, -13.18, 119.04)" xlink:href="#linear-gradient-79"/><linearGradient id="linear-gradient-83" x1="1091.97" y1="532.19" x2="1140.73" y2="532.19" gradientTransform="matrix(0.97, 0.25, 0, 1, -13.18, 119.04)" xlink:href="#linear-gradient-79"/><linearGradient id="linear-gradient-84" x1="975.23" y1="561.36" x2="1082.59" y2="561.36" gradientTransform="matrix(0.97, 0.25, 0, 1, -13.18, 119.04)" xlink:href="#linear-gradient-79"/><linearGradient id="linear-gradient-85" x1="1099.81" y1="561.48" x2="1148.57" y2="561.48" gradientTransform="matrix(0.97, 0.25, 0, 1, -13.18, 119.04)" xlink:href="#linear-gradient-79"/><linearGradient id="linear-gradient-86" x1="983.16" y1="588.13" x2="1090.52" y2="588.13" gradientTransform="matrix(0.97, 0.25, 0, 1, -13.18, 119.04)" xlink:href="#linear-gradient-79"/><linearGradient id="linear-gradient-87" x1="1107.74" y1="588.24" x2="1156.5" y2="588.24" gradientTransform="matrix(0.97, 0.25, 0, 1, -13.18, 119.04)" xlink:href="#linear-gradient-79"/><linearGradient id="linear-gradient-88" x1="1001.27" y1="652.98" x2="1108.63" y2="652.98" gradientTransform="matrix(0.97, 0.25, 0, 1, -13.18, 119.04)" xlink:href="#linear-gradient-79"/><linearGradient id="linear-gradient-89" x1="1125.85" y1="653.09" x2="1174.61" y2="653.09" gradientTransform="matrix(0.97, 0.25, 0, 1, -13.18, 119.04)" xlink:href="#linear-gradient-79"/><linearGradient id="linear-gradient-90" x1="1009.11" y1="682.26" x2="1116.48" y2="682.26" gradientTransform="matrix(0.97, 0.25, 0, 1, -13.18, 119.04)" xlink:href="#linear-gradient-79"/><linearGradient id="linear-gradient-91" x1="1133.69" y1="682.38" x2="1182.46" y2="682.38" gradientTransform="matrix(0.97, 0.25, 0, 1, -13.18, 119.04)" xlink:href="#linear-gradient-79"/><linearGradient id="linear-gradient-92" x1="1006.98" y1="708.37" x2="1114.35" y2="708.37" gradientTransform="matrix(0.97, 0.25, 0, 1, -13.18, 119.04)" xlink:href="#linear-gradient-79"/><linearGradient id="linear-gradient-93" x1="1131.56" y1="708.49" x2="1180.32" y2="708.49" gradientTransform="matrix(0.97, 0.25, 0, 1, -13.18, 119.04)" xlink:href="#linear-gradient-79"/><linearGradient id="linear-gradient-94" x1="973.99" y1="815.31" x2="1081.36" y2="815.31" gradientTransform="matrix(0.97, 0.25, 0, 1, -13.18, 119.04)" xlink:href="#linear-gradient-32"/><linearGradient id="linear-gradient-95" x1="1098.57" y1="815.43" x2="1147.33" y2="815.43" gradientTransform="matrix(0.97, 0.25, 0, 1, -13.18, 119.04)" xlink:href="#linear-gradient-79"/><linearGradient id="linear-gradient-96" x1="955.61" y1="840.99" x2="1062.98" y2="840.99" gradientTransform="matrix(0.97, 0.25, 0, 1, -13.18, 119.04)" xlink:href="#linear-gradient-79"/><linearGradient id="linear-gradient-97" x1="1080.2" y1="841.11" x2="1128.96" y2="841.11" gradientTransform="matrix(0.97, 0.25, 0, 1, -13.18, 119.04)" xlink:href="#linear-gradient-79"/><linearGradient id="linear-gradient-98" x1="925.23" y1="868.84" x2="1032.59" y2="868.84" gradientTransform="matrix(0.97, 0.25, 0, 1, -13.18, 119.04)" xlink:href="#linear-gradient-79"/><linearGradient id="linear-gradient-99" x1="1049.81" y1="868.95" x2="1098.57" y2="868.95" gradientTransform="matrix(0.97, 0.25, 0, 1, -13.18, 119.04)" xlink:href="#linear-gradient-79"/><linearGradient id="linear-gradient-100" x1="782.27" y1="988.33" x2="889.63" y2="988.33" gradientTransform="matrix(0.97, 0.25, 0, 1, -13.18, 119.04)" xlink:href="#linear-gradient-32"/><linearGradient id="linear-gradient-101" x1="906.85" y1="988.44" x2="955.61" y2="988.44" gradientTransform="matrix(0.97, 0.25, 0, 1, -13.18, 119.04)" xlink:href="#linear-gradient-79"/><linearGradient id="linear-gradient-102" x1="764.35" y1="1030.68" x2="871.72" y2="1030.68" gradientTransform="matrix(0.97, 0.25, 0, 1, -13.18, 119.04)" xlink:href="#linear-gradient-79"/><linearGradient id="linear-gradient-103" x1="888.93" y1="1030.8" x2="937.7" y2="1030.8" gradientTransform="matrix(0.97, 0.25, 0, 1, -13.18, 119.04)" xlink:href="#linear-gradient-79"/><linearGradient id="linear-gradient-104" x1="753.07" y1="1073.97" x2="860.43" y2="1073.97" gradientTransform="matrix(0.97, 0.25, 0, 1, -13.18, 119.04)" xlink:href="#linear-gradient-79"/><linearGradient id="linear-gradient-105" x1="877.65" y1="1074.09" x2="926.41" y2="1074.09" gradientTransform="matrix(0.97, 0.25, 0, 1, -13.18, 119.04)" xlink:href="#linear-gradient-79"/><linearGradient id="linear-gradient-106" x1="942.95" y1="1161.67" x2="1144.48" y2="1161.67" xlink:href="#linear-gradient-79"/><linearGradient id="linear-gradient-107" x1="796.46" y1="1461.12" x2="821.65" y2="1412.45" xlink:href="#linear-gradient-79"/><linearGradient id="linear-gradient-108" x1="-2602.57" y1="1276.81" x2="-2716.94" y2="1802.08" gradientTransform="matrix(-1, 0, 0, 1, -1130.59, 0)" xlink:href="#linear-gradient-25"/><linearGradient id="linear-gradient-109" x1="-2496.19" y1="1814.38" x2="-2320.51" y2="1315.17" gradientTransform="matrix(-1, 0, 0, 1, -1130.59, 0)" xlink:href="#linear-gradient-26"/><linearGradient id="linear-gradient-110" x1="-2604.31" y1="1205.33" x2="-2627.99" y2="1350.56" gradientTransform="matrix(-1, 0, 0, 1, -1130.59, 0)" xlink:href="#linear-gradient-25"/><linearGradient id="linear-gradient-111" x1="-2454.36" y1="1722.71" x2="-2310.68" y2="1314.41" gradientTransform="matrix(-1, 0, 0, 1, -1130.59, 0)" xlink:href="#linear-gradient-26"/><linearGradient id="linear-gradient-112" x1="-2824.5" y1="1280.86" x2="-2803.53" y2="1221.28" gradientTransform="matrix(-1, 0, 0, 1, -1130.59, 0)" xlink:href="#linear-gradient-26"/><linearGradient id="linear-gradient-113" x1="-2784.68" y1="1348.19" x2="-2737.97" y2="1348.19" gradientTransform="matrix(-0.67, -0.74, -0.74, 0.67, 785.18, -1606.06)" xlink:href="#linear-gradient-26"/><linearGradient id="linear-gradient-114" x1="-2561.81" y1="1387.89" x2="-2515.1" y2="1387.89" gradientTransform="matrix(-0.87, -0.49, -0.49, 0.87, -119.3, -1069.3)" xlink:href="#linear-gradient-26"/><linearGradient id="linear-gradient-115" x1="-2638.75" y1="1496.31" x2="-2726.43" y2="1898.96" gradientTransform="matrix(-1, 0, 0, 1, -1130.59, 0)" xlink:href="#linear-gradient-60"/><linearGradient id="linear-gradient-116" x1="-2570.84" y1="1905.7" x2="-2437.15" y2="1525.82" gradientTransform="matrix(-1, 0, 0, 1, -1130.59, 0)" xlink:href="#linear-gradient-60"/><linearGradient id="linear-gradient-117" x1="-2643.33" y1="1445.02" x2="-2660.15" y2="1548.17" gradientTransform="matrix(-1, 0, 0, 1, -1130.59, 0)" xlink:href="#linear-gradient-60"/><linearGradient id="linear-gradient-118" x1="-2541.13" y1="1840.6" x2="-2430.16" y2="1525.29" gradientTransform="matrix(-1, 0, 0, 1, -1130.59, 0)" xlink:href="#linear-gradient-60"/><linearGradient id="linear-gradient-119" x1="-2799.73" y1="1498.67" x2="-2784.83" y2="1456.34" gradientTransform="matrix(-1, 0, 0, 1, -1130.59, 0)" xlink:href="#linear-gradient-60"/><linearGradient id="linear-gradient-120" x1="-2771.45" y1="1546.49" x2="-2738.27" y2="1546.49" gradientTransform="matrix(-1, 0, 0, 1, -1130.59, 0)" xlink:href="#linear-gradient-32"/><linearGradient id="linear-gradient-121" x1="-2613.15" y1="1574.68" x2="-2579.97" y2="1574.68" gradientTransform="matrix(-0.81, -0.58, -0.58, 0.81, 273.25, -1218.01)" xlink:href="#linear-gradient-32"/><linearGradient id="linear-gradient-122" x1="1292.48" y1="1042.7" x2="1619.46" y2="1042.7" xlink:href="#linear-gradient-59"/><linearGradient id="linear-gradient-123" x1="1289.58" y1="1037.88" x2="1616.57" y2="1037.88" xlink:href="#linear-gradient-32"/><linearGradient id="linear-gradient-124" x1="464.21" y1="566.04" x2="636.77" y2="551.16" gradientTransform="matrix(1.02, -0.09, 0.11, 1.03, 130.91, -300.6)" gradientUnits="userSpaceOnUse"><stop offset="0" stop-color="#f7f7f7"/><stop offset="1" stop-color="#cbcbcb"/></linearGradient><linearGradient id="linear-gradient-125" x1="968.42" y1="-694.13" x2="863.99" y2="-398.9" gradientTransform="matrix(1.05, -0.27, 0.11, 1.03, -135.58, 1007.2)" xlink:href="#linear-gradient-124"/><linearGradient id="linear-gradient-126" x1="49.44" y1="160.05" x2="399.28" y2="160.05" gradientTransform="matrix(1.01, -0.15, 0.17, 1.02, 523.49, 72.92)" xlink:href="#linear-gradient-60"/><linearGradient id="linear-gradient-127" x1="2814.26" y1="5042.62" x2="3138.86" y2="5042.62" gradientTransform="matrix(0.27, 0.52, -0.56, 0.24, 2486.43, -2147.22)" xlink:href="#linear-gradient-26"/><linearGradient id="linear-gradient-128" x1="1005.72" y1="481.24" x2="857.74" y2="616.57" gradientTransform="translate(-444.2 -41.28) rotate(4.29)" xlink:href="#linear-gradient-25"/></defs><g id="Layer_2" data-name="Layer 2"><g id="Layer_4" data-name="Layer 4"><path class="cls-1" d="M636,1391.75c-29.94,4.68-56.45,36.94-59.22,72S596,1523.56,626,1518.88c58.93-9.22,56.45-36.94,59.22-72.05S665.93,1387.06,636,1391.75Zm27,58.55c-1.64,20.75-17.31,39.82-35,42.59s-30.71-11.81-29.07-32.57,17.31-39.82,35-42.59S664.65,1429.54,663,1450.3Z"/><path class="cls-2" d="M650.18,1404.39c-29.93,4.68-56.45,36.94-59.22,72s19.24,59.76,49.18,55.08,56.45-36.94,59.23-72S680.12,1399.71,650.18,1404.39Zm27,58.55c-1.63,20.76-17.31,39.82-35,42.59s-30.71-11.81-29.07-32.56,17.31-39.82,35-42.59S678.84,1442.19,677.2,1462.94Z"/><path class="cls-3" d="M651.67,1466.94c-.84,10.62-8.87,20.38-17.92,21.8s-15.72-6-14.89-16.67,8.87-20.38,17.92-21.8S652.5,1456.32,651.67,1466.94Z"/><polygon class="cls-4" points="613.29 1483.82 622.68 1477.35 628.92 1475.4 614.39 1487.55 613.29 1483.82"/><polygon class="cls-5" points="632.05 1482.85 618.26 1495.86 614.39 1487.55 628.92 1475.4 632.05 1482.85"/><path class="cls-6" d="M650.77,1483.53l4.67,14s7.21-4.91,9.61-11.12l-10.09-11Z"/><polygon class="cls-7" points="643.64 1487.19 646.94 1498.9 655.44 1497.57 650.11 1481.96 643.64 1487.19"/><path class="cls-8" d="M626,1443l7.57,12,8.82-4.87-4.66-16.35S630.45,1437.51,626,1443Z"/><polygon class="cls-9" points="622.88 1447.15 628.52 1455.18 633.58 1454.9 626.01 1442.95 622.88 1447.15"/><path class="cls-10" d="M660.31,1456.55l8.9-7.22s3.06,5.86,2,11.54l-11.4,4.79Z"/><polygon class="cls-11" points="669.21 1449.33 660.67 1450.01 653.23 1457.1 659.36 1458.3 669.21 1449.33"/><path class="cls-12" d="M661.56,1465.39c-.84,10.62-8.86,20.38-17.92,21.8s-15.72-6-14.88-16.67,8.86-20.38,17.92-21.8S662.4,1454.77,661.56,1465.39Z"/><path class="cls-13" d="M335.35,1294.08c-29.93,4.68-56.45,36.93-59.22,72s19.25,59.77,49.18,55.08c58.93-9.21,56.45-36.93,59.23-72S365.29,1289.39,335.35,1294.08Zm27,58.55c-1.64,20.75-17.32,39.82-35,42.59s-30.71-11.81-29.07-32.57,17.31-39.82,35-42.59S364,1331.87,362.38,1352.63Z"/><path class="cls-14" d="M349.54,1306.72c-29.93,4.68-56.45,36.94-59.22,72s19.25,59.76,49.18,55.08,56.46-36.94,59.23-72S379.48,1302,349.54,1306.72Zm27,58.55c-1.64,20.75-17.32,39.82-35,42.59s-30.72-11.81-29.08-32.56,17.31-39.82,35-42.59S378.21,1344.52,376.57,1365.27Z"/><path class="cls-15" d="M351,1369.27c-.84,10.62-8.86,20.38-17.92,21.8s-15.72-6-14.88-16.67,8.86-20.38,17.92-21.8S351.87,1358.65,351,1369.27Z"/><polygon class="cls-16" points="312.65 1386.15 322.04 1379.67 328.29 1377.73 313.75 1389.88 312.65 1386.15"/><polygon class="cls-17" points="331.42 1385.18 317.62 1398.19 313.75 1389.88 328.29 1377.73 331.42 1385.18"/><path class="cls-18" d="M350.13,1385.86l4.68,14s7.2-4.91,9.6-11.12l-10.08-11Z"/><polygon class="cls-19" points="343 1389.52 346.3 1401.23 354.81 1399.9 349.48 1384.29 343 1389.52"/><path class="cls-20" d="M325.38,1345.28l7.57,12,8.81-4.87L337.1,1336S329.82,1339.84,325.38,1345.28Z"/><polygon class="cls-21" points="322.24 1349.48 327.88 1357.51 332.94 1357.23 325.38 1345.28 322.24 1349.48"/><path class="cls-22" d="M359.68,1358.88l8.89-7.22s3.06,5.86,2,11.54L359.18,1368Z"/><polygon class="cls-23" points="368.57 1351.66 360.03 1352.34 352.59 1359.42 358.73 1360.63 368.57 1351.66"/><path class="cls-24" d="M360.92,1367.72c-.83,10.62-8.86,20.38-17.92,21.8s-15.72-6-14.88-16.67,8.87-20.38,17.92-21.8S361.76,1357.1,360.92,1367.72Z"/><rect class="cls-25" x="527.21" y="967.31" width="297.46" height="7.24" transform="translate(-300.15 1639.39) rotate(-89.56)"/><path class="cls-26" d="M489.74,1504a45.58,45.58,0,0,1-23.28-6.48,45.07,45.07,0,0,1-22.37-41l4.21-111.77,16.27.61-4.21,111.77a29.39,29.39,0,0,0,44.16,26.51l184.86-135.46a24.36,24.36,0,0,0-4.35-43.85l-177.85-58.81a88.52,88.52,0,0,0-75.4,7.42l-226.4,135.46a45.52,45.52,0,0,1-68.87-40.77l4.22-112,16.28.61-4.22,112A29.24,29.24,0,0,0,197,1374.37l226.4-135.46a104.63,104.63,0,0,1,89-8.85l177.85,58.81a40.64,40.64,0,0,1,7.78,73L513.52,1497.18l-.33.19A45.53,45.53,0,0,1,489.74,1504Z"/><rect class="cls-26" x="224.58" y="833.38" width="7.24" height="72.61"/><rect class="cls-26" x="316.93" y="815" width="7.24" height="115.1"/><path class="cls-27" d="M146.65,858l-3-14.16,324.26-68.35a70.76,70.76,0,0,1,30.52.26L736.53,830l-3.22,14.12-238.09-54.3a56.35,56.35,0,0,0-24.32-.2Z"/><rect class="cls-25" x="600.05" y="967.84" width="7.24" height="272.24" transform="translate(-604.42 1455.61) rotate(-77.56)"/><rect class="cls-28" x="401.76" y="794.67" width="7.24" height="155.9"/><rect class="cls-28" x="623.88" y="815" width="7.24" height="75.63"/><rect class="cls-28" x="540.32" y="794.67" width="7.24" height="296.11"/><rect class="cls-25" x="609.64" y="754.29" width="7.24" height="270.7" transform="translate(-385.85 1301.11) rotate(-77.8)"/><rect class="cls-25" x="610.8" y="829.48" width="7.24" height="268.17" transform="translate(-456.15 1363.37) rotate(-77.95)"/><rect class="cls-25" x="605.63" y="903.42" width="7.24" height="268.17" transform="translate(-532.57 1416.82) rotate(-77.95)"/><rect class="cls-26" x="209.32" y="1175.28" width="353.5" height="7.24" transform="translate(-488.91 299.54) rotate(-26.72)"/><rect class="cls-26" x="472.02" y="1208.09" width="7.24" height="117.21" transform="matrix(0.3, -0.95, 0.95, 0.3, -875.31, 1342.1)"/><rect class="cls-26" x="529.27" y="1076.49" width="7.24" height="222.85" transform="translate(-752.27 1396.44) rotate(-75.06)"/><path class="cls-29" d="M475.79,781.16l-.36,272.09a51.52,51.52,0,0,1-34,48.38L138,1211.28"/><rect class="cls-26" x="132.21" y="902.19" width="349.42" height="7.24" transform="translate(-221.93 108.93) rotate(-14.85)"/><rect class="cls-26" x="131.42" y="997.66" width="350.75" height="7.24" transform="matrix(0.96, -0.27, 0.27, 0.96, -260.75, 121.18)"/><polygon class="cls-26" points="327.03 1305.01 323.36 1298.78 406.61 1249.83 122.31 1141.67 404.26 1049.82 406.5 1056.7 144.05 1142.2 423.28 1248.43 327.03 1305.01"/><polygon class="cls-30" points="371.17 773.38 618.48 844.13 593.13 1203.16 345.7 1107.12 371.17 773.38"/><polygon class="cls-31" points="618.48 844.13 651.52 822.75 651.53 1152.81 618.47 1147.01 593.13 1203.16 618.48 844.13"/><polygon class="cls-32" points="371.17 773.38 414.04 751.06 651.52 822.75 618.48 844.13 371.17 773.38"/><polygon class="cls-33" points="618.47 1147.01 633.57 834.37 651.52 822.75 651.53 1152.81 618.47 1147.01"/><polygon class="cls-34" points="414.04 751.06 412.55 785.21 371.17 773.38 414.04 751.06"/><ellipse class="cls-35" cx="427.49" cy="829.04" rx="12.68" ry="15.21" transform="translate(-373.29 350.7) rotate(-31.87)"/><path class="cls-36" d="M569.07,878.29c0,7.93-6,13.3-13.43,12s-13.43-8.79-13.43-16.71,6-13.3,13.43-12S569.07,870.36,569.07,878.29Z"/><path class="cls-37" d="M488.92,1022.18a66,66,0,0,1-12.57-3.53L463,1013.46c-30.48-11.82-51.41-45.33-48.7-77.93l8.89-106.85a3.77,3.77,0,0,1,4.87-3.52,5.83,5.83,0,0,1,4.09,5.93l-8.88,106.85c-2.31,27.78,15.52,56.32,41.48,66.4l13.37,5.19c15.54,6,31.7,4.9,44.33-3.11S543,984.27,544.27,967.6l7-93.53a3.79,3.79,0,0,1,4.84-3.57,5.81,5.81,0,0,1,4.13,5.9l-7,93.53c-1.44,19.36-10.68,35.81-25.36,45.11C516.58,1022.2,502.87,1024.63,488.92,1022.18Z"/><polygon class="cls-38" points="253.67 899.37 500.97 970.12 475.62 1301.67 228.2 1205.63 253.67 899.37"/><polygon class="cls-39" points="500.97 970.12 534.02 948.74 534.03 1251.32 500.97 1245.52 475.62 1301.67 500.97 970.12"/><polygon class="cls-40" points="253.67 899.37 296.54 877.05 534.02 948.74 500.97 970.12 253.67 899.37"/><polygon class="cls-41" points="500.97 1245.52 516.07 960.36 534.02 948.74 534.03 1251.32 500.97 1245.52"/><polygon class="cls-42" points="296.54 877.05 295.04 911.2 253.67 899.37 296.54 877.05"/><ellipse class="cls-43" cx="309.98" cy="955.03" rx="12.68" ry="15.21" transform="translate(-457.55 307.67) rotate(-31.87)"/><ellipse class="cls-44" cx="438.13" cy="1001.92" rx="12.68" ry="15.21" transform="translate(-462.98 382.4) rotate(-31.87)"/><path class="cls-37" d="M371.42,1148.17a66,66,0,0,1-12.57-3.53l-13.37-5.19c-30.47-11.82-51.4-45.33-48.69-77.93l8.88-106.85a3.78,3.78,0,0,1,4.88-3.52,5.84,5.84,0,0,1,4.09,5.93l-8.89,106.85c-2.31,27.78,15.53,56.32,41.49,66.4l13.36,5.19c15.54,6,31.7,4.9,44.34-3.11s20.59-22.15,21.83-38.82l7-93.53a3.78,3.78,0,0,1,4.83-3.57,5.83,5.83,0,0,1,4.14,5.9l-7,93.53c-1.44,19.36-10.69,35.81-25.37,45.11C399.08,1148.19,385.36,1150.62,371.42,1148.17Z"/><path class="cls-27" d="M406.23,960.81h-.89a161.18,161.18,0,0,1-46.49-7.11L141.7,887a22.34,22.34,0,0,1,2-43.2l3,14.17a7.85,7.85,0,0,0-.69,15.19l217.15,66.71a146.84,146.84,0,0,0,84.43.56L733.7,856.57a6.05,6.05,0,0,0,4.34-4.16,7,7,0,0,0-.62-5.41,6.12,6.12,0,0,0-4.12-2.89l3.24-14.1a20.6,20.6,0,0,1,13.39,9.71,21.47,21.47,0,0,1,2,16.87,20.49,20.49,0,0,1-14.13,13.87L451.61,954.32A161.58,161.58,0,0,1,406.23,960.81Z"/><path class="cls-27" d="M454.62,1352.35a45.1,45.1,0,0,1-19.67-4.59,44.17,44.17,0,0,1-25.31-38.88l-11.5-355.07a7.25,7.25,0,0,1,2.05-5.28,7.46,7.46,0,0,1,5.23-2.19,146.46,146.46,0,0,0,42.12-5.92L733.7,856.57a6.05,6.05,0,0,0,4.34-4.16,7.46,7.46,0,0,1,14.75,1.37v240.81a95.78,95.78,0,0,1-38.67,76.69l-233,172.18A44.46,44.46,0,0,1,454.62,1352.35ZM412.85,960.68,424.1,1308.4a30.4,30.4,0,0,0,48.44,23.42l233-172.18a81.24,81.24,0,0,0,32.81-65.05V870.29l-.55.17L451.61,954.32A161.76,161.76,0,0,1,412.85,960.68ZM739,850.76h0Zm1.07-1.56h0Z"/><path class="cls-27" d="M432.47,1346.28l-253.75-86.89a78.08,78.08,0,0,1-52.78-73.87V873.39h14.48v312.13a63.58,63.58,0,0,0,43,60.17l253.75,86.9Z"/><rect class="cls-27" x="224.58" y="905.99" width="7.24" height="366.74"/><rect class="cls-27" x="316.93" y="934.36" width="7.24" height="362.24"/><polygon class="cls-27" points="412.01 1156.68 131.96 1056.81 134.39 1049.99 411.64 1148.86 744.02 993.22 747.09 999.77 412.01 1156.68"/><rect class="cls-27" x="265.66" y="853.79" width="7.24" height="285.41" transform="translate(-762.07 953.6) rotate(-72.5)"/><rect class="cls-27" x="402.7" y="979.88" width="351.97" height="7.24" transform="translate(-282.61 234.95) rotate(-18.53)"/><rect class="cls-27" x="392.11" y="1151.71" width="376.27" height="7.24" transform="translate(-481.26 417.31) rotate(-28.52)"/><rect class="cls-27" x="526.92" y="921.61" width="7.24" height="375" transform="translate(-10.79 5.23) rotate(-0.56)"/><rect class="cls-27" x="644.19" y="889.28" width="7.24" height="322"/><path class="cls-27" d="M412.59,954.13,398.16,953l6.37-82.55A16.46,16.46,0,0,0,385,858L283.29,880.17a56.83,56.83,0,0,1-28.6-1.19L135.74,844.64,140,868.9l-14.26,2.49-5.46-31.22L17.41,810.48A19.35,19.35,0,0,1,18.85,773l77.93-16.95A22.2,22.2,0,0,1,123.37,774l9.6,54.82,125.84,36.34a42.41,42.41,0,0,0,21.41.91L381.9,843.9A31,31,0,0,1,419,868.79l.15.9ZM101.52,770.05a7.81,7.81,0,0,0-1.66.18l-77.93,17a4.87,4.87,0,0,0-.39,9.41l95.95,27.71-8.38-47.86a7.74,7.74,0,0,0-7.59-6.4Z"/><path class="cls-45" d="M306.47,856.61l-27,5.88a38.75,38.75,0,0,1-19.63-.86L22.6,793.14a1,1,0,0,1-.89-1.24c0-1,.55-1.08,1-1.18l23.69-5.15a10.86,10.86,0,0,0-4.62-21.22l-23.69,5.16A23,23,0,0,0,16.41,814L130.3,846.84a25.72,25.72,0,0,0-8,17.62,26.77,26.77,0,0,0,.9,8.2,10.86,10.86,0,0,0-.93,4.39v63.43a10.86,10.86,0,1,0,21.72,0v-49l22.61,7a11.07,11.07,0,0,0,3.19.48A10.86,10.86,0,0,0,173,877.68l-26-8a4,4,0,0,1-3-4.24,3.91,3.91,0,0,1,3.35-4,10.84,10.84,0,0,0,8.12-7.38l98.12,28.32a60.44,60.44,0,0,0,30.43,1.26l27-5.88a10.85,10.85,0,1,0-4.62-21.21Z"/><path class="cls-45" d="M454.5,1355.88a48.44,48.44,0,0,0,28.8-9.51l28-20.68a10.85,10.85,0,0,0-12.9-17.46l-28,20.68a26.78,26.78,0,0,1-42.67-20.63l-1-30.14a10.86,10.86,0,0,0-21.71.7l1,30.16a48.8,48.8,0,0,0,1.28,9.54l-34.15-11.7a10.86,10.86,0,0,0-7,20.54l53.19,18.22a11,11,0,0,0,3.51.58,11.34,11.34,0,0,0,2.26-.26,49.49,49.49,0,0,0,8.3,5.1A48.41,48.41,0,0,0,454.5,1355.88Z"/><path class="cls-45" d="M133.18,1138.24a10.86,10.86,0,0,0-10.86,10.85v36.43a81.7,81.7,0,0,0,55.23,77.29l17.07,5.85a10.86,10.86,0,0,0,7-20.54l-17.08-5.85A60,60,0,0,1,144,1185.52v-36.43A10.85,10.85,0,0,0,133.18,1138.24Z"/><path class="cls-45" d="M396.56,1016.83a10.85,10.85,0,0,0,10.85,10.5h.36a10.84,10.84,0,0,0,10.49-11.2l-1.68-52a165.23,165.23,0,0,0,36-6.32l26.22-7.68a10.86,10.86,0,1,0-6.1-20.84L446.52,937a143.52,143.52,0,0,1-41.08,5.77h0a143,143,0,0,1-41.27-6.32,10.85,10.85,0,1,0-6.38,20.75A164.41,164.41,0,0,0,394.85,964Z"/><path class="cls-45" d="M747.86,843.17a12.12,12.12,0,0,0-13.29,8.19,2.45,2.45,0,0,1-1.89,1.74L690.3,865.52a10.85,10.85,0,1,0,6.11,20.83l38.29-11.22v30.68a10.86,10.86,0,1,0,21.71,0v-52A10.85,10.85,0,0,0,747.86,843.17Z"/><path class="cls-45" d="M745.56,1051.75a10.86,10.86,0,0,0-10.86,10.86v32a77.6,77.6,0,0,1-31.34,62.14l-8.61,6.36a10.85,10.85,0,1,0,12.9,17.46l8.62-6.36a99.41,99.41,0,0,0,40.14-79.6v-32A10.86,10.86,0,0,0,745.56,1051.75Z"/><path class="cls-45" d="M223.17,1355.56,195.63,1372a26.52,26.52,0,0,1-40.13-23.76l.81-21.65a10.85,10.85,0,1,0-21.69-.82l-.82,21.65a47.6,47.6,0,0,0,23.63,43.33,47.57,47.57,0,0,0,49.35-.12l27.54-16.48a10.86,10.86,0,1,0-11.15-18.63Z"/><path class="cls-45" d="M526.48,1464.12,503,1481.31a26.68,26.68,0,0,1-39.95-24.14l1-26.77a10.86,10.86,0,0,0-21.7-.81l-1,26.77a47.73,47.73,0,0,0,23.7,43.46,47.72,47.72,0,0,0,49.5-.12l24.73-18.06a10.86,10.86,0,0,0-12.83-17.52Z"/><g class="cls-46"><ellipse class="cls-47" cx="480.2" cy="1429.02" rx="284.47" ry="90.03" transform="translate(-2.07 0.7) rotate(-0.08)"/><ellipse class="cls-48" cx="480.2" cy="1429.02" rx="277.14" ry="87.71" transform="translate(-2.07 0.7) rotate(-0.08)"/><ellipse class="cls-49" cx="480.2" cy="1429.02" rx="269.81" ry="85.39" transform="translate(-2.07 0.7) rotate(-0.08)"/><ellipse class="cls-50" cx="480.2" cy="1429.02" rx="262.48" ry="83.07" transform="translate(-2.07 0.7) rotate(-0.08)"/><ellipse class="cls-51" cx="480.2" cy="1429.02" rx="255.16" ry="80.75" transform="translate(-2.07 0.7) rotate(-0.08)"/><ellipse class="cls-52" cx="480.2" cy="1429.02" rx="247.83" ry="78.43" transform="translate(-2.07 0.7) rotate(-0.08)"/><ellipse class="cls-53" cx="480.2" cy="1429.02" rx="240.5" ry="76.11" transform="translate(-2.07 0.7) rotate(-0.08)"/><ellipse class="cls-54" cx="480.2" cy="1429.02" rx="233.17" ry="73.8" transform="translate(-2.07 0.7) rotate(-0.08)"/><ellipse class="cls-55" cx="480.2" cy="1429.02" rx="225.85" ry="71.48" transform="translate(-2.07 0.7) rotate(-0.08)"/><ellipse class="cls-56" cx="480.2" cy="1429.02" rx="218.52" ry="69.16" transform="translate(-2.07 0.7) rotate(-0.08)"/><ellipse class="cls-57" cx="480.2" cy="1429.02" rx="211.19" ry="66.84" transform="translate(-2.07 0.7) rotate(-0.08)"/><ellipse class="cls-58" cx="480.2" cy="1429.02" rx="203.86" ry="64.52" transform="translate(-2.07 0.7) rotate(-0.08)"/><ellipse class="cls-59" cx="480.2" cy="1429.02" rx="196.54" ry="62.2" transform="translate(-2.07 0.7) rotate(-0.08)"/><ellipse class="cls-60" cx="480.2" cy="1429.02" rx="189.21" ry="59.88" transform="translate(-2.07 0.7) rotate(-0.08)"/><ellipse class="cls-61" cx="480.2" cy="1429.02" rx="181.88" ry="57.56" transform="translate(-2.07 0.7) rotate(-0.08)"/><ellipse class="cls-62" cx="480.2" cy="1429.02" rx="174.55" ry="55.24" transform="translate(-2.07 0.7) rotate(-0.08)"/><ellipse class="cls-63" cx="480.2" cy="1429.02" rx="167.23" ry="52.92" transform="translate(-2.07 0.7) rotate(-0.08)"/><ellipse class="cls-64" cx="480.2" cy="1429.02" rx="159.9" ry="50.61" transform="translate(-2.07 0.7) rotate(-0.08)"/><ellipse class="cls-65" cx="480.2" cy="1429.02" rx="152.57" ry="48.29" transform="translate(-2.07 0.7) rotate(-0.08)"/><ellipse class="cls-66" cx="480.2" cy="1429.02" rx="145.24" ry="45.97" transform="translate(-2.07 0.7) rotate(-0.08)"/><ellipse class="cls-67" cx="480.2" cy="1429.02" rx="137.92" ry="43.65" transform="matrix(1, 0, 0, 1, -2.07, 0.7)"/><ellipse class="cls-68" cx="480.2" cy="1429.02" rx="130.59" ry="41.33" transform="translate(-2.08 0.7) rotate(-0.08)"/><ellipse class="cls-69" cx="480.2" cy="1429.02" rx="123.26" ry="39.01" transform="translate(-2.07 0.7) rotate(-0.08)"/><ellipse class="cls-70" cx="480.2" cy="1429.02" rx="115.93" ry="36.69" transform="translate(-2.08 0.7) rotate(-0.08)"/><ellipse class="cls-71" cx="480.19" cy="1429.02" rx="108.6" ry="34.37" transform="translate(-2.08 0.7) rotate(-0.08)"/><ellipse class="cls-72" cx="480.19" cy="1429.02" rx="101.28" ry="32.05" transform="translate(-2.08 0.7) rotate(-0.08)"/><ellipse class="cls-73" cx="480.19" cy="1429.02" rx="93.95" ry="29.73" transform="translate(-2.08 0.7) rotate(-0.08)"/></g><path class="cls-74" d="M985.82,1168,1264.08,105a78,78,0,0,1,88.28-57.35l479.08,77.57c43,7,71.16,49.83,60.45,91.92L1606.34,1339a69.17,69.17,0,0,1-85.45,49.77l-481.72-129.36C999.48,1248.71,975.46,1207.57,985.82,1168Z"/><path class="cls-75" d="M965.61,1155.54l297.78-1051.7a78,78,0,0,1,88.28-57.35l471.73,52c43,7,78.51,75.38,67.8,117.46L1605.65,1337.76a69.17,69.17,0,0,1-85.45,49.77l-481.72-129.37C998.79,1247.5,955.24,1195.12,965.61,1155.54Z"/><path class="cls-76" d="M964.79,1134.16,1243,71.21a78,78,0,0,1,88.28-57.35L1810.4,91.42c43,7,71.16,49.84,60.45,91.92L1585.3,1305.13a69.16,69.16,0,0,1-85.45,49.76l-481.72-129.36C978.44,1214.87,954.42,1173.74,964.79,1134.16Z"/><path class="cls-77" d="M1855.13,116.81a74.23,74.23,0,0,1,13.25,63.45L1582.83,1302a69.17,69.17,0,0,1-85.45,49.77l-481.71-129.36a74.84,74.84,0,0,1-36.91-23,74.85,74.85,0,0,0,39.37,26.08l481.72,129.36a69.16,69.16,0,0,0,85.45-49.76L1870.85,183.34A74.35,74.35,0,0,0,1855.13,116.81Z"/><path class="cls-78" d="M1838.57,174.41,1553,1296.15a36.6,36.6,0,0,1-35.45,27.66,39,39,0,0,1-9.8-1.29l-480.36-129c-9.94-2.68-19.05-8.55-24.78-17.21a40.41,40.41,0,0,1-5.62-33l93.68-358,184.52-705a45.51,45.51,0,0,1,44-34,48.55,48.55,0,0,1,7.5.56L1451,67.11a6.61,6.61,0,0,1,5.28,8.5l-5,16A18.88,18.88,0,0,0,1466,115.78l158.92,27.95a19.76,19.76,0,0,0,21.84-12.13l8.17-20.57.11-.22a13.42,13.42,0,0,1,14.7-8.33l134.82,21.85a42.13,42.13,0,0,1,27.54,16.43A40.11,40.11,0,0,1,1838.57,174.41Z"/><path class="cls-79" d="M1728.14,355.08c5.33,258.23-198.26,467.51-454.67,467.51a466.08,466.08,0,0,1-182.76-37.27l184.52-705a45.51,45.51,0,0,1,44-34,48.55,48.55,0,0,1,7.5.56L1451,67.11a6.61,6.61,0,0,1,5.28,8.5l-5,16A18.88,18.88,0,0,0,1466,115.78l158.92,27.95a19.76,19.76,0,0,0,21.84-12.13l8.17-20.57A475.17,475.17,0,0,1,1728.14,355.08Z"/><polygon class="cls-80" points="1231.75 134.03 1048.55 227.6 1690.93 369.71 1824.81 241.89 1231.75 134.03"/><polygon class="cls-81" points="1231.75 134.03 1048.55 227.6 1148.12 249.63 1312.67 149.44 1231.75 134.03"/><polygon class="cls-82" points="1398.03 164.85 1238.59 269.64 1140.15 247.87 1316.33 149.41 1398.03 164.85"/><polygon class="cls-83" points="1483.39 180.25 1329.06 289.66 1231.75 268.13 1400.9 164.79 1483.39 180.25"/><polygon class="cls-84" points="1568.74 195.66 1419.53 309.67 1323.35 288.4 1485.48 180.17 1568.74 195.66"/><polygon class="cls-85" points="1654.1 211.07 1509.99 329.69 1414.96 308.66 1570.06 195.56 1654.1 211.07"/><polygon class="cls-86" points="1739.46 226.48 1600.46 349.7 1506.56 328.93 1654.63 210.94 1739.46 226.48"/><polygon class="cls-87" points="1824.81 241.89 1690.93 369.71 1598.16 349.19 1739.21 226.32 1824.81 241.89"/><path class="cls-88" d="M1040.89,362.07l3.91.87c25.36,5.61,48.36-5.93,58.43-29.31l36.92-85.76-91.6-20.27-35.32,82C1004.6,329.69,1019.14,357.26,1040.89,362.07Z"/><path class="cls-89" d="M1132.49,381.7l3.91.87c25.36,5.61,48.36-5.93,58.43-29.31l36.92-85.76-91.6-20.27-35.32,82C1096.2,349.32,1110.74,376.89,1132.49,381.7Z"/><path class="cls-90" d="M1224.09,401.33l3.92.87c25.35,5.61,48.36-5.93,58.42-29.31l36.92-85.76-91.6-20.27-35.32,82C1187.8,369,1202.35,396.52,1224.09,401.33Z"/><path class="cls-91" d="M1315.69,421l3.92.87c25.36,5.61,48.36-5.93,58.42-29.31L1415,306.76l-91.61-20.27-35.32,82C1279.4,388.58,1294,416.15,1315.69,421Z"/><path class="cls-92" d="M1407.3,440.59l3.91.87c25.36,5.61,48.36-5.93,58.42-29.31l36.93-85.76L1415,306.12l-35.32,82C1371,408.21,1385.55,435.78,1407.3,440.59Z"/><path class="cls-93" d="M1498.9,460.23l3.91.86c25.36,5.61,48.36-5.93,58.43-29.31L1598.16,346l-91.6-20.27-35.32,82C1462.61,427.84,1477.15,455.41,1498.9,460.23Z"/><path class="cls-94" d="M1590.5,479.86l3.91.86c25.36,5.61,48.36-5.93,58.43-29.31l36.92-85.76-91.6-20.27-35.32,82C1554.21,447.47,1568.76,475,1590.5,479.86Z"/><g class="cls-95"><ellipse class="cls-47" cx="1251.92" cy="828.9" rx="320.77" ry="101.52" transform="translate(-1.2 1.81) rotate(-0.08)"/><ellipse class="cls-48" cx="1251.92" cy="828.9" rx="312.51" ry="98.9" transform="translate(-1.2 1.81) rotate(-0.08)"/><ellipse class="cls-49" cx="1251.92" cy="828.9" rx="304.24" ry="96.29" transform="translate(-1.2 1.81) rotate(-0.08)"/><ellipse class="cls-50" cx="1251.92" cy="828.9" rx="295.98" ry="93.67" transform="translate(-1.2 1.81) rotate(-0.08)"/><ellipse class="cls-51" cx="1251.92" cy="828.9" rx="287.72" ry="91.06" transform="translate(-1.2 1.82) rotate(-0.08)"/><ellipse class="cls-52" cx="1251.92" cy="828.9" rx="279.46" ry="88.44" transform="translate(-1.2 1.82) rotate(-0.08)"/><ellipse class="cls-53" cx="1251.92" cy="828.9" rx="271.19" ry="85.83" transform="translate(-1.2 1.81) rotate(-0.08)"/><ellipse class="cls-54" cx="1251.92" cy="828.9" rx="262.93" ry="83.21" transform="translate(-1.2 1.82) rotate(-0.08)"/><ellipse class="cls-55" cx="1251.92" cy="828.9" rx="254.67" ry="80.6" transform="matrix(1, 0, 0, 1, -1.2, 1.82)"/><ellipse class="cls-56" cx="1251.92" cy="828.9" rx="246.4" ry="77.98" transform="translate(-1.2 1.82) rotate(-0.08)"/><ellipse class="cls-57" cx="1251.92" cy="828.9" rx="238.14" ry="75.37" transform="translate(-1.2 1.82) rotate(-0.08)"/><ellipse class="cls-58" cx="1251.92" cy="828.9" rx="229.88" ry="72.75" transform="translate(-1.2 1.82) rotate(-0.08)"/><ellipse class="cls-59" cx="1251.92" cy="828.9" rx="221.62" ry="70.14" transform="translate(-1.2 1.82) rotate(-0.08)"/><ellipse class="cls-60" cx="1251.92" cy="828.9" rx="213.35" ry="67.52" transform="matrix(1, 0, 0, 1, -1.2, 1.82)"/><ellipse class="cls-61" cx="1251.92" cy="828.9" rx="205.09" ry="64.91" transform="translate(-1.2 1.82) rotate(-0.08)"/><ellipse class="cls-62" cx="1251.92" cy="828.9" rx="196.83" ry="62.29" transform="translate(-1.2 1.82) rotate(-0.08)"/><ellipse class="cls-63" cx="1251.92" cy="828.9" rx="188.57" ry="59.68" transform="translate(-1.2 1.82) rotate(-0.08)"/><ellipse class="cls-64" cx="1251.92" cy="828.9" rx="180.3" ry="57.06" transform="translate(-1.2 1.82) rotate(-0.08)"/><ellipse class="cls-65" cx="1251.92" cy="828.9" rx="172.04" ry="54.45" transform="translate(-1.2 1.82) rotate(-0.08)"/><ellipse class="cls-66" cx="1251.91" cy="828.9" rx="163.78" ry="51.83" transform="translate(-1.2 1.82) rotate(-0.08)"/><ellipse class="cls-67" cx="1251.91" cy="828.9" rx="155.51" ry="49.22" transform="translate(-1.2 1.82) rotate(-0.08)"/><ellipse class="cls-68" cx="1251.91" cy="828.9" rx="147.25" ry="46.6" transform="translate(-1.2 1.82) rotate(-0.08)"/><ellipse class="cls-69" cx="1251.91" cy="828.9" rx="138.99" ry="43.99" transform="translate(-1.2 1.82) rotate(-0.08)"/><ellipse class="cls-70" cx="1251.91" cy="828.9" rx="130.73" ry="41.37" transform="translate(-1.2 1.82) rotate(-0.08)"/><ellipse class="cls-71" cx="1251.91" cy="828.9" rx="122.46" ry="38.76" transform="translate(-1.2 1.82) rotate(-0.08)"/><ellipse class="cls-72" cx="1251.91" cy="828.9" rx="114.2" ry="36.14" transform="translate(-1.2 1.82) rotate(-0.08)"/><ellipse class="cls-73" cx="1251.91" cy="828.9" rx="105.94" ry="33.53" transform="translate(-1.2 1.82) rotate(-0.08)"/></g><g class="cls-96"><ellipse class="cls-47" cx="919.63" cy="762.65" rx="320.77" ry="101.52" transform="translate(-1.1 1.33) rotate(-0.08)"/><ellipse class="cls-48" cx="919.63" cy="762.65" rx="312.51" ry="98.9" transform="translate(-1.1 1.33) rotate(-0.08)"/><ellipse class="cls-49" cx="919.63" cy="762.65" rx="304.24" ry="96.29" transform="translate(-1.1 1.33) rotate(-0.08)"/><ellipse class="cls-50" cx="919.63" cy="762.65" rx="295.98" ry="93.67" transform="translate(-1.1 1.33) rotate(-0.08)"/><ellipse class="cls-51" cx="919.63" cy="762.65" rx="287.72" ry="91.06" transform="translate(-1.1 1.33) rotate(-0.08)"/><ellipse class="cls-52" cx="919.63" cy="762.65" rx="279.46" ry="88.44" transform="translate(-1.1 1.33) rotate(-0.08)"/><ellipse class="cls-53" cx="919.63" cy="762.65" rx="271.19" ry="85.83" transform="translate(-1.1 1.33) rotate(-0.08)"/><ellipse class="cls-54" cx="919.63" cy="762.65" rx="262.93" ry="83.21" transform="translate(-1.1 1.33) rotate(-0.08)"/><ellipse class="cls-55" cx="919.63" cy="762.65" rx="254.67" ry="80.6" transform="translate(-1.1 1.33) rotate(-0.08)"/><ellipse class="cls-56" cx="919.63" cy="762.65" rx="246.4" ry="77.98" transform="translate(-1.1 1.33) rotate(-0.08)"/><ellipse class="cls-57" cx="919.63" cy="762.65" rx="238.14" ry="75.37" transform="translate(-1.1 1.33) rotate(-0.08)"/><ellipse class="cls-58" cx="919.63" cy="762.65" rx="229.88" ry="72.75" transform="translate(-1.1 1.33) rotate(-0.08)"/><ellipse class="cls-59" cx="919.63" cy="762.65" rx="221.62" ry="70.14" transform="translate(-1.1 1.33) rotate(-0.08)"/><ellipse class="cls-60" cx="919.63" cy="762.65" rx="213.35" ry="67.52" transform="translate(-1.1 1.33) rotate(-0.08)"/><ellipse class="cls-61" cx="919.63" cy="762.65" rx="205.09" ry="64.91" transform="translate(-1.1 1.33) rotate(-0.08)"/><ellipse class="cls-62" cx="919.63" cy="762.65" rx="196.83" ry="62.29" transform="translate(-1.1 1.33) rotate(-0.08)"/><ellipse class="cls-63" cx="919.63" cy="762.65" rx="188.57" ry="59.68" transform="translate(-1.1 1.33) rotate(-0.08)"/><ellipse class="cls-64" cx="919.63" cy="762.65" rx="180.3" ry="57.06" transform="translate(-1.1 1.33) rotate(-0.08)"/><ellipse class="cls-65" cx="919.63" cy="762.65" rx="172.04" ry="54.45" transform="translate(-1.11 1.33) rotate(-0.08)"/><ellipse class="cls-66" cx="919.63" cy="762.65" rx="163.78" ry="51.83" transform="translate(-1.11 1.33) rotate(-0.08)"/><ellipse class="cls-67" cx="919.63" cy="762.65" rx="155.51" ry="49.22" transform="translate(-1.11 1.34) rotate(-0.08)"/><ellipse class="cls-68" cx="919.63" cy="762.65" rx="147.25" ry="46.6" transform="translate(-1.11 1.34) rotate(-0.08)"/><ellipse class="cls-69" cx="919.63" cy="762.65" rx="138.99" ry="43.99" transform="translate(-1.11 1.34) rotate(-0.08)"/><ellipse class="cls-70" cx="919.63" cy="762.65" rx="130.73" ry="41.37" transform="translate(-1.11 1.34) rotate(-0.08)"/><ellipse class="cls-71" cx="919.63" cy="762.65" rx="122.46" ry="38.76" transform="translate(-1.11 1.34) rotate(-0.08)"/><ellipse class="cls-72" cx="919.63" cy="762.65" rx="114.2" ry="36.14" transform="translate(-1.11 1.34) rotate(-0.08)"/><ellipse class="cls-73" cx="919.63" cy="762.65" rx="105.94" ry="33.53" transform="translate(-1.11 1.34) rotate(-0.08)"/></g><path class="cls-97" d="M908.37,426.84l439.54,93.25a35.23,35.23,0,0,1,27.07,43.4L1297.58,861a26.8,26.8,0,0,1-31.83,19.39L822.82,775.72a37.08,37.08,0,0,1-27.67-45.67l75.14-279.58A32.65,32.65,0,0,1,908.37,426.84Z"/><path class="cls-98" d="M904.44,420.29,1344,513.53a35.25,35.25,0,0,1,27.08,43.41L1293.64,854.4a26.78,26.78,0,0,1-31.83,19.38L818.89,769.16a37.07,37.07,0,0,1-27.67-45.66l75.13-279.58A32.65,32.65,0,0,1,904.44,420.29Z"/><polygon class="cls-99" points="851.65 498.62 1356.56 612.62 1339.28 679.02 833.36 566.67 851.65 498.62"/><path class="cls-100" d="M1245.32,784.5l-77.4-17.41a11,11,0,0,1-8.52-13.69l14.11-51.23a12.36,12.36,0,0,1,14.62-8.48l77.41,17.42a11,11,0,0,1,8.51,13.69L1260,776A12.38,12.38,0,0,1,1245.32,784.5Z"/><g class="cls-101"><path class="cls-102" d="M1269.22,742.37l-42.12-9.48a7.84,7.84,0,0,1-6-9.71l5.73-20.79,3.32.75-5.72,20.79a4.65,4.65,0,0,0,3.59,5.77l42.11,9.48Z"/><path class="cls-103" d="M1209.9,776.53l-3.33-.75L1212.3,755a8.79,8.79,0,0,1,10.38-6l42.11,9.48-.88,3.19-42.11-9.48a5.23,5.23,0,0,0-6.17,3.58Z"/><path class="cls-104" d="M1188.22,758.13l-28.36-6.39.87-3.19,28.37,6.39a5.64,5.64,0,0,0,6.64-3.85l8.32-30.24a5,5,0,0,0-3.86-6.22l-28.37-6.38.88-3.19,28.37,6.38a8.2,8.2,0,0,1,6.31,10.15l-8.33,30.25A9.19,9.19,0,0,1,1188.22,758.13Z"/></g><g class="cls-105"><path class="cls-37" d="M1021.92,671,881.27,637.76a6,6,0,0,1-4.47-7.5h0a6.58,6.58,0,0,1,7.79-4.59l140.65,33.26a6,6,0,0,1,4.47,7.5h0A6.58,6.58,0,0,1,1021.92,671Z"/><path class="cls-37" d="M1057.61,508.23,917,475a6,6,0,0,1-4.47-7.5h0a6.59,6.59,0,0,1,7.79-4.6l140.64,33.27a6,6,0,0,1,4.47,7.5h0A6.59,6.59,0,0,1,1057.61,508.23Z"/><path class="cls-37" d="M1015,696.43,874.3,663.16a6,6,0,0,1-4.47-7.5h0a6.58,6.58,0,0,1,7.79-4.59l140.65,33.26a6,6,0,0,1,4.47,7.5h0A6.58,6.58,0,0,1,1015,696.43Z"/><path class="cls-37" d="M1008,721.83,867.33,688.56a6,6,0,0,1-4.47-7.5h0a6.59,6.59,0,0,1,7.79-4.6l140.65,33.27a6,6,0,0,1,4.46,7.5h0A6.57,6.57,0,0,1,1008,721.83Z"/><path class="cls-37" d="M960.88,737.73,860.36,714a6,6,0,0,1-4.47-7.5h0a6.59,6.59,0,0,1,7.79-4.6L964.2,725.64a6,6,0,0,1,4.47,7.5h0A6.58,6.58,0,0,1,960.88,737.73Z"/><path class="cls-37" d="M1330.89,569.39l-100.53-23.78a6,6,0,0,1-4.46-7.5h0a6.57,6.57,0,0,1,7.78-4.59l100.53,23.77a6,6,0,0,1,4.46,7.5h0A6.57,6.57,0,0,1,1330.89,569.39Z"/></g><path class="cls-106" d="M1881,671.25c-20.1-74.19-88.83-124.7-170.51-118.43C1613,560.33,1534,645.81,1534,743.77c0,33.64,9.32,64.39,25.52,89.94,30.93,48.85,87,78.78,151,73.86a181.67,181.67,0,0,0,34-5.92c81.16-22.19,142.42-98.78,142.42-185A173.18,173.18,0,0,0,1881,671.25ZM1734.22,879.49a155,155,0,0,1-23.77,3.68c-56.83,4.38-106.39-23.09-132.54-67.46a144.63,144.63,0,0,1-19.7-73.81c0-84.49,68.16-158.23,152.24-164.67,68.3-5.27,126.11,35.5,145.36,96.32a148.32,148.32,0,0,1,6.86,44.94C1862.67,794.86,1807,862.44,1734.22,879.49Z"/><path class="cls-107" d="M1866.68,656.59c-20.1-74.2-88.82-124.71-170.51-118.43-97.47,7.51-176.49,93-176.49,190.94,0,33.64,9.32,64.39,25.52,89.94,30.93,48.85,87,78.78,151,73.87a182.49,182.49,0,0,0,34-5.93c81.17-22.19,142.42-98.78,142.42-185A173.1,173.1,0,0,0,1866.68,656.59ZM1563.63,801a144.6,144.6,0,0,1-19.7-73.81c0-84.49,68.16-158.23,152.24-164.68,44.18-3.4,84,12.44,111.76,40.54a.22.22,0,0,1,.06.07,138.31,138.31,0,0,1,33.53,55.72,148,148,0,0,1,6.87,45c0,76.36-55.68,143.93-128.46,161a156.77,156.77,0,0,1-23.76,3.7c-40.05,3.08-76.5-9.66-103.68-33A137.62,137.62,0,0,1,1563.63,801Z"/><g class="cls-108"><path class="cls-109" d="M1783.76,970.79c.29-.27.58-.54.88-.8s.67-.56,1-.84l.71-.56.7-.5c.33-.24.66-.46,1-.69l.6-.37c.39-.24.78-.48,1.18-.71l.5-.28c.57-.31,1.14-.61,1.72-.89l.21-.09c.52-.26,1.06-.49,1.6-.72l.51-.21q.77-.32,1.56-.6l.31-.11c.61-.21,1.24-.41,1.87-.59l.55-.16,1.37-.35.75-.17c.39-.09.78-.16,1.18-.24l1-.17.93-.13c.53-.07,1.06-.12,1.59-.17l1-.07.76,0h1.23l.72,0c.43,0,.86,0,1.29.08l.61.05q.93.1,1.83.27c.57.11,1.12.24,1.64.39l.41.12c.29.08.56.18.83.28s.77.29,1.13.45.47.21.69.32l.6.33c.26.15.51.3.74.46l.41.29a9,9,0,0,1,.81.67l.18.16a8.65,8.65,0,0,1,.82.9l.17.24a8.13,8.13,0,0,1,.52.78c0,.09.1.17.14.26a7.41,7.41,0,0,1,.48,1.08l-33.2-94.75,0-.1q-.16-.42-.36-.84l-.09-.14-.15-.26c-.07-.13-.14-.26-.22-.39s-.19-.26-.29-.39-.11-.16-.18-.24l-.09-.13a9.19,9.19,0,0,0-.67-.73l0,0-.18-.15c-.19-.18-.38-.35-.59-.52l-.22-.15-.41-.29c-.13-.08-.24-.18-.38-.26l-.36-.2-.6-.33-.33-.18-.36-.14c-.36-.16-.74-.31-1.13-.45-.14,0-.26-.12-.4-.16l-.43-.13-.41-.11c-.53-.15-1.07-.28-1.64-.39s-1.21-.2-1.84-.27l-.6-.05c-.43,0-.86-.07-1.29-.08l-.73,0H1774l-.75,0-.48,0-.5.05c-.53,0-1.06.1-1.59.17-.17,0-.34,0-.5.06l-.43.07-1,.17-.65.11-.52.13-.75.17-.51.11-.86.24-.55.15-.23.07c-.52.15-1,.32-1.54.49l-.1,0-.32.11-1.07.4-.49.2-.5.21-.45.18-1.15.53-.21.1,0,0c-.48.23-1,.47-1.42.72l-.25.15-.5.28-.67.38-.51.33-.6.37-.37.23-.63.45-.7.5-.24.18c-.17.12-.31.26-.47.39-.35.27-.7.55-1,.84l-.28.23-.59.57-.42.4c-.43.43-.85.88-1.24,1.33-3.35,3.92-4.34,7.86-3.22,11.07l33.2,94.75c-1.11-3.21-.13-7.15,3.22-11.07.39-.45.81-.89,1.24-1.32Z"/><path class="cls-110" d="M1812.9,961.75c10.25,1.94,13.1,9.91,6.35,17.8s-20.54,12.72-30.8,10.77-13.09-9.91-6.35-17.8S1802.64,959.81,1812.9,961.75Z"/></g><g class="cls-108"><path class="cls-111" d="M1831.61,1157.3c.6-.58,1.21-1.14,1.84-1.69s1.43-1.21,2.17-1.79c.5-.4,1-.8,1.51-1.19s1-.71,1.48-1.06c.69-.49,1.39-1,2.11-1.44l1.25-.8q1.24-.76,2.52-1.5c.35-.19.69-.4,1-.59,1.19-.66,2.4-1.29,3.63-1.88l.44-.2c1.11-.53,2.24-1,3.38-1.52l1.07-.44c1.1-.44,2.2-.87,3.31-1.26.22-.08.43-.17.65-.24,1.31-.46,2.63-.88,4-1.27l1.16-.32q1.45-.4,2.91-.75c.52-.13,1-.25,1.58-.36.82-.19,1.65-.34,2.48-.5s1.39-.25,2.08-.36,1.32-.19,2-.28c1.12-.14,2.23-.26,3.35-.35.69-.06,1.38-.12,2.07-.16.53,0,1.07,0,1.6-.06.87,0,1.74,0,2.6,0l1.53,0c.92,0,1.82.1,2.73.18.42,0,.86.06,1.28.11,1.31.14,2.61.32,3.87.56s2.36.51,3.48.82l.86.25c.61.18,1.18.39,1.75.6.83.29,1.64.61,2.4,1,.49.22,1,.44,1.45.68s.86.45,1.27.69,1.07.64,1.57,1c.29.2.58.39.86.6q.9.68,1.71,1.41c.12.12.26.22.38.34a19.25,19.25,0,0,1,1.73,1.91c.13.16.25.33.37.5a17.55,17.55,0,0,1,1.09,1.66c.1.18.21.35.31.54a16.09,16.09,0,0,1,1,2.29L1843.25,952.1a1.72,1.72,0,0,0-.07-.21,16.25,16.25,0,0,0-.76-1.77c-.06-.11-.13-.21-.18-.32l-.31-.54c-.16-.27-.3-.56-.48-.83s-.4-.55-.61-.82l-.37-.51-.2-.27a20.66,20.66,0,0,0-1.43-1.55l-.1-.09-.38-.33c-.4-.37-.8-.74-1.24-1.09-.15-.11-.32-.21-.47-.33l-.86-.6c-.27-.18-.51-.38-.8-.55s-.52-.28-.77-.43c-.41-.24-.83-.47-1.27-.69-.24-.12-.45-.26-.69-.37s-.52-.2-.76-.31c-.76-.34-1.56-.65-2.4-1-.29-.1-.54-.24-.84-.34l-.91-.26-.86-.25c-1.12-.3-2.26-.59-3.48-.82s-2.56-.42-3.87-.56l-1.28-.1c-.91-.08-1.81-.15-2.73-.18l-1.53,0c-.86,0-1.73,0-2.6,0l-1.6.06-1,0c-.36,0-.72.09-1.07.12-1.12.09-2.23.21-3.36.36-.35,0-.71.06-1.07.11l-.89.16c-.7.11-1.39.24-2.09.37-.46.08-.92.14-1.37.24s-.74.17-1.12.25l-1.57.36-1.09.25c-.61.16-1.21.34-1.82.51-.39.1-.78.2-1.16.32l-.49.13c-1.09.33-2.18.68-3.26,1.05l-.21.08-.65.24c-.76.27-1.52.54-2.27.83l-1,.43-1.07.45-.93.38c-.83.36-1.64.74-2.45,1.13l-.44.2-.11,0c-1,.49-2,1-3,1.53l-.53.3-1,.6c-.48.27-1,.53-1.43.81s-.72.46-1.08.68l-1.26.8c-.26.17-.53.32-.78.49-.45.31-.88.64-1.33.95s-1,.7-1.48,1.06c-.17.13-.35.24-.51.37-.35.26-.66.55-1,.82-.74.59-1.47,1.18-2.17,1.79-.19.17-.4.32-.59.49-.43.39-.84.8-1.25,1.2s-.61.56-.9.85c-.91.92-1.79,1.85-2.61,2.8-7.08,8.29-9.17,16.63-6.81,23.41l70.19,200.27c-2.36-6.79-.27-15.12,6.81-23.41.82-1,1.7-1.89,2.61-2.8C1831,1157.86,1831.31,1157.58,1831.61,1157.3Z"/><path class="cls-112" d="M1893.2,1138.14c21.68,4.09,27.7,20.93,13.42,37.63s-43.42,26.9-65.09,22.81-27.69-20.95-13.43-37.63S1871.51,1134,1893.2,1138.14Z"/></g><path class="cls-113" d="M1848.39,703.83c0,76.36-55.68,143.93-128.46,161a156.77,156.77,0,0,1-23.76,3.7c-40.05,3.08-76.5-9.66-103.68-33a137.88,137.88,0,0,1-20.66-26.84,144.6,144.6,0,0,1-19.7-73.81c0-84.49,68.14-158.23,152.24-164.68,40-3.08,76.4,9.62,103.56,32.9a.22.22,0,0,1,.06.07,138.31,138.31,0,0,1,33.53,55.72A148,148,0,0,1,1848.39,703.83Z"/><polygon class="cls-37" points="1747.66 796.89 1768.64 635.85 1649.34 689.15 1646.48 682.75 1777.21 624.34 1756.23 785.37 1863.69 737.26 1866.56 743.66 1747.66 796.89"/><path class="cls-114" d="M1660.41,685.54a26,26,0,0,0-1.47-9.54c-3.74-10.62-14.22-18.08-26.82-17.91-14,.21-26.08,9.85-29.26,22.51a27.49,27.49,0,0,0-.81,5.77c-.49,15.39,12.17,27.67,28.29,27.44S1659.92,700.93,1660.41,685.54Z"/><path class="cls-115" d="M1803.28,627.31a26,26,0,0,0-1.46-9.54c-3.75-10.62-14.23-18.08-26.83-17.91-14,.21-26.08,9.85-29.26,22.51a27.58,27.58,0,0,0-.81,5.77c-.49,15.39,12.18,27.67,28.29,27.44S1802.79,642.7,1803.28,627.31Z"/><path class="cls-116" d="M1772.91,790.77a23,23,0,0,0-1.3-8.5c-3.34-9.45-12.67-16.09-23.88-15.93-12.5.18-23.21,8.76-26,20a24.31,24.31,0,0,0-.72,5.13c-.44,13.7,10.83,24.64,25.18,24.43S1772.47,804.47,1772.91,790.77Z"/><path class="cls-117" d="M1890.48,740.25a18.77,18.77,0,0,0-1-6.9c-2.71-7.68-10.29-13.07-19.4-13-10.15.15-18.85,7.12-21.15,16.28a19.78,19.78,0,0,0-.59,4.17c-.35,11.12,8.8,20,20.46,19.84S1890.13,751.38,1890.48,740.25Z"/><g class="cls-46"><ellipse class="cls-47" cx="1014.48" cy="1299.98" rx="284.47" ry="119.81" transform="translate(-1.88 1.47) rotate(-0.08)"/><ellipse class="cls-48" cx="1014.48" cy="1299.98" rx="277.14" ry="116.72" transform="translate(-1.88 1.47) rotate(-0.08)"/><ellipse class="cls-49" cx="1014.48" cy="1299.98" rx="269.81" ry="113.63" transform="translate(-1.88 1.47) rotate(-0.08)"/><ellipse class="cls-50" cx="1014.48" cy="1299.98" rx="262.48" ry="110.55" transform="translate(-1.88 1.47) rotate(-0.08)"/><ellipse class="cls-51" cx="1014.48" cy="1299.98" rx="255.16" ry="107.46" transform="translate(-1.88 1.47) rotate(-0.08)"/><ellipse class="cls-52" cx="1014.48" cy="1299.98" rx="247.83" ry="104.38" transform="translate(-1.88 1.47) rotate(-0.08)"/><ellipse class="cls-53" cx="1014.48" cy="1299.98" rx="240.5" ry="101.29" transform="translate(-1.88 1.47) rotate(-0.08)"/><ellipse class="cls-54" cx="1014.48" cy="1299.98" rx="233.17" ry="98.2" transform="translate(-1.88 1.47) rotate(-0.08)"/><ellipse class="cls-55" cx="1014.48" cy="1299.98" rx="225.85" ry="95.12" transform="translate(-1.88 1.47) rotate(-0.08)"/><ellipse class="cls-56" cx="1014.48" cy="1299.98" rx="218.52" ry="92.03" transform="translate(-1.88 1.47) rotate(-0.08)"/><ellipse class="cls-57" cx="1014.48" cy="1299.98" rx="211.19" ry="88.95" transform="translate(-1.88 1.47) rotate(-0.08)"/><ellipse class="cls-58" cx="1014.48" cy="1299.98" rx="203.86" ry="85.86" transform="translate(-1.88 1.47) rotate(-0.08)"/><ellipse class="cls-59" cx="1014.48" cy="1299.98" rx="196.54" ry="82.77" transform="matrix(1, 0, 0, 1, -1.88, 1.47)"/><ellipse class="cls-60" cx="1014.48" cy="1299.98" rx="189.21" ry="79.69" transform="translate(-1.88 1.47) rotate(-0.08)"/><ellipse class="cls-61" cx="1014.48" cy="1299.98" rx="181.88" ry="76.6" transform="translate(-1.89 1.47) rotate(-0.08)"/><ellipse class="cls-62" cx="1014.48" cy="1299.98" rx="174.55" ry="73.52" transform="translate(-1.89 1.47) rotate(-0.08)"/><ellipse class="cls-63" cx="1014.48" cy="1299.98" rx="167.23" ry="70.43" transform="translate(-1.89 1.47) rotate(-0.08)"/><ellipse class="cls-64" cx="1014.48" cy="1299.98" rx="159.9" ry="67.34" transform="translate(-1.89 1.47) rotate(-0.08)"/><ellipse class="cls-65" cx="1014.48" cy="1299.98" rx="152.57" ry="64.26" transform="translate(-1.89 1.47) rotate(-0.08)"/><ellipse class="cls-66" cx="1014.48" cy="1299.98" rx="145.24" ry="61.17" transform="translate(-1.89 1.47) rotate(-0.08)"/><ellipse class="cls-67" cx="1014.48" cy="1299.98" rx="137.92" ry="58.08" transform="translate(-1.89 1.48) rotate(-0.08)"/><ellipse class="cls-68" cx="1014.48" cy="1299.98" rx="130.59" ry="55" transform="translate(-1.89 1.48) rotate(-0.08)"/><ellipse class="cls-69" cx="1014.48" cy="1299.98" rx="123.26" ry="51.91" transform="translate(-1.89 1.48) rotate(-0.08)"/><ellipse class="cls-70" cx="1014.48" cy="1299.98" rx="115.93" ry="48.83" transform="translate(-1.89 1.48) rotate(-0.08)"/><ellipse class="cls-71" cx="1014.48" cy="1299.98" rx="108.6" ry="45.74" transform="translate(-1.89 1.48) rotate(-0.08)"/><ellipse class="cls-72" cx="1014.48" cy="1299.98" rx="101.28" ry="42.65" transform="translate(-1.89 1.48) rotate(-0.08)"/><ellipse class="cls-73" cx="1014.48" cy="1299.98" rx="93.95" ry="39.57" transform="matrix(1, 0, 0, 1, -1.89, 1.48)"/></g><g class="cls-118"><ellipse class="cls-47" cx="1113.05" cy="909.15" rx="284.47" ry="90.03" transform="translate(-1.32 1.61) rotate(-0.08)"/><ellipse class="cls-48" cx="1113.05" cy="909.15" rx="277.14" ry="87.71" transform="translate(-1.32 1.61) rotate(-0.08)"/><ellipse class="cls-49" cx="1113.05" cy="909.15" rx="269.81" ry="85.39" transform="translate(-1.32 1.61) rotate(-0.08)"/><ellipse class="cls-50" cx="1113.05" cy="909.15" rx="262.48" ry="83.07" transform="translate(-1.32 1.61) rotate(-0.08)"/><ellipse class="cls-51" cx="1113.05" cy="909.15" rx="255.16" ry="80.75" transform="translate(-1.32 1.61) rotate(-0.08)"/><ellipse class="cls-52" cx="1113.05" cy="909.15" rx="247.83" ry="78.43" transform="translate(-1.32 1.61) rotate(-0.08)"/><ellipse class="cls-53" cx="1113.05" cy="909.15" rx="240.5" ry="76.11" transform="translate(-1.32 1.61) rotate(-0.08)"/><ellipse class="cls-54" cx="1113.05" cy="909.15" rx="233.17" ry="73.8" transform="translate(-1.32 1.61) rotate(-0.08)"/><ellipse class="cls-55" cx="1113.05" cy="909.15" rx="225.85" ry="71.48" transform="translate(-1.32 1.61) rotate(-0.08)"/><ellipse class="cls-56" cx="1113.05" cy="909.15" rx="218.52" ry="69.16" transform="translate(-1.32 1.61) rotate(-0.08)"/><ellipse class="cls-57" cx="1113.05" cy="909.15" rx="211.19" ry="66.84" transform="matrix(1, 0, 0, 1, -1.32, 1.61)"/><ellipse class="cls-58" cx="1113.05" cy="909.15" rx="203.86" ry="64.52" transform="translate(-1.32 1.61) rotate(-0.08)"/><ellipse class="cls-59" cx="1113.05" cy="909.15" rx="196.54" ry="62.2" transform="translate(-1.32 1.61) rotate(-0.08)"/><ellipse class="cls-60" cx="1113.05" cy="909.15" rx="189.21" ry="59.88" transform="translate(-1.32 1.62) rotate(-0.08)"/><ellipse class="cls-61" cx="1113.05" cy="909.15" rx="181.88" ry="57.56" transform="translate(-1.32 1.62) rotate(-0.08)"/><ellipse class="cls-62" cx="1113.05" cy="909.15" rx="174.55" ry="55.24" transform="translate(-1.32 1.62) rotate(-0.08)"/><ellipse class="cls-63" cx="1113.05" cy="909.15" rx="167.23" ry="52.92" transform="translate(-1.32 1.62) rotate(-0.08)"/><ellipse class="cls-64" cx="1113.05" cy="909.15" rx="159.9" ry="50.61" transform="matrix(1, 0, 0, 1, -1.32, 1.62)"/><ellipse class="cls-65" cx="1113.05" cy="909.15" rx="152.57" ry="48.29" transform="translate(-1.32 1.62) rotate(-0.08)"/><ellipse class="cls-66" cx="1113.05" cy="909.15" rx="145.24" ry="45.97" transform="translate(-1.32 1.62) rotate(-0.08)"/><ellipse class="cls-67" cx="1113.05" cy="909.15" rx="137.92" ry="43.65" transform="translate(-1.32 1.62) rotate(-0.08)"/><ellipse class="cls-68" cx="1113.05" cy="909.15" rx="130.59" ry="41.33" transform="translate(-1.32 1.62) rotate(-0.08)"/><ellipse class="cls-69" cx="1113.05" cy="909.15" rx="123.26" ry="39.01" transform="translate(-1.32 1.62) rotate(-0.08)"/><ellipse class="cls-70" cx="1113.05" cy="909.15" rx="115.93" ry="36.69" transform="translate(-1.32 1.62) rotate(-0.08)"/><ellipse class="cls-71" cx="1113.05" cy="909.15" rx="108.6" ry="34.37" transform="translate(-1.32 1.62) rotate(-0.08)"/><ellipse class="cls-72" cx="1113.05" cy="909.15" rx="101.28" ry="32.05" transform="translate(-1.32 1.62) rotate(-0.08)"/><ellipse class="cls-73" cx="1113.05" cy="909.15" rx="93.95" ry="29.73" transform="matrix(1, 0, 0, 1, -1.32, 1.62)"/></g><g class="cls-46"><ellipse class="cls-47" cx="846.98" cy="1473.94" rx="284.47" ry="132.35" transform="translate(-2.15 1.24) rotate(-0.08)"/><ellipse class="cls-48" cx="846.98" cy="1473.94" rx="277.14" ry="128.94" transform="translate(-2.15 1.24) rotate(-0.08)"/><ellipse class="cls-49" cx="846.98" cy="1473.94" rx="269.81" ry="125.54" transform="translate(-2.15 1.24) rotate(-0.08)"/><ellipse class="cls-50" cx="846.98" cy="1473.94" rx="262.48" ry="122.13" transform="translate(-2.15 1.24) rotate(-0.08)"/><ellipse class="cls-51" cx="846.98" cy="1473.94" rx="255.16" ry="118.72" transform="translate(-2.15 1.24) rotate(-0.08)"/><ellipse class="cls-52" cx="846.98" cy="1473.94" rx="247.83" ry="115.31" transform="translate(-2.15 1.24) rotate(-0.08)"/><ellipse class="cls-53" cx="846.98" cy="1473.94" rx="240.5" ry="111.9" transform="translate(-2.15 1.24) rotate(-0.08)"/><ellipse class="cls-54" cx="846.98" cy="1473.94" rx="233.17" ry="108.49" transform="translate(-2.15 1.24) rotate(-0.08)"/><ellipse class="cls-55" cx="846.98" cy="1473.94" rx="225.85" ry="105.08" transform="translate(-2.15 1.24) rotate(-0.08)"/><ellipse class="cls-56" cx="846.98" cy="1473.94" rx="218.52" ry="101.67" transform="translate(-2.15 1.24) rotate(-0.08)"/><ellipse class="cls-57" cx="846.98" cy="1473.94" rx="211.19" ry="98.26" transform="translate(-2.15 1.24) rotate(-0.08)"/><ellipse class="cls-58" cx="846.98" cy="1473.94" rx="203.86" ry="94.85" transform="translate(-2.15 1.24) rotate(-0.08)"/><ellipse class="cls-59" cx="846.98" cy="1473.94" rx="196.54" ry="91.44" transform="translate(-2.15 1.24) rotate(-0.08)"/><ellipse class="cls-60" cx="846.98" cy="1473.94" rx="189.21" ry="88.03" transform="matrix(1, 0, 0, 1, -2.15, 1.24)"/><ellipse class="cls-61" cx="846.98" cy="1473.94" rx="181.88" ry="84.62" transform="translate(-2.15 1.24) rotate(-0.08)"/><ellipse class="cls-62" cx="846.98" cy="1473.94" rx="174.55" ry="81.21" transform="translate(-2.15 1.24) rotate(-0.08)"/><ellipse class="cls-63" cx="846.98" cy="1473.94" rx="167.23" ry="77.8" transform="translate(-2.15 1.24) rotate(-0.08)"/><ellipse class="cls-64" cx="846.98" cy="1473.94" rx="159.9" ry="74.4" transform="translate(-2.15 1.24) rotate(-0.08)"/><ellipse class="cls-65" cx="846.98" cy="1473.94" rx="152.57" ry="70.99" transform="translate(-2.15 1.24) rotate(-0.08)"/><ellipse class="cls-66" cx="846.98" cy="1473.94" rx="145.24" ry="67.58" transform="translate(-2.15 1.24) rotate(-0.08)"/><ellipse class="cls-67" cx="846.98" cy="1473.94" rx="137.92" ry="64.17" transform="translate(-2.15 1.24) rotate(-0.08)"/><ellipse class="cls-68" cx="846.98" cy="1473.94" rx="130.59" ry="60.76" transform="translate(-2.15 1.24) rotate(-0.08)"/><ellipse class="cls-69" cx="846.98" cy="1473.94" rx="123.26" ry="57.35" transform="translate(-2.16 1.24) rotate(-0.08)"/><ellipse class="cls-70" cx="846.98" cy="1473.94" rx="115.93" ry="53.94" transform="translate(-2.16 1.24) rotate(-0.08)"/><ellipse class="cls-71" cx="846.98" cy="1473.94" rx="108.6" ry="50.53" transform="translate(-2.16 1.24) rotate(-0.08)"/><ellipse class="cls-72" cx="846.98" cy="1473.94" rx="101.28" ry="47.12" transform="translate(-2.16 1.24) rotate(-0.08)"/><ellipse class="cls-73" cx="846.98" cy="1473.94" rx="93.95" ry="43.71" transform="translate(-2.16 1.24) rotate(-0.08)"/></g><path class="cls-119" d="M1143.5,823c-21.9,40.51-20.18,116.83,12.55,190.7,47.31,106.86,16.19,278.32-124.38,299.39s-120.35,244.46-120.35,244.46L682.49,1489s-18.72-231.65,117.86-252.14,166.8-187,120.82-290.84-28.89-212.7,29.37-213.84a76.63,76.63,0,0,1,17.32,1.6l.43.12,5.43,1.41.39.12,229.06,59.66a78.44,78.44,0,0,0-16.93-1.48c-18.3.39-32.65,11.1-42.43,28.85A4.82,4.82,0,0,0,1143.5,823Z"/><path class="cls-120" d="M1268.23,855.49,1144.48,822.6l-.67-.16c9.78-17.75,24.13-28.46,42.43-28.85a78.44,78.44,0,0,1,16.93,1.48l.27,0C1250.44,804.65,1268.23,855.49,1268.23,855.49Z"/><path class="cls-121" d="M1144.48,822.6l-1,.43a4.82,4.82,0,0,1,.31-.59Z"/><polygon class="cls-122" points="917.73 772.83 1121.5 824.53 1111.48 854.15 909.71 800.93 917.73 772.83"/><path class="cls-123" d="M1022.93,894.64l-95.81-24.9a6.06,6.06,0,0,1-4.3-5.54h0a3.27,3.27,0,0,1,4.3-3.31l95.81,24.9a6.07,6.07,0,0,1,4.31,5.54h0A3.27,3.27,0,0,1,1022.93,894.64Z"/><path class="cls-124" d="M1087.1,911.76,1048.28,901a6.06,6.06,0,0,1-4.3-5.55h0a3.26,3.26,0,0,1,4.3-3.3l38.82,10.75a6.07,6.07,0,0,1,4.3,5.54h0A3.27,3.27,0,0,1,1087.1,911.76Z"/><path class="cls-125" d="M1027.72,926l-95.81-24.9a6,6,0,0,1-4.3-5.54h0a3.27,3.27,0,0,1,4.3-3.31l95.81,24.9a6.07,6.07,0,0,1,4.3,5.54h0A3.27,3.27,0,0,1,1027.72,926Z"/><path class="cls-126" d="M1091.88,943.14l-38.82-10.75a6.07,6.07,0,0,1-4.3-5.55h0a3.26,3.26,0,0,1,4.3-3.3l38.82,10.75a6,6,0,0,1,4.3,5.54h0A3.27,3.27,0,0,1,1091.88,943.14Z"/><path class="cls-127" d="M1035.34,957.29l-95.81-24.9a6.07,6.07,0,0,1-4.3-5.55h0a3.26,3.26,0,0,1,4.3-3.3l95.81,24.9a6.06,6.06,0,0,1,4.31,5.54h0A3.28,3.28,0,0,1,1035.34,957.29Z"/><path class="cls-128" d="M1099.51,974.4l-38.82-10.75a6,6,0,0,1-4.3-5.54h0a3.27,3.27,0,0,1,4.3-3.31l38.82,10.75a6.07,6.07,0,0,1,4.3,5.55h0A3.26,3.26,0,0,1,1099.51,974.4Z"/><path class="cls-129" d="M1043.06,986.06l-95.81-24.9a6.06,6.06,0,0,1-4.3-5.54h0a3.26,3.26,0,0,1,4.3-3.31l95.81,24.9a6.06,6.06,0,0,1,4.3,5.54h0A3.27,3.27,0,0,1,1043.06,986.06Z"/><path class="cls-130" d="M1107.22,1003.18l-38.82-10.76a6.06,6.06,0,0,1-4.3-5.54h0a3.27,3.27,0,0,1,4.3-3.31l38.82,10.76a6,6,0,0,1,4.3,5.54h0A3.27,3.27,0,0,1,1107.22,1003.18Z"/><path class="cls-131" d="M1060.67,1055.48l-95.81-24.9a6,6,0,0,1-4.3-5.54h0a3.26,3.26,0,0,1,4.3-3.3l95.81,24.9a6,6,0,0,1,4.3,5.54h0A3.26,3.26,0,0,1,1060.67,1055.48Z"/><path class="cls-132" d="M1124.83,1072.6,1086,1061.85a6.07,6.07,0,0,1-4.31-5.54h0A3.27,3.27,0,0,1,1086,1053l38.81,10.75a6.07,6.07,0,0,1,4.31,5.55h0A3.27,3.27,0,0,1,1124.83,1072.6Z"/><path class="cls-133" d="M1068.29,1086.75l-95.8-24.9a6.07,6.07,0,0,1-4.31-5.54h0a3.27,3.27,0,0,1,4.31-3.31l95.8,24.9a6.07,6.07,0,0,1,4.31,5.54h0A3.27,3.27,0,0,1,1068.29,1086.75Z"/><path class="cls-134" d="M1132.46,1103.87l-38.82-10.76a6,6,0,0,1-4.3-5.54h0a3.26,3.26,0,0,1,4.3-3.3l38.82,10.75a6,6,0,0,1,4.3,5.54h0A3.27,3.27,0,0,1,1132.46,1103.87Z"/><path class="cls-135" d="M1066.22,1112.32l-95.81-24.9a6.06,6.06,0,0,1-4.3-5.54h0a3.27,3.27,0,0,1,4.3-3.31l95.81,24.9a6.07,6.07,0,0,1,4.31,5.54h0A3.27,3.27,0,0,1,1066.22,1112.32Z"/><path class="cls-136" d="M1130.39,1129.44l-38.82-10.75a6.06,6.06,0,0,1-4.3-5.55h0a3.26,3.26,0,0,1,4.3-3.3l38.82,10.75a6.07,6.07,0,0,1,4.3,5.54h0A3.27,3.27,0,0,1,1130.39,1129.44Z"/><path class="cls-137" d="M1034.14,1210.92,938.33,1186a6,6,0,0,1-4.3-5.54h0a3.26,3.26,0,0,1,4.3-3.3l95.81,24.9a6,6,0,0,1,4.3,5.54h0A3.26,3.26,0,0,1,1034.14,1210.92Z"/><path class="cls-138" d="M1098.31,1228l-38.82-10.75a6,6,0,0,1-4.3-5.54h0a3.27,3.27,0,0,1,4.3-3.31l38.82,10.75a6.07,6.07,0,0,1,4.3,5.55h0A3.26,3.26,0,0,1,1098.31,1228Z"/><path class="cls-139" d="M1016.27,1232l-95.81-24.9a6,6,0,0,1-4.3-5.54h0a3.27,3.27,0,0,1,4.3-3.31l95.81,24.9a6.06,6.06,0,0,1,4.3,5.54h0A3.26,3.26,0,0,1,1016.27,1232Z"/><path class="cls-140" d="M1080.43,1249.08l-38.81-10.75a6.07,6.07,0,0,1-4.31-5.55h0a3.27,3.27,0,0,1,4.31-3.3l38.81,10.75a6.07,6.07,0,0,1,4.31,5.54h0A3.27,3.27,0,0,1,1080.43,1249.08Z"/><path class="cls-141" d="M986.72,1252.13l-95.81-24.9a6.06,6.06,0,0,1-4.3-5.54h0a3.27,3.27,0,0,1,4.3-3.31l95.81,24.9a6.07,6.07,0,0,1,4.3,5.54h0A3.27,3.27,0,0,1,986.72,1252.13Z"/><path class="cls-142" d="M1050.88,1269.25l-38.81-10.76a6,6,0,0,1-4.31-5.54h0a3.27,3.27,0,0,1,4.31-3.3l38.81,10.75a6.06,6.06,0,0,1,4.31,5.54h0A3.28,3.28,0,0,1,1050.88,1269.25Z"/><path class="cls-143" d="M847.69,1335.49l-95.81-24.9a6.06,6.06,0,0,1-4.3-5.54h0a3.27,3.27,0,0,1,4.3-3.31l95.81,24.9a6.06,6.06,0,0,1,4.3,5.54h0A3.26,3.26,0,0,1,847.69,1335.49Z"/><path class="cls-144" d="M911.86,1352.61,873,1341.86a6.06,6.06,0,0,1-4.3-5.55h0a3.26,3.26,0,0,1,4.3-3.3l38.82,10.75a6.07,6.07,0,0,1,4.3,5.54h0A3.27,3.27,0,0,1,911.86,1352.61Z"/><path class="cls-145" d="M830.27,1373.32l-95.81-24.9a6.06,6.06,0,0,1-4.3-5.55h0a3.26,3.26,0,0,1,4.3-3.3l95.81,24.9a6.06,6.06,0,0,1,4.3,5.54h0A3.27,3.27,0,0,1,830.27,1373.32Z"/><path class="cls-146" d="M894.43,1390.43l-38.82-10.75a6.06,6.06,0,0,1-4.3-5.54h0a3.27,3.27,0,0,1,4.3-3.31l38.82,10.76a6,6,0,0,1,4.3,5.54h0A3.26,3.26,0,0,1,894.43,1390.43Z"/><path class="cls-147" d="M819.29,1413.76l-95.8-24.9a6.07,6.07,0,0,1-4.31-5.55h0a3.27,3.27,0,0,1,4.31-3.3l95.8,24.9a6.06,6.06,0,0,1,4.31,5.54h0A3.28,3.28,0,0,1,819.29,1413.76Z"/><path class="cls-148" d="M883.46,1430.87l-38.82-10.75a6.06,6.06,0,0,1-4.3-5.54h0a3.27,3.27,0,0,1,4.3-3.31L883.46,1422a6,6,0,0,1,4.3,5.54h0A3.26,3.26,0,0,1,883.46,1430.87Z"/><polygon class="cls-149" points="955.93 1129.58 1144.48 1170.32 1134.69 1193.77 942.95 1148.21 955.93 1129.58"/><polygon class="cls-150" points="715.57 1415.19 886.61 1463.57 884.77 1492.73 712.83 1442.52 715.57 1415.19"/><g class="cls-46"><ellipse class="cls-47" cx="1559.35" cy="1886.12" rx="284.47" ry="119.81" transform="translate(-2.73 2.26) rotate(-0.08)"/><ellipse class="cls-48" cx="1559.35" cy="1886.12" rx="277.14" ry="116.72" transform="translate(-2.73 2.26) rotate(-0.08)"/><ellipse class="cls-49" cx="1559.35" cy="1886.12" rx="269.81" ry="113.63" transform="translate(-2.73 2.26) rotate(-0.08)"/><ellipse class="cls-50" cx="1559.35" cy="1886.12" rx="262.48" ry="110.55" transform="translate(-2.73 2.26) rotate(-0.08)"/><ellipse class="cls-51" cx="1559.35" cy="1886.12" rx="255.16" ry="107.46" transform="translate(-2.73 2.26) rotate(-0.08)"/><ellipse class="cls-52" cx="1559.35" cy="1886.12" rx="247.83" ry="104.38" transform="translate(-2.73 2.26) rotate(-0.08)"/><ellipse class="cls-53" cx="1559.35" cy="1886.12" rx="240.5" ry="101.29" transform="translate(-2.73 2.26) rotate(-0.08)"/><ellipse class="cls-54" cx="1559.35" cy="1886.12" rx="233.17" ry="98.2" transform="translate(-2.73 2.26) rotate(-0.08)"/><ellipse class="cls-55" cx="1559.35" cy="1886.12" rx="225.85" ry="95.12" transform="translate(-2.73 2.26) rotate(-0.08)"/><ellipse class="cls-56" cx="1559.35" cy="1886.12" rx="218.52" ry="92.03" transform="translate(-2.73 2.26) rotate(-0.08)"/><ellipse class="cls-57" cx="1559.35" cy="1886.12" rx="211.19" ry="88.95" transform="translate(-2.73 2.26) rotate(-0.08)"/><ellipse class="cls-58" cx="1559.35" cy="1886.12" rx="203.86" ry="85.86" transform="translate(-2.73 2.26) rotate(-0.08)"/><ellipse class="cls-59" cx="1559.35" cy="1886.12" rx="196.54" ry="82.77" transform="matrix(1, 0, 0, 1, -2.73, 2.26)"/><ellipse class="cls-60" cx="1559.35" cy="1886.12" rx="189.21" ry="79.69" transform="translate(-2.73 2.26) rotate(-0.08)"/><ellipse class="cls-61" cx="1559.35" cy="1886.12" rx="181.88" ry="76.6" transform="matrix(1, 0, 0, 1, -2.73, 2.26)"/><ellipse class="cls-62" cx="1559.35" cy="1886.12" rx="174.55" ry="73.52" transform="translate(-2.74 2.27) rotate(-0.08)"/><ellipse class="cls-63" cx="1559.35" cy="1886.12" rx="167.23" ry="70.43" transform="translate(-2.74 2.27) rotate(-0.08)"/><ellipse class="cls-64" cx="1559.35" cy="1886.12" rx="159.9" ry="67.34" transform="translate(-2.74 2.27) rotate(-0.08)"/><ellipse class="cls-65" cx="1559.35" cy="1886.12" rx="152.57" ry="64.26" transform="translate(-2.74 2.27) rotate(-0.08)"/><ellipse class="cls-66" cx="1559.34" cy="1886.12" rx="145.24" ry="61.17" transform="translate(-2.74 2.27) rotate(-0.08)"/><ellipse class="cls-67" cx="1559.34" cy="1886.12" rx="137.92" ry="58.08" transform="translate(-2.74 2.27) rotate(-0.08)"/><ellipse class="cls-68" cx="1559.34" cy="1886.12" rx="130.59" ry="55" transform="translate(-2.74 2.27) rotate(-0.08)"/><ellipse class="cls-69" cx="1559.34" cy="1886.12" rx="123.26" ry="51.91" transform="translate(-2.74 2.27) rotate(-0.08)"/><ellipse class="cls-70" cx="1559.34" cy="1886.12" rx="115.93" ry="48.83" transform="translate(-2.74 2.27) rotate(-0.08)"/><ellipse class="cls-71" cx="1559.34" cy="1886.12" rx="108.6" ry="45.74" transform="translate(-2.74 2.27) rotate(-0.08)"/><ellipse class="cls-72" cx="1559.34" cy="1886.12" rx="101.28" ry="42.65" transform="translate(-2.74 2.27) rotate(-0.08)"/><ellipse class="cls-73" cx="1559.34" cy="1886.12" rx="93.95" ry="39.57" transform="translate(-2.75 2.27) rotate(-0.08)"/></g><polygon class="cls-151" points="1728.67 1273.7 1298.58 1318.19 1342.67 1864.92 1772.96 1779.31 1728.67 1273.7"/><polygon class="cls-152" points="1298.58 1318.19 1241.1 1273.97 1241.09 1766.31 1298.59 1766.31 1342.67 1864.92 1298.58 1318.19"/><polygon class="cls-153" points="1728.67 1273.7 1654.12 1225.13 1241.1 1273.97 1298.58 1318.19 1728.67 1273.7"/><polygon class="cls-154" points="1298.59 1766.31 1272.33 1297.99 1241.1 1273.97 1241.09 1766.31 1298.59 1766.31"/><polygon class="cls-155" points="1654.12 1225.13 1656.71 1281.14 1728.67 1273.7 1654.12 1225.13"/><circle class="cls-156" cx="1630.73" cy="1348.19" r="23.36" transform="translate(-462.32 1658.11) rotate(-48)"/><circle class="cls-157" cx="1407.86" cy="1387.89" r="23.36" transform="translate(-500.65 872.24) rotate(-29.47)"/><path class="cls-37" d="M1523.89,1644.91a112.34,112.34,0,0,0,21.86-2.15l23.25-4.63a105.57,105.57,0,0,0,84.68-112.9l-15.46-176.4a7.82,7.82,0,1,0-15.59,1.36l15.46,176.4a89.94,89.94,0,0,1-72.15,96.19l-23.25,4.63a96.53,96.53,0,0,1-115.06-87.12l-12.1-154.18a7.82,7.82,0,0,0-15.6,1.23L1412,1541.51a112.17,112.17,0,0,0,111.87,103.4Z"/><polygon class="cls-158" points="1693.83 1493.58 1388.34 1525.17 1419.66 1945.27 1725.29 1884.46 1693.83 1493.58"/><polygon class="cls-159" points="1388.34 1525.17 1347.52 1493.77 1347.51 1875.23 1388.35 1875.23 1419.66 1945.27 1388.34 1525.17"/><polygon class="cls-160" points="1693.83 1493.58 1640.88 1459.08 1347.52 1493.77 1388.34 1525.17 1693.83 1493.58"/><polygon class="cls-161" points="1388.35 1875.23 1369.7 1510.83 1347.52 1493.77 1347.51 1875.23 1388.35 1875.23"/><polygon class="cls-162" points="1640.88 1459.08 1642.72 1498.86 1693.83 1493.58 1640.88 1459.08"/><circle class="cls-163" cx="1624.27" cy="1546.49" r="16.59"/><circle class="cls-164" cx="1465.97" cy="1574.68" r="16.59" transform="translate(-642.96 1149.1) rotate(-35.64)"/><path class="cls-37" d="M1548.38,1757.24a79.13,79.13,0,0,0,15.52-1.53l16.52-3.28a75,75,0,0,0,60.14-80.2l-11-125.29a5.56,5.56,0,0,0-11.08,1l11,125.29a63.9,63.9,0,0,1-51.24,68.33l-16.52,3.28a68.56,68.56,0,0,1-81.73-61.88l-8.59-109.51a5.56,5.56,0,0,0-11.08.87l8.59,109.51a79.67,79.67,0,0,0,79.46,73.44Z"/><g class="cls-96"><ellipse class="cls-47" cx="1528.26" cy="1162.81" rx="236.14" ry="74.74" transform="translate(-1.68 2.22) rotate(-0.08)"/><ellipse class="cls-48" cx="1528.26" cy="1162.81" rx="230.06" ry="72.81" transform="translate(-1.68 2.22) rotate(-0.08)"/><ellipse class="cls-49" cx="1528.26" cy="1162.81" rx="223.98" ry="70.88" transform="translate(-1.68 2.22) rotate(-0.08)"/><ellipse class="cls-50" cx="1528.26" cy="1162.81" rx="217.89" ry="68.96" transform="translate(-1.68 2.22) rotate(-0.08)"/><ellipse class="cls-51" cx="1528.26" cy="1162.81" rx="211.81" ry="67.03" transform="translate(-1.68 2.22) rotate(-0.08)"/><ellipse class="cls-52" cx="1528.26" cy="1162.81" rx="205.73" ry="65.11" transform="translate(-1.68 2.22) rotate(-0.08)"/><ellipse class="cls-53" cx="1528.26" cy="1162.81" rx="199.65" ry="63.18" transform="translate(-1.68 2.22) rotate(-0.08)"/><ellipse class="cls-54" cx="1528.26" cy="1162.81" rx="193.56" ry="61.26" transform="translate(-1.68 2.22) rotate(-0.08)"/><ellipse class="cls-55" cx="1528.26" cy="1162.81" rx="187.48" ry="59.33" transform="translate(-1.68 2.22) rotate(-0.08)"/><ellipse class="cls-56" cx="1528.26" cy="1162.81" rx="181.4" ry="57.41" transform="translate(-1.68 2.22) rotate(-0.08)"/><ellipse class="cls-57" cx="1528.26" cy="1162.81" rx="175.31" ry="55.48" transform="translate(-1.68 2.22) rotate(-0.08)"/><ellipse class="cls-58" cx="1528.26" cy="1162.81" rx="169.23" ry="53.56" transform="translate(-1.68 2.22) rotate(-0.08)"/><ellipse class="cls-59" cx="1528.26" cy="1162.81" rx="163.15" ry="51.63" transform="translate(-1.68 2.22) rotate(-0.08)"/><ellipse class="cls-60" cx="1528.26" cy="1162.81" rx="157.07" ry="49.71" transform="matrix(1, 0, 0, 1, -1.69, 2.22)"/><ellipse class="cls-61" cx="1528.26" cy="1162.81" rx="150.98" ry="47.78" transform="matrix(1, 0, 0, 1, -1.69, 2.22)"/><ellipse class="cls-62" cx="1528.26" cy="1162.81" rx="144.9" ry="45.86" transform="translate(-1.69 2.22) rotate(-0.08)"/><ellipse class="cls-63" cx="1528.26" cy="1162.81" rx="138.82" ry="43.93" transform="translate(-1.69 2.22) rotate(-0.08)"/><ellipse class="cls-64" cx="1528.26" cy="1162.81" rx="132.73" ry="42.01" transform="translate(-1.69 2.22) rotate(-0.08)"/><ellipse class="cls-65" cx="1528.26" cy="1162.81" rx="126.65" ry="40.08" transform="translate(-1.69 2.22) rotate(-0.08)"/><ellipse class="cls-66" cx="1528.26" cy="1162.81" rx="120.57" ry="38.16" transform="translate(-1.69 2.22) rotate(-0.08)"/><ellipse class="cls-67" cx="1528.26" cy="1162.81" rx="114.49" ry="36.23" transform="translate(-1.69 2.22) rotate(-0.08)"/><ellipse class="cls-68" cx="1528.26" cy="1162.81" rx="108.4" ry="34.31" transform="translate(-1.69 2.22) rotate(-0.08)"/><ellipse class="cls-69" cx="1528.26" cy="1162.81" rx="102.32" ry="32.38" transform="translate(-1.69 2.22) rotate(-0.08)"/><ellipse class="cls-70" cx="1528.26" cy="1162.81" rx="96.24" ry="30.46" transform="translate(-1.69 2.22) rotate(-0.08)"/><ellipse class="cls-71" cx="1528.26" cy="1162.81" rx="90.16" ry="28.53" transform="translate(-1.69 2.22) rotate(-0.08)"/><ellipse class="cls-72" cx="1528.26" cy="1162.81" rx="84.07" ry="26.61" transform="translate(-1.69 2.22) rotate(-0.08)"/><ellipse class="cls-73" cx="1528.26" cy="1162.81" rx="77.99" ry="24.68" transform="translate(-1.69 2.22) rotate(-0.08)"/></g><path class="cls-165" d="M1376.75,887.49l221.94,45.21a26,26,0,0,1,19.93,32l-57,219a19.73,19.73,0,0,1-23.44,14.27l-224.43-50.67a27.3,27.3,0,0,1-20.37-33.62l55.31-208.73A24,24,0,0,1,1376.75,887.49Z"/><path class="cls-166" d="M1373.85,882.67l221.94,45.2a25.94,25.94,0,0,1,19.93,32l-57,219a19.72,19.72,0,0,1-23.43,14.27l-224.43-50.67a27.29,27.29,0,0,1-20.38-33.61l55.32-208.74A24,24,0,0,1,1373.85,882.67Z"/><path class="cls-37" d="M1443.67,1003c-4.93,27.55-23.49,38.54-41.39,35.34-18.29-3.27-30.66-20-26.36-45.18,4.42-24.73,21.61-38.46,41.72-34.86C1438.35,962,1447.88,979.49,1443.67,1003Zm-50.81,90.3,100-121.55,14.07,2.52-100,121.55Zm2.1-97.56c-2.9,15,.56,27.07,10.41,28.83s16.54-7.82,19.39-23.71c2.59-14.48.65-26.86-10-28.76C1404.7,970.32,1397.59,981.08,1395,995.76ZM1524,1073.42c-4.89,27.35-23.29,38.58-41.39,35.34s-30.66-20-26.13-45.34c4.39-24.53,21.62-38.46,41.52-34.9C1518.75,1032.22,1528.25,1049.9,1524,1073.42Zm-48.71-7.26c-2.86,14.85.55,27.08,10.4,28.84,10.06,1.8,16.55-7.83,19.39-23.72,2.63-14.67.66-26.85-10-28.76C1485.07,1040.72,1478,1051.48,1475.33,1066.16Z"/><path class="cls-167" d="M920.51,315.73A187.07,187.07,0,0,1,900.82,341c-72.55,78.32-200.63,89.1-200.63,89.1-53.42-39.8-107.4-99-120.8-153.81-22.16-90.69,25.31-175.47,25.31-175.47l16.72-4.11,31.78-7.8a286.85,286.85,0,0,0,83.58-35.68l48.79-30.56,2.93-1.82L798,31.24l24.19,26.55A253.07,253.07,0,0,0,903.9,117.5l55.15,25.24S986.19,214.42,920.51,315.73Z"/><path class="cls-168" d="M925.19,294.92a186.27,186.27,0,0,1-19.69,25.23c-72.54,78.32-200.63,89.1-200.63,89.1-53.41-39.79-107.4-99-120.8-153.8C561.91,164.75,609.38,80,609.38,80l16.72-4.12,31.78-7.8a286.58,286.58,0,0,0,83.58-35.68L790.25,1.82,793.18,0l9.5,10.43L826.87,37a253.07,253.07,0,0,0,81.71,59.71l55.15,25.24S990.87,193.61,925.19,294.92Z"/><path class="cls-169" d="M908,283.31A167.17,167.17,0,0,1,890.4,305.8c-14.64,15.8-31.79,28.63-49.69,39.05-51.83,30.2-109.84,40.12-130.35,42.82C655.5,345.17,614.1,292.06,604,250.8c-16.37-67,9.47-131.39,19.55-152.85l39.51-9.68a305,305,0,0,0,85.94-36c1.17-.68,2.33-1.39,3.49-2.13l37.34-23.38,22.06,24.19A273.44,273.44,0,0,0,900.4,115.6l46.14,21.11C950.54,156.28,955.12,210.56,908,283.31Z"/><path class="cls-37" d="M756.09,133.86c-44.37,8.53-76.61,50.49-72,93.73s44.28,71.35,88.64,62.82,76.61-50.5,72-93.73S800.45,125.32,756.09,133.86Zm15.28,143.87c-37.19,7.16-70.45-16.42-74.3-52.65s23.18-71.4,60.36-78.55,70.45,16.42,74.29,52.65S808.55,270.58,771.37,277.73Z"/><polygon class="cls-37" points="731.52 197.38 755.52 245.08 812.81 199.66 805.52 188.97 761.96 222.08 744.89 189.09 731.52 197.38"/><path class="cls-170" d="M908,283.31A167.17,167.17,0,0,1,890.4,305.8c-14.64,15.8-31.79,28.63-49.69,39.05C795.87,300.72,762.18,236.17,750,161.28a354.09,354.09,0,0,1-1-109c1.17-.68,2.33-1.39,3.49-2.13l37.34-23.38,22.06,24.19A273.44,273.44,0,0,0,900.4,115.6l46.14,21.11C950.54,156.28,955.12,210.56,908,283.31Z"/><ellipse class="cls-171" cx="458.72" cy="585.81" rx="102.32" ry="92.59" transform="translate(-272.08 725.54) rotate(-62.76)"/><path class="cls-172" d="M442,676.8c-52.31,4.12-94.41-37.34-94.05-92.62a109.25,109.25,0,0,1,2.16-20.86c9.32-46,47.6-83.08,93.2-86.68,40.88-3.21,75.51,21.41,88.53,58.71a100.25,100.25,0,0,1,5.52,33.93C537,624.55,494.3,672.69,442,676.8Z"/><path class="cls-173" d="M531.84,535.35c-9.31,46-47.62,83.06-93.19,86.65-40.87,3.23-75.52-21.39-88.54-58.68,9.32-46,47.6-83.08,93.2-86.68C484.19,473.43,518.82,498.05,531.84,535.35Z"/><polygon class="cls-37" points="411.45 544.06 417.85 607.23 483.03 585.45 481.39 566.38 431.91 583.6 427.28 538.57 411.45 544.06"/></g></g></svg>