<svg xmlns="http://www.w3.org/2000/svg" viewBox="0 0 458.54 460.93"><defs><style>.cls-1{fill:#2451b5;}.cls-2{fill:#fff;}</style></defs><g id="Layer_2" data-name="Layer 2"><g id="FOREGROUND"><path class="cls-1" d="M240.73,10.33,240.9,12c1.29,12.38,18.59,14.2,22.42,2.36l.51-1.59c4.27-13.18,23.88-9,22.42,4.76l-.18,1.66c-1.31,12.38,15.23,17.76,21.44,7l.83-1.45c6.91-12,25.23-3.84,20.94,9.32l-.52,1.59C324.9,47.45,340,56.14,348.28,46.88l1.12-1.24c9.25-10.3,25.47,1.48,18.54,13.47l-.84,1.44c-6.24,10.78,6.68,22.41,16.75,15.08l1.35-1c11.19-8.15,24.61,6.75,15.33,17l-1.12,1.24c-8.34,9.24,1.88,23.31,13.25,18.24l1.53-.69c12.64-5.64,22.67,11.72,11.46,19.85l-1.36,1c-10.08,7.31-3,23.19,9.17,20.59l1.64-.35c13.54-2.89,19.73,16.18,7.08,21.8l-1.53.67c-11.38,5.06-7.76,22.07,4.69,22.05H447c13.84,0,15.94,19.93,2.39,22.79l-1.63.35c-12.18,2.57-12.18,20,0,22.54l1.63.34C463,245,460.85,264.89,447,264.87h-1.67c-12.45,0-16.07,17-4.69,22.05l1.53.68c12.65,5.61,6.46,24.68-7.08,21.79l-1.64-.35c-12.17-2.6-19.25,13.28-9.17,20.59l1.36,1c11.21,8.13,1.18,25.49-11.46,19.85l-1.53-.68c-11.37-5.08-21.59,9-13.25,18.23l1.12,1.24c9.28,10.28-4.14,25.18-15.33,17l-1.35-1c-10.07-7.33-23,4.31-16.75,15.08l.84,1.45c6.93,12-9.29,23.77-18.54,13.47l-1.12-1.25c-8.32-9.26-23.38-.56-19.52,11.27l.52,1.59c4.29,13.16-14,21.32-20.94,9.32l-.83-1.44c-6.21-10.8-22.75-5.42-21.44,7l.18,1.66c1.46,13.77-18.15,17.94-22.42,4.77l-.51-1.59c-3.83-11.85-21.13-10-22.42,2.35l-.17,1.66c-1.43,13.78-21.48,13.78-22.92,0l-.17-1.66c-1.29-12.38-18.58-14.2-22.42-2.35l-.51,1.59c-4.26,13.17-23.88,9-22.41-4.77l.17-1.66c1.32-12.38-15.22-17.76-21.44-7l-.83,1.44c-6.91,12-25.23,3.84-20.93-9.32l.52-1.59c3.86-11.83-11.2-20.53-19.53-11.27l-1.11,1.25c-9.25,10.3-25.48-1.49-18.54-13.47l.84-1.45c6.23-10.77-6.69-22.41-16.76-15.08l-1.35,1c-11.19,8.15-24.6-6.75-15.33-17L59.13,368c8.34-9.24-1.88-23.31-13.25-18.23l-1.52.68c-12.65,5.64-22.67-11.72-11.46-19.85l1.35-1c10.08-7.31,3-23.19-9.17-20.59l-1.63.35c-13.54,2.89-19.74-16.18-7.08-21.79l1.52-.68c11.39-5.05,7.77-22.06-4.68-22.05H11.54c-13.85,0-15.94-19.92-2.4-22.79l1.64-.34c12.18-2.58,12.18-20,0-22.54l-1.64-.35C-4.4,216-2.31,196,11.54,196.06h1.67c12.45,0,16.07-17,4.68-22.05l-1.52-.67c-12.66-5.62-6.46-24.69,7.08-21.8l1.63.35c12.18,2.6,19.25-13.28,9.17-20.59l-1.35-1c-11.21-8.13-1.19-25.49,11.46-19.85l1.52.69c11.37,5.07,21.59-9,13.25-18.24L58,91.68c-9.27-10.28,4.14-25.18,15.33-17l1.35,1c10.07,7.33,23-4.3,16.76-15.08l-.84-1.44c-6.94-12,9.29-23.77,18.54-13.47l1.11,1.24c8.33,9.26,23.39.57,19.53-11.27L129.27,34c-4.3-13.16,14-21.32,20.93-9.32l.83,1.45c6.22,10.79,22.76,5.41,21.44-7l-.17-1.66c-1.47-13.77,18.15-17.94,22.41-4.76l.51,1.59c3.84,11.84,21.13,10,22.42-2.36l.17-1.66C219.25-3.44,239.3-3.44,240.73,10.33Z"/><rect class="cls-2" x="30.34" y="199.97" width="397.87" height="71.62" rx="11.65"/><circle class="cls-2" cx="229.27" cy="227.37" r="176.68" transform="translate(-93.62 228.71) rotate(-45)"/><path class="cls-1" d="M130,173.86h4.41v8.94q-3.69,4.06-10.58,4.07a13.38,13.38,0,0,1-9.71-3.81,13.86,13.86,0,0,1,.08-19.38,13.29,13.29,0,0,1,9.63-3.89,13.7,13.7,0,0,1,9.39,3.29l-2.36,3.37a9.1,9.1,0,0,0-3.08-1.81,11.61,11.61,0,0,0-3.61-.51,9.31,9.31,0,0,0-6.66,2.56,9.21,9.21,0,0,0,6.27,16A11.3,11.3,0,0,0,130,181Z"/><path class="cls-1" d="M146.13,180.59a6.7,6.7,0,0,0,9.72,0,8.44,8.44,0,0,0,1.8-5.69V160.43h4.41v14.66c0,3.77-1,6.66-3.11,8.7a11.93,11.93,0,0,1-15.93,0c-2.07-2-3.1-4.93-3.1-8.7V160.43h4.41V174.9A8.44,8.44,0,0,0,146.13,180.59Z"/><path class="cls-1" d="M172.05,180.63l-2.62,5.94h-4.71l11.52-26.14H181l11.52,26.14h-4.71l-2.62-5.94Zm11.29-4.08-4.75-10.77-4.75,10.77Z"/><path class="cls-1" d="M217,168.92q0,6.47-5.65,8.15l6.85,9.5h-5.61l-6.25-8.79h-5.8v8.79H196.1V160.43h9.72q6,0,8.57,2T217,168.92Zm-5.87,3.7a4.68,4.68,0,0,0,1.34-3.72c0-1.71-.46-2.88-1.38-3.52s-2.57-.95-4.94-.95h-5.61v9.35H206Q209.75,173.78,211.1,172.62Z"/><path class="cls-1" d="M227,180.63l-2.62,5.94H219.7l11.52-26.14h4.71l11.52,26.14h-4.71l-2.62-5.94Zm11.3-4.08-4.75-10.77-4.75,10.77Z"/><path class="cls-1" d="M270.68,160.43h4.42v26.14h-4.79L255.5,167.5v19.07h-4.42V160.43h4.42L270.68,180Z"/><path class="cls-1" d="M292.23,164.47v22.1h-4.42v-22.1h-7.92v-4h20.27v4Z"/><path class="cls-1" d="M323.31,160.43v4.15H309.36v6.92h12.53v3.93H309.36v7h14.4v4.15H304.94V160.43Z"/><path class="cls-1" d="M347.77,160.43v4.15H333.82v6.92h12.53v3.93H333.82v7h14.4v4.15H329.41V160.43Z"/><path class="cls-1" d="M72.48,250a15.76,15.76,0,0,0,12.86-6.23l6.84,7.05Q84,259.95,73,259.94T54.8,253a25.28,25.28,0,0,1,.13-35.37,24.57,24.57,0,0,1,17.82-7.12,25.29,25.29,0,0,1,19.71,9L85.82,227a15.57,15.57,0,0,0-12.59-6.29,14.71,14.71,0,0,0-10.3,3.93q-4.27,3.93-4.27,10.6t4,10.71A13.32,13.32,0,0,0,72.48,250Z"/><path class="cls-1" d="M135.07,211.58v9.51h-23.8v9.85h21.41V240H111.27V250h24.56v9.44H100.59V211.58Z"/><path class="cls-1" d="M184.12,227.45q0,11.49-9.1,14.84l12.11,17.11H174l-10.61-15.26H156V259.4H145.33V211.58h18.13q11.16,0,15.91,3.76T184.12,227.45Zm-12.86,5.68q2-1.78,2-5.65t-2.05-5.3c-1.37-1-3.76-1.43-7.18-1.43h-8v14.16h7.79C167.45,234.91,169.94,234.31,171.26,233.13Z"/><path class="cls-1" d="M214.36,220.81V259.4H203.69V220.81H190.14v-9.23H227.9v9.23Z"/><path class="cls-1" d="M235.7,211.58h10.67V259.4H235.7Z"/><path class="cls-1" d="M291,211.58V221H268.81v10.33h21.07v9.37H268.81V259.4H258.14V211.58Z"/><path class="cls-1" d="M300,211.58h10.67V259.4H300Z"/><path class="cls-1" d="M356.92,211.58v9.51h-23.8v9.85h21.41V240H333.12V250h24.56v9.44H322.45V211.58Z"/><path class="cls-1" d="M403.72,217.84q6.84,6.25,6.84,17.41t-6.67,17.65q-6.67,6.5-20.35,6.5H367.19V211.58h16.89Q396.88,211.58,403.72,217.84Zm-7.84,28.42q3.94-3.69,3.94-10.74t-3.94-10.84q-3.93-3.8-12.07-3.8h-5.95V250h6.77Q392,250,395.88,246.26Z"/><path class="cls-1" d="M126,288.7Q130,292,130,298.82t-4,10q-4,3.18-12.29,3.17H107v11h-6.35V285.42h12.92C119.24,285.42,123.41,286.51,126,288.7Zm-4.49,15.53a8.33,8.33,0,0,0,1.91-5.92q0-3.9-2.42-5.52t-7.59-1.61H107v15.06h7.38C117.86,306.24,120.26,305.57,121.53,304.23Z"/><path class="cls-1" d="M167.46,297.64q0,9.3-8.13,11.73L169.18,323h-8.07l-9-12.65h-8.34V323h-6.35V285.42h14q8.61,0,12.33,2.9T167.46,297.64ZM159,303q1.94-1.66,1.94-5.35c0-2.46-.67-4.15-2-5.06s-3.7-1.37-7.11-1.37h-8.07v13.45h7.91Q157.07,304.63,159,303Z"/><path class="cls-1" d="M208.09,317.84a20.63,20.63,0,0,1-28.2,0,19.76,19.76,0,0,1,0-27.77,20.66,20.66,0,0,1,28.2,0,19.76,19.76,0,0,1,0,27.77Zm-4.66-23.54a13.19,13.19,0,0,0-18.88,0,14,14,0,0,0,0,19.32,13.19,13.19,0,0,0,18.88,0,14,14,0,0,0,0-19.32Z"/><path class="cls-1" d="M250.28,290.34q5.43,4.94,5.43,13.7t-5.27,13.88Q245.16,323,234.3,323H221.81V285.42h12.92Q244.84,285.42,250.28,290.34Zm-1,13.86q0-12.92-14.8-12.91h-6.35v25.77h7.05c4.56,0,8-1.08,10.47-3.25S249.31,308.43,249.31,304.2Z"/><path class="cls-1" d="M272.34,314.43a9.63,9.63,0,0,0,14,0,12.18,12.18,0,0,0,2.59-8.19V285.42h6.35v21.09q0,8.13-4.47,12.52a17.2,17.2,0,0,1-22.93,0q-4.47-4.39-4.46-12.52V285.42h6.35v20.82Q269.76,311.41,272.34,314.43Z"/><path class="cls-1" d="M322.39,317.28a13.24,13.24,0,0,0,5.65-1.11,19.51,19.51,0,0,0,4.95-3.52l4.09,4.2a18.85,18.85,0,0,1-14.51,6.62A19.44,19.44,0,0,1,308.42,318a20,20,0,0,1,.11-27.88A19.86,19.86,0,0,1,323,284.51,19,19,0,0,1,337.62,291l-4,4.42a17.51,17.51,0,0,0-5.09-3.61,14.24,14.24,0,0,0-5.62-1,13.39,13.39,0,0,0-9.58,3.68,12.45,12.45,0,0,0-3.87,9.42,13,13,0,0,0,3.84,9.58A12.47,12.47,0,0,0,322.39,317.28Z"/><path class="cls-1" d="M359,291.23V323h-6.35V291.23H341.27v-5.81h29.17v5.81Z"/><polygon class="cls-1" points="219.09 149.1 162.88 92.9 174.64 81.13 219.09 125.58 302.08 42.59 313.84 54.35 219.09 149.1"/></g></g></svg>