<svg xmlns="http://www.w3.org/2000/svg" viewBox="0 0 648.68 583.56"><defs><style>.cls-1{fill:#36a9e1;}.cls-2{fill:#fff;}</style></defs><g id="Layer_2" data-name="Layer 2"><g id="OBJECTS"><path class="cls-1" d="M121,235.3c24.7-89.11,106.38-154.54,203.36-154.54S503,146.19,527.7,235.3h82.94C584.33,101.19,466.16,0,324.34,0S64.35,101.19,38,235.3Z"/><path class="cls-1" d="M527.7,348.26C503,437.37,421.32,502.8,324.34,502.8S145.68,437.37,121,348.26H38c26.31,134.11,144.48,235.3,286.3,235.3s260-101.19,286.3-235.3Z"/><path class="cls-1" d="M299.19,479.32,256.76,436.9A11.93,11.93,0,0,1,273.63,420l25.56,25.56,75.86-75.86a11.93,11.93,0,1,1,16.87,16.87Z"/><path class="cls-1" d="M81.23,309.54l16-53h16.16L88.83,327H73.68L49.24,256.55H65.36Z"/><path class="cls-1" d="M182.21,296.47H154.33v18.88h32.72V327H139.82V256.55H187v11.76H154.33V285.1h27.88Z"/><path class="cls-1" d="M241.47,301.21H229.91V327H215.39V256.55h26.18q12.48,0,19.26,5.56t6.77,15.73a21.69,21.69,0,0,1-3.12,12,21.3,21.3,0,0,1-9.46,7.67l15.25,28.79V327H254.68Zm-11.56-11.76h11.71c3.64,0,6.46-.92,8.47-2.78a9.94,9.94,0,0,0,3-7.67,10.66,10.66,0,0,0-2.84-7.84c-1.88-1.9-4.78-2.85-8.68-2.85H229.91Z"/><path class="cls-1" d="M313.9,327H299.38V256.55H313.9Z"/><path class="cls-1" d="M389.57,298.21H361.69V327H347.17V256.55h45.88v11.76H361.69V286.5h27.88Z"/><path class="cls-1" d="M436.73,327H422.21V256.55h14.52Z"/><path class="cls-1" d="M512.4,296.47H484.52v18.88h32.72V327H470V256.55h47.13v11.76H484.52V285.1H512.4Z"/><path class="cls-1" d="M545.58,327V256.55h21.68a32.93,32.93,0,0,1,16.62,4.18,29.28,29.28,0,0,1,11.45,11.91,36.74,36.74,0,0,1,4.11,17.54v3.24a36.84,36.84,0,0,1-4,17.47A28.9,28.9,0,0,1,584,322.75,33.09,33.09,0,0,1,567.4,327Zm14.52-58.7v47h7q8.52,0,13-5.57t4.6-15.92v-3.73q0-10.74-4.45-16.28t-13-5.54Z"/><path class="cls-2" d="M186.54,513.12l23.21-20.37,7.66,4.77L185,523.64l-7.17-4.47L187,478.58l7.63,4.76Z"/><path class="cls-2" d="M242.32,531.91l-14.47-5.7L224,536l17,6.69-2.38,6.06-24.53-9.67,14.41-36.58L253,512.15l-2.41,6.1-16.93-6.67-3.44,8.72,14.48,5.7Z"/><path class="cls-2" d="M275.09,543.1l-6.34-1.24L266,556l-8-1.56,7.58-38.58L280,518.65q6.82,1.35,9.95,5.12t2,9.35a11,11,0,0,1-9,9.43L288.15,560l-.07.37-8.53-1.68ZM270,535.42l6.41,1.26a6.72,6.72,0,0,0,4.94-.61,5.58,5.58,0,0,0,2.47-3.88,5.93,5.93,0,0,0-.71-4.6,6.59,6.59,0,0,0-4.45-2.5l-6.39-1.25Z"/><path class="cls-2" d="M316,562.14l-8.1-.37,1.78-39.28,8.09.36Z"/><path class="cls-2" d="M360,544l-15.49,1.43,1.47,16-8.07.75L334.28,523l25.5-2.35.6,6.53L343,528.78l.93,10.11,15.49-1.43Z"/><path class="cls-2" d="M390.55,554.1,382.66,556l-9-38.28,7.89-1.86Z"/><path class="cls-2" d="M427.58,523.57l-14.49,5.68,3.84,9.81,17-6.67,2.38,6.07-24.54,9.61-14.35-36.61,24.49-9.6,2.4,6.11-16.95,6.64,3.41,8.73,14.49-5.68Z"/><path class="cls-2" d="M454.46,529.37,433.73,496,444,489.58a18.22,18.22,0,0,1,9.11-2.91,16.18,16.18,0,0,1,8.93,2.28,20.48,20.48,0,0,1,7.12,7.1l.95,1.54a20.65,20.65,0,0,1,3.23,9.48,16.14,16.14,0,0,1-1.92,9,18.52,18.52,0,0,1-6.62,6.91Zm-10.39-32.11,13.84,22.31,3.33-2.07a8.79,8.79,0,0,0,4.54-6.47q.5-4-2.51-8.9l-1.09-1.77q-3.17-5.1-6.91-6.41t-7.8,1.2Z"/><path class="cls-2" d="M195.36,90.68,186.87,61l7.59-4.87,9.74,40.48-7.12,4.57L164.35,75.45l7.57-4.86Z"/><path class="cls-2" d="M243.1,59l-14.43,5.82,3.94,9.77,16.93-6.83,2.44,6L227.53,83.7,212.82,47.22l24.4-9.83,2.46,6.08-16.89,6.81L226.3,59l14.43-5.82Z"/><path class="cls-2" d="M277,52.86l-6.33,1.26,2.81,14.12-8,1.58-7.67-38.57,14.33-2.85q6.84-1.37,11.15.94t5.42,7.88a12.11,12.11,0,0,1-.4,6.92A11.93,11.93,0,0,1,284,49.37l11.48,14.1.07.37L287,65.54Zm-7.61-5.18,6.41-1.28A6.65,6.65,0,0,0,280.12,44a5.55,5.55,0,0,0,.81-4.53,5.93,5.93,0,0,0-2.4-4,6.58,6.58,0,0,0-5.07-.62l-6.38,1.27Z"/><path class="cls-2" d="M318.44,62.69l-8.09.35-1.68-39.29,8.09-.35Z"/><path class="cls-2" d="M360.87,49l-15.48-1.54-1.59,16-8.07-.81,3.9-39.13L365.11,26l-.65,6.53L347,30.84l-1,10.1,15.49,1.54Z"/><path class="cls-2" d="M383.61,70.35l-7.86-1.95,9.46-38.17,7.87,1.95Z"/><path class="cls-2" d="M428.49,68.36,414.1,62.45l-4,9.75L427,79.13l-2.47,6-24.39-10,14.93-36.38,24.34,10-2.5,6.07-16.84-6.91-3.55,8.67,14.39,5.91Z"/><path class="cls-2" d="M437,91.7l21.45-33,10.14,6.6a18.22,18.22,0,0,1,6.5,7,16.2,16.2,0,0,1,1.73,9,20.52,20.52,0,0,1-3.41,9.46l-1,1.52a20.61,20.61,0,0,1-7.21,6.94,16.18,16.18,0,0,1-8.94,2.08,18.42,18.42,0,0,1-9.06-3.07Zm24.66-23-14.32,22,3.28,2.14a8.82,8.82,0,0,0,7.79,1.36q3.79-1.23,7-6l1.13-1.74q3.27-5,2.88-9T465,70.84Z"/><path class="cls-1" d="M620.71,354.62H28a28,28,0,0,1-28-28V256.91a28,28,0,0,1,28-28H620.71a28,28,0,0,1,28,28v69.74A28,28,0,0,1,620.71,354.62ZM28,241.66a15.26,15.26,0,0,0-15.24,15.25v69.74A15.25,15.25,0,0,0,28,341.89H620.71A15.26,15.26,0,0,0,636,326.65V256.91a15.27,15.27,0,0,0-15.25-15.25Z"/><polygon class="cls-1" points="324.34 115.13 339.47 145.78 373.29 150.69 348.82 174.55 354.59 208.24 324.34 192.33 294.09 208.24 299.87 174.55 275.39 150.69 309.21 145.78 324.34 115.13"/><polygon class="cls-1" points="426.95 151.49 435.62 169.06 455 171.87 440.98 185.54 444.29 204.85 426.95 195.74 409.61 204.85 412.93 185.54 398.9 171.87 418.28 169.06 426.95 151.49"/><polygon class="cls-1" points="221.73 151.49 230.4 169.06 249.78 171.87 235.75 185.54 239.07 204.85 221.73 195.74 204.39 204.85 207.7 185.54 193.68 171.87 213.06 169.06 221.73 151.49"/></g></g></svg>