<?xml version="1.0" encoding="utf-8"?>
<!-- Generator: Adobe Illustrator 24.1.2, SVG Export Plug-In . SVG Version: 6.00 Build 0)  -->
<svg version="1.1" id="Layer_1" xmlns="http://www.w3.org/2000/svg" xmlns:xlink="http://www.w3.org/1999/xlink" x="0px" y="0px"
	 viewBox="0 0 1196.3 1033.2" style="enable-background:new 0 0 1196.3 1033.2;" xml:space="preserve">
<style type="text/css">
	.st0{display:none;}
	.st1{display:inline;}
	.st2{display:none;fill:#FFFFFF;stroke:#000000;stroke-width:21;stroke-miterlimit:10;}
	.st3{fill:none;stroke:#000000;stroke-width:11;stroke-miterlimit:10;}
	.st4{stroke:#000000;stroke-width:19;stroke-miterlimit:10;}
</style>
<g class="st0">
	<g class="st1">
		<path class="st2" d="M396.8,177.4c-1.5,0-2.9,0.1-4.4,0.2c0-0.4,0-0.9,0-1.3c0-43.7-32.5-79.8-74.6-85.5c0-0.3,0-0.5,0-0.8
			c0-9.9-8-17.9-17.9-17.9c-2.5,0-4.8,0.5-6.9,1.4C273.1,34.9,232.8,8.4,186.3,8.4c-55,0-101.3,37-115.5,87.4
			c-4.4-1.4-9-2.1-13.8-2.1c-25.7,0-46.5,20.8-46.5,46.5c0,7.8,1.9,15.2,5.4,21.7c-34.4,0.8-62.1,29-62.1,63.6
			c0,35.1,28.5,63.6,63.6,63.6s355.7,0,379.4,0c30.9,0,55.9-25,55.9-55.9S427.7,177.4,396.8,177.4z"/>
		<path class="st2" d="M1663.8,242.3c3.4-5.9,5.4-12.8,5.4-20.1c0-22.2-18-40.3-40.3-40.3c-4,0-7.9,0.6-11.5,1.7
			c0.5-3.6,0.7-7.2,0.7-11c0-31.4-18-58.6-44.2-71.9c3.6-7.8,5.6-16.5,5.6-25.7c0-33.8-27.4-61.2-61.2-61.2
			c-24.7,0-45.9,14.6-55.6,35.6c-8.5-8.5-20.1-13.7-33.1-13.7c-21.4,0-39.4,14.4-45,34c-5.8-1.1-11.8-1.7-17.9-1.7
			c-51.4,0-93,41.7-93,93c0,6.8,0.7,13.4,2.1,19.8c-2.6-0.5-5.2-0.8-7.9-0.8c-22.7,0-41.1,18.4-41.1,41.1c0,5.3,1,10.4,2.8,15
			c-0.9-0.1-1.9-0.2-2.8-0.2c-13.1,0-23.7,10.6-23.7,23.7c0,13.1,10.6,23.7,23.7,23.7c13.1,0,408.8,0,421.1,0
			c13.1,0,23.7-10.6,23.7-23.7C1671.6,252.9,1668.6,246.7,1663.8,242.3z"/>
		<path class="st2" d="M1026.2,599.2c-5.1,0-9.8,1.4-13.9,3.8c-2.9-23.1-22.6-41-46.4-41c-3.9,0-7.8,0.5-11.4,1.4
			c-2.8-13.3-14.6-23.3-28.7-23.3c-6.4,0-12.3,2.1-17.1,5.5c-7.6-26.3-31.8-45.5-60.5-45.5c-4.4,0-8.6,0.4-12.8,1.3
			c-15.2-36.4-51.1-62-93-62c-55.6,0-100.7,45.1-100.7,100.7c0,8.2,1,16.2,2.9,23.9c-8.2-5.2-18-8.3-28.5-8.3
			c-29.3,0-53.1,23.8-53.1,53.1c0,29.3,23.8,53.1,53.1,53.1c4.1,0,8.1-0.5,11.9-1.4c-0.9,1.8-1.5,3.8-1.8,6
			c-1.6,11.1,6.1,21.5,17.2,23.1c5.8,0.8,11.4-0.9,15.6-4.2c8,18.8,25.3,33.1,46.9,36.3c15.8,2.3,31.1-1.8,43.2-10.2
			c1.6,22.8,18.8,42.1,42.3,45.6c24.2,3.5,46.8-11.1,54.2-33.5c10.3,8,22.7,13.6,36.6,15.6c42.6,6.2,82.1-23.3,88.3-65.9
			c0.1-0.7,0.2-1.3,0.2-2c4.1,5.9,10.5,10.1,18.2,11.2c14.7,2.1,28.4-8.1,30.5-22.8c0.4-2.5,0.4-4.9,0.1-7.3
			c2.1,0.5,4.3,0.8,6.6,0.8c14.9,0,26.9-12.1,26.9-26.9S1041.1,599.2,1026.2,599.2z"/>
		<path class="st2" d="M1681.5,650c10.3-8.4,16.9-21.2,16.9-35.5c0-25.3-20.5-45.8-45.8-45.8c-2,0-3.9,0.1-5.8,0.4
			c1.1-4.6,1.7-9.3,1.7-14.2c0-33-26.7-59.7-59.7-59.7c-9.9,0-19.1,2.4-27.3,6.6c-19.2-37.2-58.1-62.7-102.8-62.7
			c-50.2,0-93,32-109,76.7c-12.8-11-29.5-17.6-47.7-17.6c-40.6,0-73.5,32.9-73.5,73.5c0,3.2,0.2,6.3,0.6,9.4c-2.5-0.4-5-0.7-7.6-0.7
			c-24.9,0-45,20.2-45,45c0,24.9,20.2,45,45,45c5.3,0,10.3-0.9,15-2.6c3.7,21.8,22.6,38.4,45.4,38.4c12,0,22.9-4.6,31.1-12.1
			c10.1,31.6,39.6,54.4,74.5,54.4c21.7,0,41.4-8.9,55.6-23.2c7.9,13.9,22.9,23.2,40,23.2c13.8,0,26.1-6.1,34.6-15.6
			c14.2,15,34.4,24.4,56.7,24.4c41.8,0,75.9-32.8,78.1-74.1c4.1,6.1,11.1,10.1,19,10.1c12.6,0,22.9-10.3,22.9-22.9
			C1694.3,661.5,1689.1,653.8,1681.5,650z"/>
		<path class="st2" d="M1002.7,1471.2c-0.2,0-0.4,0-0.7,0c0.4-2.6,0.7-5.2,0.7-7.9c0-26-21.1-47.1-47.1-47.1
			c-11.8,0-22.5,4.3-30.8,11.5c-6.6-47.7-47.5-84.5-97.1-84.5c-39.8,0-74.1,23.8-89.4,57.9c-16.2,1.6-30.7,9-41.4,20
			c-9-8.1-21-13-34-13c-28.3,0-51.2,22.9-51.2,51.2c0,7,1.4,13.6,3.9,19.6c-1.3-0.1-2.6-0.2-3.9-0.2c-20.7,0-37.5,16.8-37.5,37.5
			c0,20.7,16.8,37.5,37.5,37.5c3.2,0,6.2-0.4,9.1-1.1c2.5,25.6,24.1,45.5,50.3,45.5c15.4,0,29.2-6.9,38.4-17.7
			c8.1,10.7,20.9,17.6,35.3,17.6c2,0,4-0.2,6-0.4c6.2,31.3,33.7,54.9,66.8,54.9c36,0,65.5-28,67.9-63.3c7,2.9,14.7,4.5,22.8,4.5
			c32.7,0,59.1-26.5,59.1-59.1c0-2.5-0.2-5-0.5-7.4c6.3,13.4,19.8,22.6,35.6,22.6c21.7,0,39.3-17.6,39.3-39.3
			C1042,1488.8,1024.4,1471.2,1002.7,1471.2z"/>
		<path class="st2" d="M1057.5,982.6c-5.8,0-11.2,1.7-15.7,4.5c-2.9-13.2-14.7-23.1-28.8-23.1c-12,0-22.3,7.1-26.9,17.4
			c-12.1-29.3-40.9-49.9-74.5-49.9c-12.8,0-24.9,3-35.6,8.3c-18.2-25.8-48.2-42.6-82.2-42.6c-20.3,0-39.1,6-54.9,16.3
			c-12.4-10.2-28.4-16.3-45.7-16.3c-39.8,0-72.2,32.3-72.2,72.2c0,4,0.3,8,1,11.8c-10.2,1.2-19.5,5.6-26.8,12.1
			c-6.9-7.6-17-12.4-28.1-12.4c-21,0-37.9,17-37.9,37.9c0,21,17,37.9,37.9,37.9c0.4,0,0.9,0,1.3,0c-0.9,3.1-1.3,6.4-1.3,9.8
			c0,20.2,16.4,36.6,36.6,36.6c6.8,0,13.2-1.9,18.7-5.1c0,0.2,0,0.3,0,0.5c0,39.1,31.7,70.8,70.8,70.8c24.9,0,46.8-12.9,59.4-32.3
			c8.4,35.6,40.3,62.1,78.4,62.1c34.6,0,64-21.8,75.5-52.3c10.1,7.7,22.8,12.2,36.5,12.2c32.4,0,58.9-25.5,60.5-57.5
			c0.9,0,1.8,0.1,2.8,0.1c28.4,0,51.3-23,51.3-51.3c0-2.9-0.3-5.8-0.7-8.6c0.2,0,0.5,0,0.7,0c16.3,0,29.5-13.2,29.5-29.5
			C1087,995.8,1073.8,982.6,1057.5,982.6z"/>
		<path class="st2" d="M1681.9,1039.5c-8.9,0-17,3-23.5,8c-6.4-33.9-36.2-59.5-72-59.5c-0.5,0-1,0-1.5,0
			c-8.9-55.7-57.1-98.2-115.3-98.2c-57.5,0-105.2,41.5-114.9,96.2c-13.4-15.5-33.2-25.3-55.3-25.3c-40.5,0-73.3,32.8-73.3,73.3
			c0,0.5,0,1,0,1.6c-4.3-1-8.8-1.6-13.4-1.6c-32.3,0-58.5,26.2-58.5,58.5c0,32.3,26.2,58.5,58.5,58.5c12.3,0,23.7-3.8,33.1-10.3
			c7.9,34.1,38.4,59.5,74.8,59.5c23.8,0,45-10.8,59.1-27.7c13.8,20.2,37.1,33.5,63.4,33.5c31.8,0,59-19.3,70.7-46.8
			c9,5.7,19.6,9,31,9c21,0,39.4-11.2,49.6-27.9c6.7,16.6,23,28.3,42,28.3c25,0,45.3-20.3,45.3-45.3c0-2.3-0.2-4.5-0.5-6.7
			c0.2,0,0.3,0,0.5,0c21.3,0,38.5-17.2,38.5-38.5C1720.4,1056.7,1703.2,1039.5,1681.9,1039.5z"/>
		<path class="st2" d="M1635.7,1423.1c-6.2,0-12.2,1.1-17.8,3.1c0.1-1.6,0.2-3.2,0.2-4.9c0-35.7-29-64.7-64.7-64.7
			c-19.5,0-37.1,8.7-48.9,22.4c-17.2-27.4-47.8-45.6-82.5-45.6c-42.1,0-78,26.7-91.6,64.1c-7.6-3-15.9-4.6-24.5-4.6
			c-37.4,0-67.7,30.3-67.7,67.7c0,2.5,0.1,5,0.4,7.5c-0.1,0-0.3,0-0.4,0c-28.7,0-52,23.3-52,52c0,28.7,23.3,52,52,52
			c13.6,0,25.9-5.2,35.1-13.7c0,0.7-0.1,1.4-0.1,2.1c0,41.1,33.3,74.4,74.4,74.4c26.7,0,50.1-14.1,63.2-35.3
			c18.3,36.7,56.3,61.9,100.1,61.9c61.8,0,111.9-50.1,111.9-111.9c0-7.7-0.8-15.2-2.3-22.4c4.8,1.4,9.9,2.2,15.2,2.2
			c29.3,0,53.1-23.8,53.1-53.1S1665,1423.1,1635.7,1423.1z"/>
		<path class="st2" d="M423.6,1529c0.2-1.6,0.3-3.2,0.3-4.8c0-16.5-11.5-30.4-26.9-34.1c1.3-2.9,2.1-6.2,2.1-9.6
			c0-13-10.6-23.6-23.6-23.6c-5.9,0-11.3,2.2-15.5,5.8c-11.6-13.4-28.7-21.9-47.9-21.9c-13.6,0-26.3,4.3-36.6,11.6
			c0.5-3.1,0.7-6.2,0.7-9.4c0-33.1-26.8-60-60-60c-21.5,0-40.4,11.4-51,28.4c-7.8-12.3-21.6-20.5-37.3-20.5c-8,0-15.6,2.2-22.1,5.9
			c-6.5-3.8-14-5.9-22.1-5.9c-24.4,0-44.1,19.8-44.1,44.1c0,4,0.6,8,1.6,11.7c-21.7,8.3-37.1,29.3-37.1,53.9c0,1.2,0,2.4,0.1,3.6
			c-1.1-0.1-2.2-0.2-3.4-0.2c-19.7,0-35.6,15.9-35.6,35.6c0,19.7,15.9,35.6,35.6,35.6c5.8,0,11.4-1.4,16.2-3.9
			c7.6,16.1,24,27.3,43,27.3c10.7,0,20.5-3.5,28.5-9.5c15.1,14.1,35.4,22.7,57.6,22.7c22.8,0,43.5-9,58.7-23.7
			c8.6,12.2,22.8,20.1,38.8,20.1c25.2,0,45.9-19.7,47.4-44.5c6.6,2.3,13.6,3.6,21,3.6c19.4,0,36.8-8.7,48.4-22.5
			c6.4,8.7,16.7,14.4,28.3,14.4c6.6,0,12.8-1.8,18-5c2.8,6.2,9,10.4,16.2,10.4c9.9,0,17.9-8,17.9-17.9
			C441,1537.1,433.3,1529.2,423.6,1529z"/>
	</g>
</g>
<path class="st3" d="M841,482.6c50.2,0,90.9-40.7,90.9-90.9c0-50.2-40.7-90.9-90.9-90.9c-2.6,0-5.2,0.1-7.8,0.3
	c5.4-10.2,8.2-21.8,7.7-34.2c-1.3-35-29.7-63.5-64.7-65.1c-12-0.5-23.4,2.1-33.3,7c-20.3-32.8-56.7-54.7-98.1-54.7
	c-59.4,0-108.4,44.9-114.7,102.7c-10.6-6.9-23.3-10.9-36.9-10.9c-24.5,0-45.9,13-57.8,32.4c-8.9-8.1-20.9-12.9-34.1-12.5
	c-24.5,0.9-44.7,20.5-46.1,45c-0.6,10.4,2.1,20.1,7.2,28.3c-32.3,7.3-56.5,36.2-56.5,70.8c0,39.7,31.9,72,71.5,72.5
	c0-1.2,0-2.4,0-3.7c0,1.3,0,2.5,0,3.7c0.4,0,0.7,0,1.1,0"/>
<path class="st2" d="M1027.7,905.7c3.2-7.9,4.9-16.5,4.9-25.5c0-37.9-30.7-68.5-68.5-68.5c-5.9,0-11.6,0.7-17.1,2.2
	c2.5-8.3,3.9-17,3.9-26.1c0-49.7-40.3-89.9-89.9-89.9c-40,0-73.8,26.1-85.5,62.2c-10.5-10.9-25.2-17.6-41.5-17.6
	c-31.9,0-57.7,25.8-57.7,57.7c0,4.6,0.5,9,1.5,13.2c-41,7.8-72,43.9-72,87.1c0,49,39.7,88.7,88.7,88.7c49,0,300.2,0,323.3,0
	c23.4,0,42.3-18.9,42.3-42.3C1060.2,926.8,1046.3,910.1,1027.7,905.7z"/>
<path class="st2" d="M404.8,1025.3c-6.2,0-12.1,1.4-17.4,3.8c2.8-8.6,4.3-17.8,4.3-27.3c0-48.7-39.5-88.1-88.1-88.1
	c-18.2,0-35.2,5.5-49.2,15c-13.1-15.7-32.8-25.8-54.9-25.8c-29.2,0-54.3,17.6-65.4,42.7c-10.1-5.7-21.9-9-34.3-9
	c-38.6,0-69.8,31.3-69.8,69.8c0,3.9,0.3,7.7,0.9,11.3c-6.6-3.3-14.1-5.2-22-5.2c-27.2,0-49.2,22-49.2,49.2c0,27.2,22,49.2,49.2,49.2
	c8.4,0,16.3-2.1,23.2-5.8c8.5,37.8,42.3,66,82.7,66c18.8,0,36.2-6.1,50.2-16.5c15,23,40.8,38.1,70.3,38.1c40.7,0,74.7-29,82.2-67.5
	c7.4,6.7,17.3,10.8,28.1,10.8c19.5,0,36-13.4,40.6-31.5c5.6,2.8,12,4.4,18.7,4.4c23.1,0,41.9-18.8,41.9-41.9
	C446.7,1044,428,1025.3,404.8,1025.3z"/>
<g>
	<g>
		<path d="M407.1,447.2l-0.7,0c2.3,17.3,10.4,74.2,17.1,115.9c3.9,24.3,8.1,43,9.9,43c3.5,0,249.9,1.6,281.6,1.8v0l82.4-188.5
			L734,424l-277,19.7L407.1,447.2 M809.8,416.1l-86.9,198.7c-0.7,2.1-2.6,3.3-4.8,3.4c-1.2,0-286.5-1.8-290.3-1.8
			c-4.5,0-9.6-22.3-14.3-51.4c-7.7-47.6-17.1-115-17.8-121.4c-0.4-2.7,1.5-5.3,4.3-5.7c0.1,0,0.2,0,0.3,0l55.9-4l277-19.7l71.3-5.1
			c2.7-0.3,5.2,1.6,5.6,4.4C810.3,414.4,810.1,415.3,809.8,416.1L809.8,416.1z"/>
		<path d="M738.1,414.3c-1.1,2.5,0.1,5.5,2.6,6.6s5.5-0.1,6.6-2.6l0,0c0.1-0.2,28.5-67.6,56.5-80.5c8.4-3.9,28.7-1.3,45.4,1.3
			c-10.1,6-18.3,15.1-25,24.7c-12.8,18.5-21,40.5-23.7,48.4c-0.9,2.6,0.5,5.5,3.1,6.3c2.6,0.9,5.5-0.5,6.3-3.1
			c2.6-7.6,10.5-29.1,22.8-46.5c9-12.7,22.2-25.8,38.4-26.4c6.4,0.4,7.2-9.2,0.8-10c-3.1-0.3-7.8-1.1-13.3-2
			c-18.8-3.1-46.6-7.6-59.2-1.8C768,343.2,738.2,414.1,738.1,414.3z"/>
		<path d="M667,614.5c-0.1-2.8-2.4-4.9-5.1-4.9c-2.7,0.1-4.8,2.2-4.9,4.9v20.7c0,2.8,2.2,5,5,5c0,0-0.1,0-0.1,0H704c2.8,0,5-2.2,5-5
			l0,0v-20.7c0-2.8-2.2-5-5-5c-2.8,0-5,2.2-5,5v15.7h-32L667,614.5z"/>
		<path d="M689.9,636.8c-0.1-2.7-2.4-4.9-5.2-4.8c-2.6,0.1-4.8,2.2-4.8,4.9c0.1,9.7-1.2,17.8-6.7,24c-5.6,6.3-15.9,10.3-34,10.3
			H454.7c-2.8,0.1-4.9,2.4-4.9,5.1c0.1,2.7,2.2,4.8,4.9,4.9h184.5c21.4,0,34-5.3,41.5-13.7C688.2,658.9,690,648.6,689.9,636.8z"/>
		<path d="M632.4,687.8c14.7,0,26.6,11.9,26.6,26.6s-11.9,26.6-26.6,26.6s-26.6-11.9-26.6-26.6c0-7.1,2.8-13.8,7.8-18.8
			C618.6,690.6,625.4,687.8,632.4,687.8z M644,702.7c-6.7-6.7-17.6-6.5-24,0.6c-5.7,6.3-5.7,16.1,0,22.4c6.4,7,17.4,7.2,24,0.6
			c3.1-3.1,4.9-7.3,4.9-11.7C648.9,710,647.1,705.8,644,702.7L644,702.7z"/>
		<path d="M507.2,687.8c14.7,0,26.6,11.9,26.6,26.6c0,14.7-11.9,26.6-26.6,26.6c-14.7,0-26.6-11.9-26.6-26.6
			c0-7.1,2.8-13.8,7.8-18.8C493.4,690.6,500.1,687.8,507.2,687.8z M519,702.7c-6.7-6.7-17.6-6.5-24,0.6c-5.7,6.3-5.7,16.1,0,22.4
			c6.4,7,17.4,7.2,24,0.6c3.1-3.1,4.9-7.3,4.9-11.7C523.9,710,522.1,705.8,519,702.7L519,702.7z"/>
	</g>
</g>
<rect x="647" y="333.9" class="st4" width="5.9" height="155"/>
<rect x="597" y="392" class="st4" width="5.9" height="97"/>
<rect x="547" y="346.1" class="st4" width="5.9" height="142.9"/>
<rect x="497" y="381.7" class="st4" width="5.9" height="107.2"/>
<rect x="447" y="406.3" class="st4" width="5.9" height="82.7"/>
<rect x="697" y="262.6" class="st4" width="5.9" height="226.3"/>
</svg>
