<svg xmlns="http://www.w3.org/2000/svg" viewBox="0 0 636.87 592.28">
  <defs>
    <style>.cls-1{fill:none;stroke-width:11px;}.cls-1,.cls-2{stroke:#000;stroke-miterlimit:10;}.cls-2{stroke-width:19px;}</style>
    <linearGradient id="logo-gradient" x1="50%" y1="0%" x2="50%" y2="100%" >
      <stop offset="0%" stop-color="#ee7752">
        <animate attributeName="stop-color" values="#ee7752; #e73c7e; #23a6d5;#23d5ab;#ee7752; " dur="10s" repeatCount="indefinite"></animate>
      </stop>
    </linearGradient>

  </defs>
  
  <g id="Layer_2" data-name="Layer 2"  fill="url('#logo-gradient')">
      <path class="cls-1" d="M540.51,333.84a90.86,90.86,0,1,0,0-181.71c-2.62,0-5.22.12-7.79.33a67.84,67.84,0,0,0-90.25-92.3,115.41,115.41,0,0,0-212.83,48A67.86,67.86,0,0,0,135,129.68a48,48,0,0,0-73,60.83,72.56,72.56,0,0,0,15,143.3v0l1.06,0"/>
      <path d="M106.6,298.46l-.68.05c2.29,17.28,10.36,74.2,17.08,115.94,3.92,24.33,8.07,43,9.93,43,3.51,0,249.85,1.56,281.57,1.75v0l82.42-188.48-63.37,4.51-277,19.66-50,3.55m402.69-31.11L422.41,466a5,5,0,0,1-4.77,3.35c-1.25,0-286.54-1.77-290.29-1.77-4.51,0-9.64-22.34-14.3-51.44-7.67-47.65-17.1-115-17.79-121.39a5,5,0,0,1,4.27-5.68l.34,0,55.89-4,277-19.67,71.32-5.06a5,5,0,0,1,5.21,7Z"/>
      <path d="M437.6,265.55a5,5,0,1,0,9.19,3.91h0c.08-.18,28.45-67.57,56.5-80.52,8.44-3.89,28.71-1.31,45.42,1.33-10.12,6-18.35,15.07-25,24.67-12.8,18.45-21,40.52-23.65,48.39a5,5,0,1,0,9.47,3.22c2.59-7.58,10.53-29.12,22.81-46.54,9-12.74,22.24-25.81,38.43-26.36,6.36.35,7.23-9.21.8-10-3.13-.32-7.81-1.09-13.26-2-18.85-3.09-46.57-7.64-59.16-1.83C467.52,194.45,437.68,265.35,437.6,265.55Z"/>
      <path d="M366.51,465.73a5,5,0,0,0-10,0v20.66a5,5,0,0,0,5,5h42a5,5,0,0,0,5-5h0V465.73a5,5,0,0,0-10,0v15.66h-32Z"/>
      <path d="M389.42,488a5,5,0,0,0-10,.07c.08,9.71-1.23,17.77-6.74,24s-15.91,10.33-34,10.33H154.21a5,5,0,0,0,0,10H338.69c21.36,0,34-5.33,41.49-13.74S389.53,499.85,389.42,488Z"/>
      <path d="M332,539a26.63,26.63,0,1,1-18.83,7.8A26.63,26.63,0,0,1,332,539Zm11.55,14.87a16.61,16.61,0,1,0,4.87,11.74,16.61,16.61,0,0,0-4.87-11.74Z"/>
      <path d="M206.7,539a26.63,26.63,0,1,1-18.83,7.8A26.63,26.63,0,0,1,206.7,539Zm11.8,14.87a16.61,16.61,0,1,0,4.87,11.74,16.61,16.61,0,0,0-4.87-11.74Z"/>
      <rect class="cls-2" x="346.54" y="185.11" width="5.94" height="155.04"/>
      <rect class="cls-2" x="296.54" y="243.19" width="5.94" height="96.97"/>
      <rect class="cls-2" x="246.54" y="197.3" width="5.94" height="142.87"/>
      <rect class="cls-2" x="196.54" y="232.92" width="5.94" height="107.24"/>
      <rect class="cls-2" x="146.54" y="257.48" width="5.94" height="82.69"/>
      <rect class="cls-2" x="396.54" y="113.85" width="5.94" height="226.3"/>
  </g>
</svg>
