<svg xmlns="http://www.w3.org/2000/svg" viewBox="0 0 536.4 498.57"><defs><style>.cls-1{fill:#fff;}</style></defs><g id="Layer_2" data-name="Layer 2"><g id="Layer_1-2" data-name="Layer 1"><path class="cls-1" d="M274.48,498.57H179.62c1.09-.53,2.16-1.12,3.28-1.59a22.47,22.47,0,1,0-30.14-14.49c2.5,8.59,8.72,13.3,16.79,16.08H0V0H536.4V198a9.12,9.12,0,0,1-.69-1.91c-5-37.1-30.49-63.87-67.3-70.56-4.15-.75-8.39-1-12.7-1.53C463.2,98.73,458.89,76.4,440,58.4s-41.65-21.25-65.83-12.82c-27-35.22-62.1-50.89-105.43-41.74S200,41.8,189.6,84.47C176,78.3,162.27,76.76,148,80.2c-14.4,3.48-25.9,11.46-34.88,23C96,92.87,78.67,91.67,62.32,102.91c-19.86,13.66-24,33.07-16.69,55.36-35.9,12.86-51.57,49.31-42.1,81.06,10.28,34.52,43,48.18,62.63,46.4v-8.5C32.34,275.49,13,251,10.37,226.45a54.51,54.51,0,0,1,7.72-34.57c9.47-15.74,23.8-24.35,42.19-27.47-5.6-8.21-9.33-16.48-8.69-26.17a35.22,35.22,0,0,1,11.53-24.38A34.3,34.3,0,0,1,83,104.77c12.76-1.45,23.15,3.45,32.25,12.76,8.27-15.39,20.23-25.2,36.86-28.72S183.48,90,197,100c5.32-45.6,28.28-76.86,73.15-86.86,43.17-9.62,76.62,7.89,100.6,44.42,24.81-13,46.83-6.53,59.64,4.78,23.47,20.73,24.77,45.27,9.76,72.42,21.93-3.1,41.57.53,58.68,13.77s26.48,30.83,28,52.33A68.26,68.26,0,0,1,513.56,247c-14.47,19.8-34.39,29.49-59,30.18V286c2.49,0,4.84.15,7.17,0a80.59,80.59,0,0,0,70.34-55.12c1.89-5.78,2.9-11.83,4.32-17.76V498.57H284.56c1.1-.51,2.19-1.06,3.31-1.53a22.47,22.47,0,1,0-27-33.44c-5.54,8.34-5.54,18.94,1.14,26.4C265.31,493.65,270.28,495.76,274.48,498.57ZM304.66,228.3V148.92h-21.1v80.84l-20.91,1.4V197.83H241.76V232.7l-21.09,1.51v-75H199.72v76.5l-21.07,1.42V189.26H157.76v49.39l-21.06,1.52V209.89H115.77v31.76c-10,.72-19.6,1.35-29.19,2.14-5.48.45-6.45,1.87-5.64,7.34,5.2,35.11,10.19,70.25,15.72,105.32,1.73,11,4.82,21.78,7.41,32.63.84,3.52,3,5.1,7,5.07,17.76-.13,35.53.07,53.29.18q66.09.41,132.18.85c1.07,0,2.15.19,3.58.32,0,4.55.05,8.87,0,13.18-.06,3.71,1.67,5.35,5.37,5.26,4.44-.11,8.89,0,13.27,0,1,11.28-4.57,20.25-15,23.2a68.43,68.43,0,0,1-18.16,2.57c-50.65.2-101.29.11-151.94.11-1.26,0-2.84-.44-3.71.15-1.54,1.06-3.64,2.75-3.65,4.19s2.2,3,3.72,4.06c.75.54,2.18.14,3.3.14q76.38,0,152.78,0a90.49,90.49,0,0,0,12.94-1c15.59-2.28,25.4-11.17,28.1-25.32.49-2.57.66-5.2,1-8.06,3.4,0,6.47,0,9.53,0,5.09,0,6.33-1.28,6.4-6.5.05-3.86,0-7.73,0-11.37a8.08,8.08,0,0,1,1.33-.5,5.53,5.53,0,0,1,1.67-.07c5.78,1.09,8.31-2,10.47-7C374,350.29,390.75,312.21,407.32,274c8.5-19.59,16.78-39.27,25.11-58.94,5.15-12.13,10.88-23.94,19.38-34.13,7.52-9,16.17-16.21,28.67-17.16,1.38-.11,3.56-2.56,3.59-4s-1.84-3.36-3.35-4.32c-1.28-.82-3.24-.59-4.91-.8-13.16-1.6-26.31-3.37-39.51-4.73-10.41-1.07-19.68,1.94-27.12,9.51a152.57,152.57,0,0,0-12,13.4c-11.33,14.69-19.8,31.07-27.66,47.8-.58,1.23-1.77,3-2.82,3.06-6.49.68-13,1-20.09,1.42V89.11h-20.9v137.6Z"/><path d="M536.4,213.13c-1.42,5.93-2.43,12-4.32,17.76A80.59,80.59,0,0,1,461.74,286c-2.33.18-4.68,0-7.17,0v-8.86c24.6-.69,44.52-10.38,59-30.18a68.26,68.26,0,0,0,13.3-46.17c-1.51-21.5-10.91-39.12-28-52.33s-36.75-16.87-58.68-13.77c15-27.15,13.71-51.69-9.76-72.42C417.62,51,395.6,44.58,370.79,57.53c-24-36.53-57.43-54-100.6-44.42C225.32,23.11,202.36,54.37,197,100c-13.56-10-28.32-14.69-44.94-11.16s-28.59,13.33-36.86,28.72c-9.1-9.31-19.49-14.21-32.25-12.76a34.3,34.3,0,0,0-19.87,9.09,35.22,35.22,0,0,0-11.53,24.38c-.64,9.69,3.09,18,8.69,26.17-18.39,3.12-32.72,11.73-42.19,27.47a54.51,54.51,0,0,0-7.72,34.57c2.59,24.59,22,49,55.79,50.78v8.5c-19.64,1.78-52.35-11.88-62.63-46.4-9.47-31.75,6.2-68.2,42.1-81.06-7.34-22.29-3.17-41.7,16.69-55.36,16.35-11.24,33.68-10,50.82.25,9-11.5,20.48-19.48,34.88-23,14.25-3.44,28-1.9,41.58,4.27C200,41.8,225.48,13,268.78,3.84s78.41,6.52,105.43,41.74c24.18-8.43,46.86-5.3,65.83,12.82S463.2,98.73,455.71,124c4.31.51,8.55.78,12.7,1.53,36.81,6.69,62.29,33.46,67.3,70.56a9.12,9.12,0,0,0,.69,1.91Z"/><path d="M274.48,498.57c-4.2-2.81-9.17-4.92-12.44-8.57-6.68-7.46-6.68-18.06-1.14-26.4a22.49,22.49,0,1,1,27,33.44c-1.12.47-2.21,1-3.31,1.53Zm4.75-36.2c-7.53.07-14,6.65-13.79,14A14.21,14.21,0,0,0,279.27,490a13.83,13.83,0,1,0,0-27.66Z"/><path d="M169.55,498.57c-8.07-2.78-14.29-7.49-16.79-16.08A22.49,22.49,0,1,1,182.9,497c-1.12.47-2.19,1.06-3.28,1.59ZM188.15,476a13.84,13.84,0,0,0-14.07-13.62,13.83,13.83,0,0,0,.38,27.65A13.86,13.86,0,0,0,188.15,476Z"/><path d="M304.66,228.3l21-1.59V89.11h20.9V225.18c7.07-.45,13.6-.74,20.09-1.42,1.05-.11,2.24-1.83,2.82-3.06,7.86-16.73,16.33-33.11,27.66-47.8a152.57,152.57,0,0,1,12-13.4c7.44-7.57,16.71-10.58,27.12-9.51,13.2,1.36,26.35,3.13,39.51,4.73,1.67.21,3.63,0,4.91.8,1.51,1,3.39,2.87,3.35,4.32s-2.21,3.86-3.59,4c-12.5.95-21.15,8.14-28.67,17.16-8.5,10.19-14.23,22-19.38,34.13-8.33,19.67-16.61,39.35-25.11,58.94C390.75,312.21,374,350.29,357.49,388.5c-2.16,5-4.69,8.06-10.47,7a5.53,5.53,0,0,0-1.67.07,8.08,8.08,0,0,0-1.33.5c0,3.64,0,7.51,0,11.37-.07,5.22-1.31,6.47-6.4,6.5-3.06,0-6.13,0-9.53,0-.35,2.86-.52,5.49-1,8.06-2.7,14.15-12.51,23-28.1,25.32a90.49,90.49,0,0,1-12.94,1q-76.39.1-152.78,0c-1.12,0-2.55.4-3.3-.14-1.52-1.08-3.72-2.68-3.72-4.06s2.11-3.13,3.65-4.19c.87-.59,2.45-.15,3.71-.15,50.65,0,101.29.09,151.94-.11a68.43,68.43,0,0,0,18.16-2.57c10.45-2.95,16-11.92,15-23.2-4.38,0-8.83-.09-13.27,0-3.7.09-5.43-1.55-5.37-5.26.07-4.31,0-8.63,0-13.18-1.43-.13-2.51-.31-3.58-.32q-66.09-.44-132.18-.85c-17.76-.11-35.53-.31-53.29-.18-4,0-6.13-1.55-7-5.07-2.59-10.85-5.68-21.64-7.41-32.63-5.53-35.07-10.52-70.21-15.72-105.32-.81-5.47.16-6.89,5.64-7.34,9.59-.79,19.19-1.42,29.19-2.14V209.89H136.7v30.28l21.06-1.52V189.26h20.89v47.86l21.07-1.42V159.2h20.95v75l21.09-1.51V197.83h20.89v33.33l20.91-1.4V148.92h21.1ZM90,252.06c.06,1,.06,1.72.16,2.4,4.1,28.21,8,56.44,12.4,84.61,2.14,13.79,5.12,27.45,7.72,41.17.68,3.57,2.24,5.14,6.44,5.13,26,0,52,.38,78,.55,49.93.32,99.86.54,149.78.92,3.15,0,4.58-1,5.84-3.87q31.73-73,63.7-145.86c1.1-2.52,2.19-5.05,3.62-8.34l-71.19,5v60.68H325.65V235.35l-21.13,1.47v57.64H283.68V238.24l-21,1.59v54.82h-21V241.29l-20.87,1.51v51.93h-21V244.2l-21,1.61v48.92H157.67V247.26l-20.89,1.46v46H115.65V250.18ZM378,223c2.08-.12,3.41-.19,4.75-.28,9.34-.66,18.68-1.93,28-1.79,7.77.11,11.41-2.53,14.33-10,7.39-19,17.15-36.74,34.46-49,.12-.08,0-.47.07-1.14-6.49-.73-13-1.29-19.5-2.22-13.5-1.95-23.42,3.78-31.75,13.83-9.6,11.59-17.23,24.37-24,37.71C382.27,214.14,380.33,218.26,378,223Zm-42.82,172.6H309.09v9.49h26.12Z"/><path class="cls-1" d="M279.23,462.37a13.83,13.83,0,1,1,0,27.66,14.21,14.21,0,0,1-13.83-13.62C265.24,469,271.7,462.44,279.23,462.37Z"/><path class="cls-1" d="M188.15,476a13.86,13.86,0,0,1-13.69,14,13.83,13.83,0,0,1-.38-27.65A13.84,13.84,0,0,1,188.15,476Z"/><path class="cls-1" d="M90,252.06l25.62-1.88v44.55h21.13v-46l20.89-1.46v47.47h21.05V245.81l21-1.61v50.53h21V242.8l20.87-1.51v53.36h21V239.83l21-1.59v56.22h20.84V236.82l21.13-1.47v59.14h20.87V233.81l71.19-5c-1.43,3.29-2.52,5.82-3.62,8.34Q382.2,310,350.39,383c-1.26,2.89-2.69,3.9-5.84,3.87-49.92-.38-99.85-.6-149.78-.92-26-.17-52-.59-78-.55-4.2,0-5.76-1.56-6.44-5.13-2.6-13.72-5.58-27.38-7.72-41.17-4.38-28.17-8.3-56.4-12.4-84.61C90.09,253.78,90.09,253.09,90,252.06Z"/><path class="cls-1" d="M378,223c2.3-4.7,4.24-8.82,6.32-12.88,6.81-13.34,14.44-26.12,24-37.71,8.33-10.05,18.25-15.78,31.75-13.83,6.48.93,13,1.49,19.5,2.22,0,.67.05,1.06-.07,1.14-17.31,12.22-27.07,30-34.46,49-2.92,7.5-6.56,10.14-14.33,10-9.32-.14-18.66,1.13-28,1.79C381.44,222.77,380.11,222.84,378,223Z"/><path class="cls-1" d="M335.21,395.56v9.49H309.09v-9.49Z"/></g></g></svg>